M48
;GenerationSoftware,Autodesk,EAGLE,9.6.2*%
;CreationDate,2022-02-28T03:59:25Z*%
FMAT,2
ICI,OFF
INCH,TZ,00.0000
T5C0.0276
T4C0.0320
T3C0.0400
T2C0.0492
T1C0.1180
%
G90
M72
T1
X13437Y2276
X12256Y4126
X11075Y2276
T2
X16142Y5315
X1280Y18307
X16142Y18307
X1280Y5315
T3
X3917Y3764
X3917Y4764
X10445Y8075
X7885Y8075
X16299Y12665
X10445Y6295
X7885Y6295
X3917Y2764
X16220Y19642
X16220Y20642
X16220Y21642
X16220Y22642
X2756Y14705
X2756Y13705
X2756Y12705
X2756Y11705
X2756Y10705
X2756Y9705
X2756Y22472
X2756Y21472
X2756Y20472
X2756Y19472
X2756Y18472
X16299Y7665
X16299Y8665
X16299Y9665
X16299Y10665
X16299Y11665
X16299Y13665
X16299Y14665
X16299Y15665
X16299Y16665
X14528Y6677
X14528Y7677
X14528Y8677
T4
X10610Y21634
X10610Y22634
X7610Y22634
X7610Y21634
X14953Y18846
X7610Y19634
X7610Y18634
X7610Y17634
X7610Y16634
X7610Y15634
X7610Y14634
X7610Y13634
X7610Y12634
X7610Y11634
X7610Y10634
X7610Y9634
X6327Y1398
X6327Y2398
X6248Y4256
X6248Y5256
X13984Y17469
X14984Y17469
X13953Y18846
X12638Y9634
X13638Y9634
X5535Y15886
X4535Y15886
X12118Y8551
X12118Y5551
X6291Y17291
X3291Y17291
X10610Y9634
X10610Y10634
X10610Y11634
X10610Y12634
X10610Y13634
X7610Y20634
X10610Y14634
X10610Y15634
X10610Y16634
X10610Y17634
X3224Y6811
X6224Y6811
X3949Y8386
X4949Y8386
X10610Y18634
X10610Y19634
X10610Y20634
T5
X12500Y19177
X12500Y17177
M30