G04 EAGLE Gerber X2 export*
%TF.Part,Single*%
%TF.FileFunction,Copper,L2,Bot,Mixed*%
%TF.FilePolarity,Positive*%
%TF.GenerationSoftware,Autodesk,EAGLE,9.6.2*%
%TF.CreationDate,2022-02-28T03:59:25Z*%
G75*
%MOIN*%
%FSLAX36Y36*%
%LPD*%
%INBottom Copper Layer*%
%AMOC8*
5,1,8,0,0,1.08239X$1,22.5*%
G01*
%ADD10P,0.068191X8X292.500000*%
%ADD11C,0.063000*%
%ADD12P,0.056284X8X22.500000*%
%ADD13C,0.060000*%
%ADD14C,0.170000*%
%ADD15P,0.056284X8X202.500000*%
%ADD16P,0.056284X8X292.500000*%
%ADD17C,0.074000*%
%ADD18C,0.064000*%
%ADD19C,0.065000*%
%ADD20R,0.062992X0.070866*%
%ADD21C,0.040000*%
%ADD22C,0.016000*%
%ADD23C,0.024000*%

G36*
X1723723Y40008D02*
X1723723Y40008D01*
X1723792Y40002D01*
X1724510Y40086D01*
X1725231Y40158D01*
X1725297Y40178D01*
X1725366Y40186D01*
X1726053Y40410D01*
X1726747Y40623D01*
X1726808Y40656D01*
X1726874Y40677D01*
X1727502Y41032D01*
X1728141Y41378D01*
X1728194Y41422D01*
X1728254Y41456D01*
X1728803Y41929D01*
X1729359Y42393D01*
X1729402Y42446D01*
X1729455Y42492D01*
X1729900Y43065D01*
X1730352Y43628D01*
X1730384Y43689D01*
X1730427Y43744D01*
X1730750Y44394D01*
X1731083Y45035D01*
X1731102Y45101D01*
X1731133Y45164D01*
X1731322Y45865D01*
X1731522Y46558D01*
X1731527Y46627D01*
X1731546Y46694D01*
X1731653Y48000D01*
X1731653Y2314205D01*
X1731646Y2314274D01*
X1731652Y2314343D01*
X1731568Y2315061D01*
X1731496Y2315782D01*
X1731475Y2315849D01*
X1731467Y2315918D01*
X1731243Y2316604D01*
X1731031Y2317298D01*
X1730997Y2317359D01*
X1730976Y2317425D01*
X1730622Y2318053D01*
X1730276Y2318692D01*
X1730231Y2318745D01*
X1730197Y2318806D01*
X1729724Y2319354D01*
X1729261Y2319910D01*
X1729207Y2319953D01*
X1729161Y2320006D01*
X1728588Y2320451D01*
X1728026Y2320903D01*
X1727964Y2320935D01*
X1727909Y2320978D01*
X1727259Y2321301D01*
X1726619Y2321634D01*
X1726552Y2321653D01*
X1726490Y2321684D01*
X1725789Y2321873D01*
X1725095Y2322073D01*
X1725026Y2322079D01*
X1724959Y2322097D01*
X1723654Y2322204D01*
X48000Y2322204D01*
X47931Y2322197D01*
X47862Y2322203D01*
X47143Y2322119D01*
X46422Y2322047D01*
X46356Y2322027D01*
X46287Y2322018D01*
X45601Y2321795D01*
X44907Y2321582D01*
X44845Y2321549D01*
X44780Y2321527D01*
X44152Y2321173D01*
X43513Y2320827D01*
X43459Y2320782D01*
X43399Y2320748D01*
X42851Y2320275D01*
X42295Y2319812D01*
X42251Y2319758D01*
X42199Y2319713D01*
X41754Y2319139D01*
X41301Y2318577D01*
X41269Y2318515D01*
X41227Y2318460D01*
X40903Y2317811D01*
X40570Y2317170D01*
X40551Y2317104D01*
X40520Y2317041D01*
X40331Y2316340D01*
X40132Y2315647D01*
X40126Y2315577D01*
X40108Y2315510D01*
X40001Y2314205D01*
X40001Y48000D01*
X40008Y47931D01*
X40002Y47862D01*
X40086Y47143D01*
X40158Y46422D01*
X40178Y46356D01*
X40186Y46287D01*
X40410Y45601D01*
X40623Y44907D01*
X40656Y44845D01*
X40677Y44780D01*
X41032Y44152D01*
X41378Y43513D01*
X41422Y43459D01*
X41456Y43399D01*
X41929Y42851D01*
X42393Y42295D01*
X42446Y42251D01*
X42492Y42199D01*
X43065Y41754D01*
X43628Y41301D01*
X43689Y41269D01*
X43744Y41227D01*
X44394Y40903D01*
X45035Y40570D01*
X45101Y40551D01*
X45164Y40520D01*
X45865Y40331D01*
X46558Y40132D01*
X46627Y40126D01*
X46694Y40108D01*
X48000Y40001D01*
X1723654Y40001D01*
X1723723Y40008D01*
G37*
%LPC*%
G36*
X354571Y440377D02*
X354571Y440377D01*
X341340Y445858D01*
X331212Y455985D01*
X325732Y469217D01*
X325732Y483539D01*
X331212Y496771D01*
X341340Y506898D01*
X354571Y512379D01*
X387649Y512379D01*
X387753Y512389D01*
X387856Y512381D01*
X388540Y512467D01*
X389227Y512536D01*
X389326Y512566D01*
X389429Y512579D01*
X390081Y512798D01*
X390742Y513001D01*
X390834Y513050D01*
X390932Y513083D01*
X391529Y513427D01*
X392136Y513756D01*
X392216Y513822D01*
X392306Y513874D01*
X393305Y514721D01*
X426217Y547633D01*
X435773Y551591D01*
X594456Y551591D01*
X594560Y551602D01*
X594664Y551594D01*
X595347Y551680D01*
X596034Y551748D01*
X596133Y551779D01*
X596237Y551792D01*
X596889Y552011D01*
X597549Y552213D01*
X597641Y552263D01*
X597740Y552296D01*
X598336Y552639D01*
X598944Y552968D01*
X599023Y553035D01*
X599114Y553087D01*
X600113Y553934D01*
X603561Y557382D01*
X605864Y558336D01*
X605941Y558377D01*
X606023Y558404D01*
X606637Y558750D01*
X607262Y559085D01*
X607329Y559140D01*
X607404Y559183D01*
X607938Y559644D01*
X608484Y560095D01*
X608539Y560162D01*
X608604Y560219D01*
X609038Y560777D01*
X609483Y561326D01*
X609523Y561402D01*
X609576Y561471D01*
X609892Y562105D01*
X610220Y562729D01*
X610244Y562812D01*
X610283Y562890D01*
X610467Y563574D01*
X610665Y564251D01*
X610673Y564337D01*
X610695Y564421D01*
X610802Y565727D01*
X610802Y644172D01*
X610792Y644275D01*
X610800Y644379D01*
X610714Y645062D01*
X610645Y645749D01*
X610615Y645849D01*
X610602Y645952D01*
X610383Y646604D01*
X610180Y647265D01*
X610131Y647357D01*
X610098Y647455D01*
X609754Y648051D01*
X609425Y648659D01*
X609359Y648739D01*
X609307Y648829D01*
X608460Y649828D01*
X590440Y667847D01*
X590440Y694357D01*
X609186Y713103D01*
X635696Y713103D01*
X654442Y694357D01*
X654442Y667847D01*
X641147Y654552D01*
X641081Y654472D01*
X641002Y654404D01*
X640579Y653859D01*
X640142Y653326D01*
X640094Y653234D01*
X640030Y653152D01*
X639723Y652535D01*
X639399Y651925D01*
X639370Y651826D01*
X639323Y651732D01*
X639144Y651068D01*
X638947Y650406D01*
X638938Y650302D01*
X638911Y650202D01*
X638804Y648896D01*
X638804Y565727D01*
X638812Y565640D01*
X638806Y565554D01*
X638891Y564852D01*
X638961Y564149D01*
X638986Y564066D01*
X638997Y563980D01*
X639218Y563310D01*
X639426Y562633D01*
X639467Y562557D01*
X639494Y562475D01*
X639845Y561860D01*
X640181Y561239D01*
X640236Y561173D01*
X640279Y561097D01*
X640743Y560565D01*
X641196Y560022D01*
X641264Y559967D01*
X641320Y559902D01*
X641881Y559471D01*
X642431Y559028D01*
X642508Y558988D01*
X642577Y558935D01*
X643742Y558336D01*
X646045Y557382D01*
X649493Y553934D01*
X649574Y553868D01*
X649642Y553789D01*
X650187Y553366D01*
X650720Y552930D01*
X650812Y552881D01*
X650894Y552817D01*
X651511Y552510D01*
X652121Y552187D01*
X652220Y552157D01*
X652313Y552111D01*
X652978Y551932D01*
X653640Y551735D01*
X653744Y551725D01*
X653844Y551698D01*
X655150Y551591D01*
X883323Y551591D01*
X883392Y551598D01*
X883461Y551592D01*
X884179Y551676D01*
X884900Y551748D01*
X884967Y551769D01*
X885036Y551777D01*
X885722Y552000D01*
X886416Y552213D01*
X886477Y552247D01*
X886543Y552268D01*
X887171Y552622D01*
X887810Y552968D01*
X887863Y553013D01*
X887924Y553047D01*
X888472Y553520D01*
X889028Y553983D01*
X889071Y554037D01*
X889124Y554083D01*
X889569Y554656D01*
X890022Y555218D01*
X890054Y555280D01*
X890096Y555335D01*
X890420Y555985D01*
X890752Y556625D01*
X890771Y556692D01*
X890802Y556754D01*
X890991Y557455D01*
X891191Y558149D01*
X891197Y558218D01*
X891215Y558285D01*
X891322Y559590D01*
X891322Y1631354D01*
X891315Y1631423D01*
X891321Y1631492D01*
X891237Y1632211D01*
X891165Y1632932D01*
X891145Y1632998D01*
X891137Y1633067D01*
X890914Y1633749D01*
X890700Y1634447D01*
X890667Y1634509D01*
X890645Y1634574D01*
X890291Y1635203D01*
X889945Y1635842D01*
X889901Y1635895D01*
X889867Y1635955D01*
X889393Y1636503D01*
X888930Y1637059D01*
X888876Y1637103D01*
X888831Y1637155D01*
X888257Y1637601D01*
X887695Y1638053D01*
X887633Y1638085D01*
X887578Y1638128D01*
X886929Y1638451D01*
X886288Y1638784D01*
X886222Y1638803D01*
X886159Y1638834D01*
X885458Y1639023D01*
X884765Y1639223D01*
X884695Y1639228D01*
X884628Y1639246D01*
X883323Y1639354D01*
X794046Y1639354D01*
X793942Y1639343D01*
X793839Y1639351D01*
X793155Y1639265D01*
X792468Y1639196D01*
X792369Y1639166D01*
X792266Y1639153D01*
X791614Y1638934D01*
X790953Y1638731D01*
X790861Y1638682D01*
X790763Y1638649D01*
X790166Y1638305D01*
X789559Y1637977D01*
X789479Y1637910D01*
X789389Y1637858D01*
X788390Y1637011D01*
X782549Y1631170D01*
X768582Y1625385D01*
X753465Y1625385D01*
X739498Y1631170D01*
X728808Y1641860D01*
X723023Y1655827D01*
X723023Y1670945D01*
X728808Y1684911D01*
X739498Y1695601D01*
X753465Y1701386D01*
X768582Y1701386D01*
X782549Y1695601D01*
X784453Y1693698D01*
X784533Y1693632D01*
X784601Y1693553D01*
X785146Y1693130D01*
X785679Y1692694D01*
X785771Y1692645D01*
X785853Y1692581D01*
X786470Y1692274D01*
X787080Y1691951D01*
X787179Y1691921D01*
X787273Y1691875D01*
X787937Y1691695D01*
X788599Y1691499D01*
X788703Y1691489D01*
X788803Y1691462D01*
X790109Y1691355D01*
X883323Y1691355D01*
X883392Y1691362D01*
X883461Y1691356D01*
X884179Y1691440D01*
X884900Y1691512D01*
X884967Y1691532D01*
X885036Y1691540D01*
X885722Y1691764D01*
X886416Y1691977D01*
X886477Y1692010D01*
X886543Y1692032D01*
X887171Y1692386D01*
X887810Y1692732D01*
X887863Y1692776D01*
X887924Y1692811D01*
X888472Y1693284D01*
X889028Y1693747D01*
X889071Y1693801D01*
X889124Y1693846D01*
X889569Y1694420D01*
X890022Y1694982D01*
X890054Y1695044D01*
X890096Y1695099D01*
X890420Y1695748D01*
X890752Y1696389D01*
X890771Y1696455D01*
X890802Y1696518D01*
X890991Y1697219D01*
X891191Y1697912D01*
X891197Y1697982D01*
X891215Y1698049D01*
X891322Y1699354D01*
X891322Y1729780D01*
X891315Y1729849D01*
X891321Y1729918D01*
X891237Y1730636D01*
X891165Y1731357D01*
X891145Y1731423D01*
X891137Y1731492D01*
X890913Y1732179D01*
X890700Y1732873D01*
X890667Y1732934D01*
X890645Y1733000D01*
X890291Y1733628D01*
X889945Y1734267D01*
X889901Y1734320D01*
X889867Y1734380D01*
X889393Y1734929D01*
X888930Y1735484D01*
X888876Y1735528D01*
X888831Y1735581D01*
X888257Y1736026D01*
X887695Y1736478D01*
X887633Y1736510D01*
X887578Y1736553D01*
X886929Y1736876D01*
X886288Y1737209D01*
X886222Y1737228D01*
X886159Y1737259D01*
X885458Y1737448D01*
X884765Y1737648D01*
X884695Y1737653D01*
X884628Y1737672D01*
X883323Y1737779D01*
X792471Y1737779D01*
X792367Y1737768D01*
X792264Y1737776D01*
X791580Y1737690D01*
X790894Y1737622D01*
X790794Y1737591D01*
X790691Y1737578D01*
X790039Y1737359D01*
X789378Y1737157D01*
X789286Y1737107D01*
X789188Y1737074D01*
X788591Y1736731D01*
X787984Y1736402D01*
X787904Y1736335D01*
X787814Y1736283D01*
X786815Y1735436D01*
X782549Y1731170D01*
X768582Y1725385D01*
X753465Y1725385D01*
X739498Y1731170D01*
X728808Y1741860D01*
X723023Y1755827D01*
X723023Y1770945D01*
X728808Y1784911D01*
X739498Y1795601D01*
X753465Y1801386D01*
X768582Y1801386D01*
X782549Y1795601D01*
X786027Y1792123D01*
X786108Y1792057D01*
X786176Y1791978D01*
X786721Y1791555D01*
X787254Y1791119D01*
X787346Y1791070D01*
X787428Y1791006D01*
X788045Y1790699D01*
X788654Y1790376D01*
X788754Y1790346D01*
X788847Y1790300D01*
X789512Y1790121D01*
X790174Y1789924D01*
X790278Y1789914D01*
X790378Y1789887D01*
X791684Y1789780D01*
X922495Y1789780D01*
X932051Y1785822D01*
X939365Y1778508D01*
X943323Y1768951D01*
X943323Y1597386D01*
X943330Y1597316D01*
X943325Y1597248D01*
X943409Y1596529D01*
X943481Y1595808D01*
X943501Y1595742D01*
X943509Y1595673D01*
X943734Y1594984D01*
X943946Y1594293D01*
X943979Y1594231D01*
X944000Y1594166D01*
X944354Y1593538D01*
X944701Y1592898D01*
X944745Y1592845D01*
X944779Y1592785D01*
X945252Y1592237D01*
X945715Y1591681D01*
X945769Y1591637D01*
X945815Y1591585D01*
X946388Y1591139D01*
X946951Y1590687D01*
X947012Y1590655D01*
X947067Y1590612D01*
X947717Y1590289D01*
X948358Y1589956D01*
X948424Y1589937D01*
X948486Y1589906D01*
X949187Y1589717D01*
X949881Y1589517D01*
X949950Y1589512D01*
X950017Y1589494D01*
X951323Y1589386D01*
X1029970Y1589386D01*
X1030074Y1589397D01*
X1030177Y1589389D01*
X1030861Y1589475D01*
X1031547Y1589544D01*
X1031647Y1589574D01*
X1031750Y1589587D01*
X1032404Y1589806D01*
X1033063Y1590009D01*
X1033155Y1590058D01*
X1033253Y1590091D01*
X1033850Y1590435D01*
X1034457Y1590764D01*
X1034537Y1590830D01*
X1034627Y1590882D01*
X1035626Y1591729D01*
X1039498Y1595601D01*
X1053465Y1601386D01*
X1068582Y1601386D01*
X1082549Y1595601D01*
X1094248Y1583902D01*
X1094404Y1583713D01*
X1094476Y1583655D01*
X1094536Y1583585D01*
X1095090Y1583155D01*
X1095633Y1582712D01*
X1095715Y1582669D01*
X1095788Y1582612D01*
X1096417Y1582300D01*
X1097036Y1581974D01*
X1097124Y1581948D01*
X1097208Y1581906D01*
X1097885Y1581724D01*
X1098557Y1581526D01*
X1098649Y1581518D01*
X1098738Y1581494D01*
X1100044Y1581386D01*
X1561761Y1581386D01*
X1561847Y1581395D01*
X1561934Y1581388D01*
X1562637Y1581474D01*
X1563338Y1581544D01*
X1563421Y1581569D01*
X1563508Y1581579D01*
X1564179Y1581801D01*
X1564854Y1582009D01*
X1564931Y1582050D01*
X1565013Y1582077D01*
X1565627Y1582427D01*
X1566248Y1582764D01*
X1566315Y1582819D01*
X1566390Y1582862D01*
X1566922Y1583325D01*
X1567466Y1583778D01*
X1567520Y1583846D01*
X1567586Y1583903D01*
X1568017Y1584463D01*
X1568460Y1585014D01*
X1568500Y1585091D01*
X1568553Y1585160D01*
X1569151Y1586325D01*
X1569401Y1586928D01*
X1579529Y1597055D01*
X1592760Y1602536D01*
X1667082Y1602536D01*
X1680314Y1597055D01*
X1690441Y1586928D01*
X1695922Y1573696D01*
X1695922Y1559374D01*
X1690441Y1546143D01*
X1680314Y1536015D01*
X1667082Y1530535D01*
X1592760Y1530535D01*
X1579529Y1536015D01*
X1572502Y1543042D01*
X1572421Y1543108D01*
X1572353Y1543187D01*
X1571808Y1543610D01*
X1571275Y1544047D01*
X1571183Y1544095D01*
X1571101Y1544159D01*
X1570484Y1544466D01*
X1569875Y1544789D01*
X1569775Y1544819D01*
X1569682Y1544865D01*
X1569017Y1545045D01*
X1568355Y1545241D01*
X1568251Y1545251D01*
X1568151Y1545278D01*
X1566845Y1545385D01*
X1100044Y1545385D01*
X1099952Y1545376D01*
X1099860Y1545383D01*
X1099162Y1545297D01*
X1098466Y1545228D01*
X1098378Y1545201D01*
X1098286Y1545190D01*
X1097621Y1544969D01*
X1096951Y1544763D01*
X1096869Y1544719D01*
X1096782Y1544690D01*
X1096173Y1544342D01*
X1095557Y1544008D01*
X1095486Y1543949D01*
X1095405Y1543903D01*
X1094877Y1543442D01*
X1094339Y1542993D01*
X1094281Y1542921D01*
X1094211Y1542860D01*
X1094120Y1542741D01*
X1082549Y1531170D01*
X1068582Y1525385D01*
X1053465Y1525385D01*
X1039498Y1531170D01*
X1035626Y1535042D01*
X1035546Y1535108D01*
X1035478Y1535187D01*
X1034933Y1535610D01*
X1034400Y1536047D01*
X1034308Y1536095D01*
X1034226Y1536159D01*
X1033607Y1536467D01*
X1032999Y1536789D01*
X1032900Y1536819D01*
X1032806Y1536865D01*
X1032138Y1537045D01*
X1031480Y1537241D01*
X1031376Y1537251D01*
X1031275Y1537278D01*
X1029970Y1537385D01*
X951323Y1537385D01*
X951253Y1537378D01*
X951185Y1537384D01*
X950466Y1537300D01*
X949745Y1537228D01*
X949679Y1537208D01*
X949610Y1537200D01*
X948923Y1536976D01*
X948230Y1536763D01*
X948168Y1536730D01*
X948103Y1536708D01*
X947475Y1536354D01*
X946836Y1536008D01*
X946782Y1535964D01*
X946722Y1535930D01*
X946174Y1535456D01*
X945618Y1534993D01*
X945574Y1534939D01*
X945522Y1534894D01*
X945076Y1534320D01*
X944624Y1533758D01*
X944592Y1533696D01*
X944549Y1533641D01*
X944226Y1532992D01*
X943893Y1532351D01*
X943874Y1532285D01*
X943843Y1532222D01*
X943654Y1531521D01*
X943454Y1530828D01*
X943449Y1530758D01*
X943431Y1530691D01*
X943323Y1529386D01*
X943323Y559590D01*
X943330Y559521D01*
X943325Y559452D01*
X943409Y558734D01*
X943481Y558013D01*
X943501Y557947D01*
X943509Y557878D01*
X943733Y557191D01*
X943946Y556497D01*
X943979Y556436D01*
X944000Y556370D01*
X944354Y555742D01*
X944701Y555103D01*
X944745Y555050D01*
X944779Y554990D01*
X945252Y554441D01*
X945715Y553885D01*
X945769Y553842D01*
X945815Y553789D01*
X946388Y553344D01*
X946951Y552892D01*
X947012Y552860D01*
X947067Y552817D01*
X947717Y552494D01*
X948358Y552161D01*
X948424Y552142D01*
X948486Y552111D01*
X949187Y551922D01*
X949881Y551722D01*
X949950Y551717D01*
X950017Y551698D01*
X951323Y551591D01*
X1102058Y551591D01*
X1102162Y551602D01*
X1102266Y551594D01*
X1102949Y551680D01*
X1103636Y551748D01*
X1103736Y551779D01*
X1103839Y551792D01*
X1104491Y552011D01*
X1105152Y552213D01*
X1105243Y552263D01*
X1105342Y552296D01*
X1105938Y552639D01*
X1106546Y552968D01*
X1106626Y553035D01*
X1106716Y553087D01*
X1107715Y553934D01*
X1130941Y577160D01*
X1140497Y581119D01*
X1189243Y581119D01*
X1189346Y581129D01*
X1189450Y581121D01*
X1190133Y581207D01*
X1190820Y581276D01*
X1190920Y581306D01*
X1191023Y581319D01*
X1191676Y581538D01*
X1192336Y581741D01*
X1192427Y581790D01*
X1192526Y581824D01*
X1193124Y582168D01*
X1193730Y582496D01*
X1193810Y582562D01*
X1193900Y582614D01*
X1194899Y583462D01*
X1198556Y587119D01*
X1225066Y587119D01*
X1236723Y575462D01*
X1236804Y575396D01*
X1236872Y575317D01*
X1237417Y574894D01*
X1237950Y574457D01*
X1238041Y574409D01*
X1238124Y574345D01*
X1238741Y574038D01*
X1239350Y573714D01*
X1239450Y573685D01*
X1239543Y573638D01*
X1240208Y573459D01*
X1240870Y573262D01*
X1240974Y573253D01*
X1241074Y573226D01*
X1242379Y573119D01*
X1426756Y573119D01*
X1426825Y573126D01*
X1426894Y573120D01*
X1427612Y573204D01*
X1428333Y573276D01*
X1428400Y573296D01*
X1428469Y573304D01*
X1429155Y573528D01*
X1429849Y573741D01*
X1429910Y573774D01*
X1429976Y573796D01*
X1430604Y574150D01*
X1431243Y574496D01*
X1431297Y574540D01*
X1431357Y574574D01*
X1431905Y575047D01*
X1432461Y575511D01*
X1432504Y575565D01*
X1432557Y575610D01*
X1432999Y576180D01*
X1433455Y576746D01*
X1433487Y576807D01*
X1433529Y576862D01*
X1433853Y577512D01*
X1434185Y578153D01*
X1434204Y578219D01*
X1434235Y578282D01*
X1434424Y578983D01*
X1434624Y579676D01*
X1434630Y579745D01*
X1434648Y579812D01*
X1434755Y581118D01*
X1434755Y623717D01*
X1434748Y623786D01*
X1434754Y623855D01*
X1434670Y624573D01*
X1434598Y625294D01*
X1434578Y625360D01*
X1434570Y625429D01*
X1434346Y626116D01*
X1434133Y626810D01*
X1434100Y626871D01*
X1434078Y626937D01*
X1433724Y627565D01*
X1433378Y628204D01*
X1433334Y628257D01*
X1433300Y628317D01*
X1432827Y628866D01*
X1432363Y629422D01*
X1432309Y629465D01*
X1432264Y629518D01*
X1431690Y629963D01*
X1431128Y630415D01*
X1431066Y630447D01*
X1431012Y630490D01*
X1430362Y630813D01*
X1429721Y631146D01*
X1429655Y631165D01*
X1429592Y631196D01*
X1428891Y631385D01*
X1428198Y631585D01*
X1428129Y631590D01*
X1428062Y631609D01*
X1426756Y631716D01*
X1415595Y631716D01*
X1402363Y637196D01*
X1392236Y647324D01*
X1386755Y660555D01*
X1386755Y674877D01*
X1392236Y688109D01*
X1402363Y698236D01*
X1415595Y703717D01*
X1489917Y703717D01*
X1503148Y698236D01*
X1513289Y688096D01*
X1513614Y687519D01*
X1513948Y686896D01*
X1514004Y686829D01*
X1514046Y686753D01*
X1514508Y686219D01*
X1514958Y685674D01*
X1515025Y685619D01*
X1515082Y685553D01*
X1515639Y685121D01*
X1516189Y684675D01*
X1516266Y684634D01*
X1516334Y684581D01*
X1516967Y684266D01*
X1517592Y683938D01*
X1517675Y683914D01*
X1517754Y683875D01*
X1518439Y683690D01*
X1519114Y683492D01*
X1519200Y683485D01*
X1519284Y683462D01*
X1520590Y683355D01*
X1603921Y683355D01*
X1603991Y683362D01*
X1604059Y683356D01*
X1604778Y683440D01*
X1605499Y683512D01*
X1605565Y683532D01*
X1605634Y683540D01*
X1606321Y683764D01*
X1607014Y683977D01*
X1607076Y684010D01*
X1607141Y684032D01*
X1607769Y684386D01*
X1608408Y684732D01*
X1608462Y684776D01*
X1608522Y684811D01*
X1609070Y685284D01*
X1609626Y685747D01*
X1609670Y685801D01*
X1609722Y685846D01*
X1610168Y686420D01*
X1610620Y686982D01*
X1610652Y687044D01*
X1610695Y687099D01*
X1611018Y687748D01*
X1611351Y688389D01*
X1611370Y688455D01*
X1611401Y688518D01*
X1611590Y689219D01*
X1611789Y689912D01*
X1611795Y689982D01*
X1611813Y690049D01*
X1611921Y691354D01*
X1611921Y722535D01*
X1611914Y722605D01*
X1611919Y722674D01*
X1611835Y723392D01*
X1611763Y724113D01*
X1611743Y724179D01*
X1611735Y724248D01*
X1611511Y724935D01*
X1611298Y725629D01*
X1611265Y725690D01*
X1611244Y725756D01*
X1610890Y726384D01*
X1610543Y727023D01*
X1610499Y727076D01*
X1610465Y727136D01*
X1609992Y727684D01*
X1609529Y728240D01*
X1609475Y728284D01*
X1609429Y728336D01*
X1608856Y728782D01*
X1608293Y729234D01*
X1608232Y729266D01*
X1608177Y729309D01*
X1607529Y729631D01*
X1606886Y729965D01*
X1606820Y729984D01*
X1606758Y730015D01*
X1606057Y730204D01*
X1605363Y730404D01*
X1605294Y730409D01*
X1605227Y730427D01*
X1603921Y730535D01*
X1592760Y730535D01*
X1579529Y736015D01*
X1569401Y746143D01*
X1563921Y759374D01*
X1563921Y773696D01*
X1569401Y786928D01*
X1579529Y797055D01*
X1592760Y802536D01*
X1667082Y802536D01*
X1680314Y797055D01*
X1690441Y786928D01*
X1695922Y773696D01*
X1695922Y759374D01*
X1690441Y746143D01*
X1680314Y736015D01*
X1667082Y730535D01*
X1655921Y730535D01*
X1655852Y730528D01*
X1655783Y730533D01*
X1655065Y730449D01*
X1654344Y730378D01*
X1654277Y730357D01*
X1654208Y730349D01*
X1653522Y730125D01*
X1652828Y729913D01*
X1652767Y729879D01*
X1652701Y729858D01*
X1652073Y729504D01*
X1651434Y729158D01*
X1651381Y729113D01*
X1651320Y729079D01*
X1650772Y728606D01*
X1650216Y728143D01*
X1650173Y728089D01*
X1650120Y728043D01*
X1649675Y727470D01*
X1649222Y726907D01*
X1649190Y726846D01*
X1649148Y726791D01*
X1648824Y726141D01*
X1648492Y725501D01*
X1648473Y725434D01*
X1648442Y725372D01*
X1648253Y724671D01*
X1648053Y723977D01*
X1648047Y723908D01*
X1648029Y723841D01*
X1647922Y722535D01*
X1647922Y661774D01*
X1645181Y655158D01*
X1640118Y650094D01*
X1633502Y647354D01*
X1516619Y647354D01*
X1516515Y647343D01*
X1516412Y647351D01*
X1515728Y647265D01*
X1515041Y647196D01*
X1514942Y647166D01*
X1514839Y647153D01*
X1514186Y646934D01*
X1513526Y646731D01*
X1513434Y646682D01*
X1513336Y646649D01*
X1512737Y646304D01*
X1512132Y645977D01*
X1512052Y645910D01*
X1511962Y645858D01*
X1510963Y645011D01*
X1503149Y637197D01*
X1489917Y631716D01*
X1478756Y631716D01*
X1478687Y631709D01*
X1478618Y631715D01*
X1477899Y631631D01*
X1477178Y631559D01*
X1477112Y631538D01*
X1477043Y631530D01*
X1476356Y631306D01*
X1475663Y631094D01*
X1475601Y631060D01*
X1475536Y631039D01*
X1474908Y630685D01*
X1474269Y630339D01*
X1474215Y630294D01*
X1474155Y630260D01*
X1473607Y629787D01*
X1473051Y629324D01*
X1473007Y629270D01*
X1472955Y629224D01*
X1472509Y628651D01*
X1472057Y628089D01*
X1472025Y628027D01*
X1471983Y627972D01*
X1471658Y627321D01*
X1471326Y626682D01*
X1471307Y626615D01*
X1471276Y626553D01*
X1471086Y625847D01*
X1470888Y625158D01*
X1470882Y625089D01*
X1470864Y625022D01*
X1470757Y623717D01*
X1470757Y551538D01*
X1468016Y544922D01*
X1462952Y539858D01*
X1456336Y537117D01*
X1242379Y537117D01*
X1242276Y537107D01*
X1242172Y537115D01*
X1241489Y537029D01*
X1240802Y536960D01*
X1240702Y536930D01*
X1240599Y536917D01*
X1239947Y536698D01*
X1239286Y536495D01*
X1239195Y536445D01*
X1239096Y536413D01*
X1238500Y536069D01*
X1237892Y535740D01*
X1237812Y535674D01*
X1237722Y535622D01*
X1236723Y534774D01*
X1225066Y523117D01*
X1217591Y523117D01*
X1217521Y523110D01*
X1217452Y523116D01*
X1216734Y523032D01*
X1216666Y523025D01*
X1216293Y523056D01*
X1215960Y523107D01*
X1215752Y523100D01*
X1215546Y523117D01*
X1198556Y523117D01*
X1194899Y526774D01*
X1194819Y526840D01*
X1194750Y526919D01*
X1194205Y527342D01*
X1193672Y527779D01*
X1193580Y527828D01*
X1193498Y527891D01*
X1192880Y528199D01*
X1192272Y528522D01*
X1192173Y528551D01*
X1192079Y528598D01*
X1191411Y528778D01*
X1190752Y528974D01*
X1190649Y528983D01*
X1190548Y529010D01*
X1189243Y529117D01*
X1159752Y529117D01*
X1159649Y529107D01*
X1159545Y529115D01*
X1158862Y529029D01*
X1158175Y528960D01*
X1158075Y528930D01*
X1157972Y528917D01*
X1157320Y528698D01*
X1156659Y528495D01*
X1156568Y528445D01*
X1156469Y528413D01*
X1155873Y528069D01*
X1155265Y527740D01*
X1155185Y527674D01*
X1155095Y527622D01*
X1154096Y526774D01*
X1130870Y503548D01*
X1121314Y499590D01*
X655150Y499590D01*
X655046Y499579D01*
X654943Y499587D01*
X654259Y499501D01*
X653572Y499433D01*
X653473Y499402D01*
X653370Y499389D01*
X652718Y499170D01*
X652057Y498968D01*
X651965Y498918D01*
X651867Y498885D01*
X651270Y498542D01*
X650663Y498213D01*
X650583Y498146D01*
X650493Y498094D01*
X649493Y497247D01*
X646045Y493799D01*
X632262Y488090D01*
X617344Y488090D01*
X603561Y493799D01*
X600113Y497247D01*
X600032Y497313D01*
X599964Y497392D01*
X599419Y497815D01*
X598886Y498251D01*
X598794Y498300D01*
X598712Y498364D01*
X598095Y498671D01*
X597486Y498994D01*
X597386Y499024D01*
X597293Y499070D01*
X596628Y499249D01*
X595966Y499446D01*
X595862Y499456D01*
X595762Y499483D01*
X594456Y499590D01*
X463056Y499590D01*
X463005Y499585D01*
X462952Y499589D01*
X462211Y499506D01*
X461479Y499433D01*
X461429Y499418D01*
X461377Y499412D01*
X460670Y499185D01*
X459963Y498968D01*
X459917Y498943D01*
X459868Y498927D01*
X459221Y498566D01*
X458569Y498213D01*
X458529Y498179D01*
X458484Y498154D01*
X457921Y497673D01*
X457351Y497198D01*
X457319Y497157D01*
X457279Y497123D01*
X456820Y496538D01*
X456357Y495963D01*
X456334Y495917D01*
X456301Y495875D01*
X455966Y495208D01*
X455627Y494556D01*
X455612Y494506D01*
X455589Y494459D01*
X455392Y493740D01*
X455188Y493032D01*
X455184Y492981D01*
X455170Y492930D01*
X455119Y492189D01*
X455058Y491452D01*
X455064Y491401D01*
X455061Y491349D01*
X455157Y490610D01*
X455242Y489878D01*
X455258Y489828D01*
X455265Y489777D01*
X455666Y488529D01*
X457733Y483539D01*
X457733Y469217D01*
X452252Y455985D01*
X442125Y445858D01*
X428893Y440377D01*
X354571Y440377D01*
G37*
%LPD*%
%LPC*%
G36*
X1035982Y764503D02*
X1035982Y764503D01*
X1020178Y771050D01*
X1008081Y783146D01*
X1001535Y798950D01*
X1001535Y816057D01*
X1008081Y831862D01*
X1020178Y843958D01*
X1035982Y850505D01*
X1053089Y850505D01*
X1068893Y843958D01*
X1080990Y831862D01*
X1083234Y826443D01*
X1083275Y826366D01*
X1083302Y826284D01*
X1083648Y825671D01*
X1083983Y825045D01*
X1084039Y824978D01*
X1084081Y824903D01*
X1084541Y824370D01*
X1084993Y823823D01*
X1085060Y823768D01*
X1085117Y823703D01*
X1085675Y823269D01*
X1086224Y822824D01*
X1086300Y822784D01*
X1086369Y822731D01*
X1087003Y822415D01*
X1087627Y822087D01*
X1087710Y822063D01*
X1087788Y822024D01*
X1088472Y821840D01*
X1089149Y821642D01*
X1089235Y821634D01*
X1089319Y821612D01*
X1090625Y821505D01*
X1140911Y821505D01*
X1141014Y821515D01*
X1141118Y821507D01*
X1141801Y821593D01*
X1142488Y821662D01*
X1142588Y821692D01*
X1142691Y821705D01*
X1143343Y821924D01*
X1144004Y822127D01*
X1144096Y822176D01*
X1144194Y822209D01*
X1144790Y822553D01*
X1145398Y822882D01*
X1145478Y822948D01*
X1145568Y823000D01*
X1146567Y823847D01*
X1177467Y854748D01*
X1177533Y854828D01*
X1177612Y854896D01*
X1178035Y855441D01*
X1178472Y855974D01*
X1178520Y856066D01*
X1178584Y856148D01*
X1178891Y856766D01*
X1179215Y857375D01*
X1179244Y857475D01*
X1179291Y857568D01*
X1179470Y858232D01*
X1179667Y858894D01*
X1179676Y858998D01*
X1179703Y859098D01*
X1179810Y860404D01*
X1179810Y868373D01*
X1198556Y887119D01*
X1207706Y887119D01*
X1207810Y887129D01*
X1207913Y887121D01*
X1208597Y887207D01*
X1209284Y887276D01*
X1209383Y887306D01*
X1209486Y887319D01*
X1210138Y887538D01*
X1210799Y887741D01*
X1210891Y887791D01*
X1210989Y887824D01*
X1211586Y888167D01*
X1212193Y888496D01*
X1212273Y888563D01*
X1212363Y888614D01*
X1213362Y889462D01*
X1247249Y923348D01*
X1247293Y923402D01*
X1247346Y923447D01*
X1247792Y924011D01*
X1248253Y924575D01*
X1248286Y924636D01*
X1248329Y924690D01*
X1248655Y925333D01*
X1248996Y925975D01*
X1249016Y926042D01*
X1249047Y926103D01*
X1249241Y926797D01*
X1249448Y927495D01*
X1249454Y927564D01*
X1249473Y927631D01*
X1249526Y928349D01*
X1249592Y929073D01*
X1249584Y929143D01*
X1249589Y929212D01*
X1249499Y929926D01*
X1249421Y930649D01*
X1249400Y930716D01*
X1249391Y930785D01*
X1249161Y931470D01*
X1248943Y932161D01*
X1248909Y932222D01*
X1248887Y932288D01*
X1248526Y932915D01*
X1248176Y933548D01*
X1248131Y933601D01*
X1248096Y933662D01*
X1247249Y934661D01*
X1234867Y947042D01*
X1234787Y947108D01*
X1234719Y947187D01*
X1234174Y947610D01*
X1233641Y948047D01*
X1233549Y948095D01*
X1233467Y948159D01*
X1232850Y948466D01*
X1232240Y948789D01*
X1232141Y948819D01*
X1232047Y948865D01*
X1231383Y949045D01*
X1230721Y949241D01*
X1230617Y949251D01*
X1230517Y949278D01*
X1229211Y949385D01*
X1101701Y949385D01*
X1101615Y949376D01*
X1101528Y949383D01*
X1100827Y949298D01*
X1100123Y949228D01*
X1100040Y949203D01*
X1099954Y949192D01*
X1099286Y948971D01*
X1098608Y948763D01*
X1098531Y948721D01*
X1098449Y948694D01*
X1097837Y948346D01*
X1097214Y948008D01*
X1097147Y947952D01*
X1097072Y947910D01*
X1096540Y947447D01*
X1095996Y946993D01*
X1095941Y946925D01*
X1095876Y946869D01*
X1095445Y946309D01*
X1095002Y945758D01*
X1094962Y945681D01*
X1094909Y945612D01*
X1094311Y944447D01*
X1093239Y941860D01*
X1082549Y931170D01*
X1068582Y925385D01*
X1053465Y925385D01*
X1039498Y931170D01*
X1028808Y941860D01*
X1023023Y955827D01*
X1023023Y970945D01*
X1028808Y984911D01*
X1039498Y995601D01*
X1053465Y1001386D01*
X1068582Y1001386D01*
X1082549Y995601D01*
X1093239Y984911D01*
X1094311Y982324D01*
X1094352Y982248D01*
X1094378Y982166D01*
X1094725Y981552D01*
X1095059Y980927D01*
X1095115Y980860D01*
X1095157Y980785D01*
X1095620Y980248D01*
X1096069Y979705D01*
X1096136Y979651D01*
X1096193Y979585D01*
X1096751Y979151D01*
X1097300Y978706D01*
X1097377Y978665D01*
X1097445Y978612D01*
X1098076Y978298D01*
X1098704Y977969D01*
X1098787Y977945D01*
X1098865Y977906D01*
X1099548Y977722D01*
X1100225Y977524D01*
X1100312Y977516D01*
X1100395Y977494D01*
X1101701Y977386D01*
X1229211Y977386D01*
X1229315Y977397D01*
X1229418Y977389D01*
X1230102Y977475D01*
X1230789Y977544D01*
X1230888Y977574D01*
X1230991Y977587D01*
X1231643Y977806D01*
X1232304Y978009D01*
X1232396Y978058D01*
X1232494Y978091D01*
X1233091Y978435D01*
X1233698Y978764D01*
X1233778Y978830D01*
X1233868Y978882D01*
X1234867Y979729D01*
X1250524Y995386D01*
X1277034Y995386D01*
X1295780Y976641D01*
X1295780Y950131D01*
X1280123Y934474D01*
X1280057Y934393D01*
X1279978Y934325D01*
X1279555Y933780D01*
X1279119Y933247D01*
X1279070Y933155D01*
X1279006Y933073D01*
X1278699Y932456D01*
X1278376Y931847D01*
X1278346Y931747D01*
X1278300Y931654D01*
X1278121Y930989D01*
X1277924Y930327D01*
X1277914Y930223D01*
X1277887Y930123D01*
X1277780Y928817D01*
X1277780Y914279D01*
X1246275Y882774D01*
X1246253Y882747D01*
X1246226Y882725D01*
X1245753Y882136D01*
X1245271Y881548D01*
X1245254Y881517D01*
X1245233Y881490D01*
X1244885Y880821D01*
X1244528Y880147D01*
X1244518Y880114D01*
X1244502Y880083D01*
X1244294Y879362D01*
X1244076Y878628D01*
X1244073Y878593D01*
X1244063Y878560D01*
X1244002Y877813D01*
X1243932Y877049D01*
X1243936Y877014D01*
X1243933Y876980D01*
X1244021Y876232D01*
X1244103Y875473D01*
X1244114Y875440D01*
X1244118Y875405D01*
X1244353Y874684D01*
X1244581Y873961D01*
X1244598Y873931D01*
X1244609Y873898D01*
X1244981Y873238D01*
X1245348Y872574D01*
X1245371Y872547D01*
X1245388Y872517D01*
X1245888Y871938D01*
X1246374Y871365D01*
X1246400Y871344D01*
X1246423Y871317D01*
X1247029Y870847D01*
X1247617Y870382D01*
X1247648Y870366D01*
X1247676Y870345D01*
X1248360Y870004D01*
X1249031Y869663D01*
X1249063Y869654D01*
X1249095Y869638D01*
X1249831Y869440D01*
X1250558Y869238D01*
X1250592Y869235D01*
X1250626Y869226D01*
X1251931Y869119D01*
X1379025Y869119D01*
X1379111Y869127D01*
X1379198Y869121D01*
X1379900Y869206D01*
X1380602Y869276D01*
X1380686Y869301D01*
X1380772Y869312D01*
X1381442Y869533D01*
X1382118Y869741D01*
X1382194Y869782D01*
X1382277Y869809D01*
X1382891Y870160D01*
X1383512Y870496D01*
X1383579Y870551D01*
X1383654Y870594D01*
X1384187Y871058D01*
X1384730Y871511D01*
X1384784Y871578D01*
X1384850Y871635D01*
X1385281Y872196D01*
X1385724Y872746D01*
X1385764Y872823D01*
X1385817Y872892D01*
X1386415Y874057D01*
X1392236Y888109D01*
X1402363Y898236D01*
X1415595Y903717D01*
X1489917Y903717D01*
X1503148Y898236D01*
X1513276Y888109D01*
X1518757Y874877D01*
X1518757Y860555D01*
X1513276Y847324D01*
X1503148Y837196D01*
X1489917Y831716D01*
X1415595Y831716D01*
X1402363Y837196D01*
X1400785Y838774D01*
X1400705Y838840D01*
X1400637Y838919D01*
X1400092Y839342D01*
X1399559Y839779D01*
X1399467Y839828D01*
X1399384Y839891D01*
X1398767Y840198D01*
X1398158Y840522D01*
X1398058Y840551D01*
X1397965Y840598D01*
X1397300Y840777D01*
X1396639Y840974D01*
X1396535Y840983D01*
X1396434Y841010D01*
X1395129Y841117D01*
X1246379Y841117D01*
X1246276Y841107D01*
X1246172Y841115D01*
X1245489Y841029D01*
X1244802Y840960D01*
X1244702Y840930D01*
X1244599Y840917D01*
X1243947Y840698D01*
X1243286Y840495D01*
X1243195Y840445D01*
X1243096Y840413D01*
X1242500Y840069D01*
X1241892Y839740D01*
X1241812Y839674D01*
X1241722Y839622D01*
X1240723Y838774D01*
X1225066Y823117D01*
X1198556Y823117D01*
X1197653Y824020D01*
X1197599Y824065D01*
X1197554Y824117D01*
X1196991Y824563D01*
X1196426Y825025D01*
X1196365Y825058D01*
X1196311Y825100D01*
X1195668Y825427D01*
X1195026Y825768D01*
X1194959Y825787D01*
X1194897Y825819D01*
X1194199Y826014D01*
X1193506Y826220D01*
X1193437Y826226D01*
X1193370Y826245D01*
X1192649Y826297D01*
X1191928Y826363D01*
X1191858Y826356D01*
X1191789Y826361D01*
X1191074Y826271D01*
X1190352Y826192D01*
X1190285Y826171D01*
X1190216Y826163D01*
X1189532Y825933D01*
X1188840Y825714D01*
X1188779Y825681D01*
X1188713Y825659D01*
X1188088Y825299D01*
X1187453Y824947D01*
X1187399Y824902D01*
X1187339Y824868D01*
X1186340Y824021D01*
X1155406Y793086D01*
X1142533Y793086D01*
X1142248Y793163D01*
X1141586Y793359D01*
X1141482Y793369D01*
X1141382Y793396D01*
X1140076Y793503D01*
X1090625Y793503D01*
X1090538Y793495D01*
X1090452Y793501D01*
X1089750Y793416D01*
X1089047Y793346D01*
X1088964Y793321D01*
X1088878Y793310D01*
X1088208Y793089D01*
X1087531Y792881D01*
X1087455Y792840D01*
X1087373Y792813D01*
X1086758Y792462D01*
X1086137Y792126D01*
X1086071Y792071D01*
X1085995Y792028D01*
X1085463Y791564D01*
X1084920Y791111D01*
X1084865Y791043D01*
X1084800Y790987D01*
X1084369Y790426D01*
X1083926Y789876D01*
X1083886Y789799D01*
X1083833Y789730D01*
X1083234Y788565D01*
X1080990Y783146D01*
X1068893Y771050D01*
X1053089Y764503D01*
X1035982Y764503D01*
G37*
%LPD*%
%LPC*%
G36*
X1089379Y136558D02*
X1089379Y136558D01*
X1055933Y150412D01*
X1030334Y176011D01*
X1021797Y196620D01*
X1021756Y196697D01*
X1021729Y196779D01*
X1021383Y197394D01*
X1021048Y198018D01*
X1020993Y198085D01*
X1020950Y198160D01*
X1020489Y198695D01*
X1020039Y199240D01*
X1019971Y199294D01*
X1019915Y199360D01*
X1019356Y199794D01*
X1018808Y200239D01*
X1018731Y200279D01*
X1018662Y200332D01*
X1018027Y200649D01*
X1017404Y200976D01*
X1017321Y201000D01*
X1017243Y201039D01*
X1016558Y201223D01*
X1015883Y201421D01*
X1015796Y201429D01*
X1015712Y201451D01*
X1014407Y201558D01*
X949578Y201558D01*
X949475Y201548D01*
X949371Y201556D01*
X948688Y201470D01*
X948001Y201401D01*
X947901Y201371D01*
X947798Y201358D01*
X947146Y201139D01*
X946485Y200936D01*
X946394Y200886D01*
X946295Y200853D01*
X945699Y200510D01*
X945091Y200181D01*
X945011Y200115D01*
X944921Y200063D01*
X943922Y199215D01*
X943430Y198724D01*
X875467Y198724D01*
X871952Y202239D01*
X871952Y278076D01*
X875467Y281591D01*
X943430Y281591D01*
X946945Y278076D01*
X946945Y261559D01*
X946952Y261490D01*
X946947Y261421D01*
X947031Y260703D01*
X947103Y259981D01*
X947123Y259915D01*
X947131Y259846D01*
X947355Y259160D01*
X947568Y258466D01*
X947601Y258404D01*
X947622Y258339D01*
X947977Y257711D01*
X948323Y257072D01*
X948367Y257018D01*
X948401Y256958D01*
X948874Y256410D01*
X949337Y255854D01*
X949391Y255811D01*
X949437Y255758D01*
X950010Y255313D01*
X950573Y254860D01*
X950634Y254828D01*
X950689Y254786D01*
X951339Y254462D01*
X951980Y254130D01*
X952046Y254110D01*
X952108Y254079D01*
X952809Y253891D01*
X953503Y253691D01*
X953572Y253685D01*
X953639Y253667D01*
X954945Y253560D01*
X1014407Y253560D01*
X1014493Y253568D01*
X1014579Y253562D01*
X1015281Y253647D01*
X1015984Y253717D01*
X1016067Y253742D01*
X1016153Y253753D01*
X1016823Y253974D01*
X1017500Y254182D01*
X1017576Y254223D01*
X1017658Y254250D01*
X1018273Y254601D01*
X1018894Y254937D01*
X1018961Y254992D01*
X1019036Y255035D01*
X1019569Y255499D01*
X1020112Y255952D01*
X1020166Y256019D01*
X1020232Y256076D01*
X1020663Y256637D01*
X1021105Y257187D01*
X1021145Y257264D01*
X1021198Y257333D01*
X1021797Y258498D01*
X1030334Y279107D01*
X1055933Y304706D01*
X1089379Y318560D01*
X1125581Y318560D01*
X1159028Y304706D01*
X1184627Y279107D01*
X1198481Y245660D01*
X1198481Y209458D01*
X1184627Y176011D01*
X1159028Y150412D01*
X1125581Y136558D01*
X1089379Y136558D01*
G37*
%LPD*%
%LPC*%
G36*
X765231Y198724D02*
X765231Y198724D01*
X761716Y202239D01*
X761716Y206157D01*
X761709Y206227D01*
X761715Y206296D01*
X761631Y207014D01*
X761559Y207735D01*
X761538Y207801D01*
X761530Y207870D01*
X761306Y208557D01*
X761094Y209251D01*
X761060Y209312D01*
X761039Y209378D01*
X760685Y210006D01*
X760339Y210645D01*
X760294Y210698D01*
X760260Y210758D01*
X759787Y211306D01*
X759324Y211862D01*
X759270Y211906D01*
X759224Y211959D01*
X758651Y212404D01*
X758089Y212856D01*
X758027Y212888D01*
X757972Y212931D01*
X757322Y213254D01*
X756682Y213587D01*
X756615Y213606D01*
X756553Y213637D01*
X755852Y213826D01*
X755158Y214026D01*
X755089Y214031D01*
X755022Y214049D01*
X753717Y214157D01*
X663418Y214157D01*
X663314Y214146D01*
X663210Y214154D01*
X662527Y214068D01*
X661840Y214000D01*
X661740Y213969D01*
X661637Y213956D01*
X660985Y213737D01*
X660324Y213535D01*
X660233Y213485D01*
X660134Y213452D01*
X659538Y213109D01*
X658930Y212780D01*
X658850Y212713D01*
X658760Y212661D01*
X657761Y211814D01*
X653919Y207972D01*
X640136Y202263D01*
X625218Y202263D01*
X611435Y207972D01*
X607987Y211420D01*
X607906Y211486D01*
X607838Y211565D01*
X607293Y211988D01*
X606760Y212424D01*
X606668Y212473D01*
X606586Y212537D01*
X605969Y212844D01*
X605360Y213167D01*
X605260Y213197D01*
X605167Y213243D01*
X604502Y213422D01*
X603840Y213619D01*
X603736Y213629D01*
X603636Y213656D01*
X602330Y213763D01*
X423174Y213763D01*
X413618Y217721D01*
X393305Y238034D01*
X393225Y238100D01*
X393157Y238179D01*
X392612Y238602D01*
X392079Y239039D01*
X391987Y239087D01*
X391905Y239151D01*
X391288Y239458D01*
X390678Y239781D01*
X390579Y239811D01*
X390485Y239858D01*
X389821Y240037D01*
X389159Y240234D01*
X389055Y240243D01*
X388955Y240270D01*
X387649Y240377D01*
X354571Y240377D01*
X341340Y245858D01*
X331212Y255985D01*
X325732Y269217D01*
X325732Y283539D01*
X331212Y296771D01*
X341340Y306898D01*
X354571Y312379D01*
X428893Y312379D01*
X442125Y306898D01*
X452252Y296771D01*
X457733Y283539D01*
X457733Y273764D01*
X457740Y273694D01*
X457734Y273625D01*
X457818Y272907D01*
X457890Y272186D01*
X457910Y272120D01*
X457918Y272051D01*
X458142Y271364D01*
X458355Y270671D01*
X458388Y270609D01*
X458410Y270544D01*
X458764Y269915D01*
X459110Y269276D01*
X459154Y269223D01*
X459188Y269163D01*
X459662Y268615D01*
X460125Y268059D01*
X460179Y268015D01*
X460224Y267963D01*
X460798Y267517D01*
X461360Y267065D01*
X461422Y267033D01*
X461477Y266990D01*
X462126Y266667D01*
X462767Y266334D01*
X462833Y266315D01*
X462896Y266284D01*
X463597Y266095D01*
X464290Y265895D01*
X464359Y265890D01*
X464427Y265872D01*
X465732Y265764D01*
X602330Y265764D01*
X602434Y265775D01*
X602538Y265767D01*
X603221Y265853D01*
X603908Y265922D01*
X604008Y265952D01*
X604111Y265965D01*
X604763Y266184D01*
X605423Y266387D01*
X605515Y266436D01*
X605614Y266469D01*
X606210Y266813D01*
X606818Y267141D01*
X606898Y267208D01*
X606988Y267260D01*
X607987Y268107D01*
X611435Y271555D01*
X625218Y277264D01*
X640136Y277264D01*
X653919Y271555D01*
X656974Y268501D01*
X657054Y268435D01*
X657122Y268356D01*
X657667Y267933D01*
X658200Y267497D01*
X658292Y267448D01*
X658375Y267384D01*
X658992Y267077D01*
X659601Y266754D01*
X659701Y266724D01*
X659794Y266678D01*
X660459Y266499D01*
X661120Y266302D01*
X661224Y266292D01*
X661325Y266265D01*
X662630Y266158D01*
X753717Y266158D01*
X753786Y266165D01*
X753855Y266159D01*
X754573Y266243D01*
X755294Y266315D01*
X755360Y266336D01*
X755429Y266344D01*
X756116Y266567D01*
X756810Y266780D01*
X756871Y266813D01*
X756937Y266835D01*
X757565Y267189D01*
X758204Y267535D01*
X758257Y267580D01*
X758317Y267614D01*
X758866Y268087D01*
X759422Y268550D01*
X759465Y268604D01*
X759518Y268649D01*
X759963Y269223D01*
X760415Y269785D01*
X760447Y269847D01*
X760490Y269902D01*
X760813Y270552D01*
X761146Y271192D01*
X761165Y271258D01*
X761196Y271321D01*
X761385Y272022D01*
X761585Y272716D01*
X761590Y272785D01*
X761609Y272852D01*
X761716Y274157D01*
X761716Y278076D01*
X765231Y281591D01*
X833194Y281591D01*
X836709Y278076D01*
X836709Y202239D01*
X833194Y198724D01*
X765231Y198724D01*
G37*
%LPD*%
%LPC*%
G36*
X315879Y1697133D02*
X315879Y1697133D01*
X297133Y1715879D01*
X297133Y1742389D01*
X312790Y1758046D01*
X312856Y1758126D01*
X312935Y1758194D01*
X313358Y1758740D01*
X313795Y1759273D01*
X313843Y1759364D01*
X313907Y1759447D01*
X314214Y1760064D01*
X314537Y1760673D01*
X314567Y1760773D01*
X314613Y1760866D01*
X314793Y1761531D01*
X314989Y1762193D01*
X314999Y1762297D01*
X315026Y1762397D01*
X315133Y1763702D01*
X315133Y1784588D01*
X315123Y1784692D01*
X315130Y1784795D01*
X315044Y1785479D01*
X314976Y1786165D01*
X314945Y1786265D01*
X314932Y1786368D01*
X314714Y1787020D01*
X314511Y1787681D01*
X314461Y1787773D01*
X314428Y1787871D01*
X314085Y1788468D01*
X313756Y1789075D01*
X313689Y1789155D01*
X313638Y1789245D01*
X312790Y1790244D01*
X294134Y1808900D01*
X294054Y1808966D01*
X293986Y1809045D01*
X293440Y1809468D01*
X292907Y1809905D01*
X292816Y1809953D01*
X292733Y1810017D01*
X292116Y1810324D01*
X291507Y1810648D01*
X291407Y1810677D01*
X291314Y1810724D01*
X290649Y1810903D01*
X289987Y1811100D01*
X289883Y1811109D01*
X289783Y1811136D01*
X288478Y1811243D01*
X238430Y1811243D01*
X225198Y1816724D01*
X215070Y1826851D01*
X209590Y1840083D01*
X209590Y1854405D01*
X215070Y1867637D01*
X225198Y1877764D01*
X238430Y1883245D01*
X312751Y1883245D01*
X325983Y1877764D01*
X336110Y1867637D01*
X336713Y1866183D01*
X336754Y1866106D01*
X336781Y1866024D01*
X337127Y1865409D01*
X337461Y1864786D01*
X337517Y1864719D01*
X337559Y1864643D01*
X338020Y1864109D01*
X338471Y1863563D01*
X338538Y1863509D01*
X338595Y1863443D01*
X339153Y1863010D01*
X339702Y1862564D01*
X339779Y1862524D01*
X339847Y1862471D01*
X340479Y1862156D01*
X341106Y1861828D01*
X341189Y1861803D01*
X341267Y1861764D01*
X341949Y1861580D01*
X342627Y1861382D01*
X342714Y1861375D01*
X342797Y1861352D01*
X344103Y1861245D01*
X715024Y1861245D01*
X715093Y1861252D01*
X715162Y1861246D01*
X715880Y1861330D01*
X716601Y1861402D01*
X716667Y1861422D01*
X716736Y1861430D01*
X717423Y1861654D01*
X718117Y1861867D01*
X718178Y1861900D01*
X718244Y1861922D01*
X718872Y1862276D01*
X719511Y1862622D01*
X719564Y1862666D01*
X719625Y1862700D01*
X720173Y1863173D01*
X720729Y1863637D01*
X720772Y1863691D01*
X720825Y1863736D01*
X721270Y1864310D01*
X721722Y1864872D01*
X721754Y1864933D01*
X721797Y1864988D01*
X722120Y1865638D01*
X722453Y1866279D01*
X722472Y1866345D01*
X722503Y1866408D01*
X722692Y1867109D01*
X722892Y1867802D01*
X722898Y1867871D01*
X722916Y1867938D01*
X723023Y1869244D01*
X723023Y1870945D01*
X728808Y1884911D01*
X739498Y1895601D01*
X753465Y1901386D01*
X768582Y1901386D01*
X782549Y1895601D01*
X793239Y1884911D01*
X799024Y1870945D01*
X799024Y1855827D01*
X793239Y1841860D01*
X782549Y1831170D01*
X768582Y1825385D01*
X753465Y1825385D01*
X739413Y1831206D01*
X739074Y1831468D01*
X738541Y1831905D01*
X738449Y1831953D01*
X738367Y1832017D01*
X737750Y1832324D01*
X737141Y1832648D01*
X737041Y1832677D01*
X736948Y1832724D01*
X736283Y1832903D01*
X735621Y1833100D01*
X735517Y1833109D01*
X735417Y1833136D01*
X734111Y1833243D01*
X344103Y1833243D01*
X344017Y1833235D01*
X343930Y1833242D01*
X343227Y1833156D01*
X342525Y1833086D01*
X342443Y1833061D01*
X342356Y1833050D01*
X341687Y1832829D01*
X341010Y1832621D01*
X340933Y1832580D01*
X340851Y1832553D01*
X340239Y1832203D01*
X339616Y1831866D01*
X339549Y1831811D01*
X339474Y1831768D01*
X338940Y1831303D01*
X338398Y1830851D01*
X338344Y1830784D01*
X338278Y1830727D01*
X337845Y1830164D01*
X337404Y1829616D01*
X337364Y1829539D01*
X337311Y1829470D01*
X336713Y1828305D01*
X336110Y1826851D01*
X331603Y1822344D01*
X331559Y1822290D01*
X331506Y1822245D01*
X331059Y1821680D01*
X330599Y1821118D01*
X330566Y1821056D01*
X330523Y1821002D01*
X330196Y1820358D01*
X329856Y1819717D01*
X329836Y1819651D01*
X329805Y1819589D01*
X329610Y1818889D01*
X329404Y1818198D01*
X329398Y1818129D01*
X329379Y1818062D01*
X329326Y1817341D01*
X329260Y1816619D01*
X329268Y1816549D01*
X329263Y1816480D01*
X329353Y1815765D01*
X329431Y1815043D01*
X329452Y1814976D01*
X329461Y1814907D01*
X329690Y1814224D01*
X329909Y1813531D01*
X329943Y1813470D01*
X329965Y1813405D01*
X330324Y1812781D01*
X330676Y1812144D01*
X330721Y1812090D01*
X330756Y1812031D01*
X331603Y1811031D01*
X343134Y1799500D01*
X343134Y1763702D01*
X343145Y1763598D01*
X343137Y1763495D01*
X343223Y1762812D01*
X343292Y1762125D01*
X343322Y1762025D01*
X343335Y1761922D01*
X343554Y1761270D01*
X343757Y1760609D01*
X343806Y1760517D01*
X343839Y1760419D01*
X344183Y1759823D01*
X344512Y1759215D01*
X344578Y1759135D01*
X344630Y1759045D01*
X345477Y1758046D01*
X361134Y1742389D01*
X361134Y1715879D01*
X342389Y1697133D01*
X315879Y1697133D01*
G37*
%LPD*%
%LPC*%
G36*
X1053465Y1925385D02*
X1053465Y1925385D01*
X1039498Y1931170D01*
X1028808Y1941860D01*
X1023023Y1955827D01*
X1023023Y1970945D01*
X1028808Y1984911D01*
X1039498Y1995601D01*
X1053465Y2001386D01*
X1068583Y2001386D01*
X1071169Y2000315D01*
X1071252Y2000290D01*
X1071330Y2000250D01*
X1072009Y2000061D01*
X1072687Y1999856D01*
X1072773Y1999848D01*
X1072857Y1999825D01*
X1073561Y1999773D01*
X1074265Y1999706D01*
X1074351Y1999715D01*
X1074438Y1999709D01*
X1075140Y1999797D01*
X1075842Y1999870D01*
X1075924Y1999896D01*
X1076011Y1999907D01*
X1076682Y2000132D01*
X1077355Y2000342D01*
X1077431Y2000383D01*
X1077514Y2000411D01*
X1078128Y2000764D01*
X1078746Y2001102D01*
X1078812Y2001158D01*
X1078888Y2001202D01*
X1079887Y2002049D01*
X1087901Y2010064D01*
X1586508Y2010064D01*
X1594055Y2002517D01*
X1594135Y2002451D01*
X1594203Y2002372D01*
X1594748Y2001949D01*
X1595281Y2001512D01*
X1595373Y2001463D01*
X1595455Y2001400D01*
X1596072Y2001093D01*
X1596682Y2000770D01*
X1596781Y2000740D01*
X1596875Y2000694D01*
X1597542Y2000514D01*
X1598201Y2000318D01*
X1598305Y2000308D01*
X1598405Y2000281D01*
X1599711Y2000174D01*
X1659208Y2000174D01*
X1672440Y1994693D01*
X1682567Y1984566D01*
X1688048Y1971334D01*
X1688048Y1957012D01*
X1682567Y1943781D01*
X1672440Y1933653D01*
X1659208Y1928172D01*
X1584886Y1928172D01*
X1571655Y1933653D01*
X1561527Y1943781D01*
X1556047Y1957012D01*
X1556047Y1971440D01*
X1556153Y1971809D01*
X1556367Y1972519D01*
X1556372Y1972571D01*
X1556387Y1972621D01*
X1556447Y1973360D01*
X1556518Y1974097D01*
X1556512Y1974149D01*
X1556517Y1974201D01*
X1556430Y1974937D01*
X1556354Y1975674D01*
X1556338Y1975724D01*
X1556332Y1975776D01*
X1556102Y1976481D01*
X1555882Y1977187D01*
X1555857Y1977233D01*
X1555841Y1977283D01*
X1555478Y1977927D01*
X1555122Y1978578D01*
X1555088Y1978618D01*
X1555062Y1978664D01*
X1554577Y1979227D01*
X1554102Y1979792D01*
X1554061Y1979824D01*
X1554026Y1979864D01*
X1553438Y1980321D01*
X1552862Y1980780D01*
X1552815Y1980804D01*
X1552774Y1980836D01*
X1552110Y1981167D01*
X1551452Y1981505D01*
X1551402Y1981519D01*
X1551355Y1981543D01*
X1550636Y1981736D01*
X1549927Y1981937D01*
X1549875Y1981941D01*
X1549824Y1981955D01*
X1548519Y1982062D01*
X1106391Y1982062D01*
X1106339Y1982057D01*
X1106287Y1982062D01*
X1105549Y1981978D01*
X1104813Y1981905D01*
X1104763Y1981890D01*
X1104712Y1981884D01*
X1104009Y1981658D01*
X1103298Y1981440D01*
X1103251Y1981415D01*
X1103202Y1981399D01*
X1102559Y1981040D01*
X1101904Y1980685D01*
X1101863Y1980652D01*
X1101818Y1980626D01*
X1101257Y1980146D01*
X1100686Y1979670D01*
X1100653Y1979630D01*
X1100614Y1979596D01*
X1100156Y1979012D01*
X1099692Y1978435D01*
X1099668Y1978389D01*
X1099636Y1978348D01*
X1099302Y1977685D01*
X1098961Y1977028D01*
X1098947Y1976978D01*
X1098924Y1976931D01*
X1098727Y1976216D01*
X1098523Y1975505D01*
X1098518Y1975453D01*
X1098505Y1975402D01*
X1098453Y1974662D01*
X1098393Y1973925D01*
X1098399Y1973873D01*
X1098395Y1973821D01*
X1098491Y1973085D01*
X1098577Y1972350D01*
X1098593Y1972301D01*
X1098600Y1972249D01*
X1099001Y1971002D01*
X1099024Y1970945D01*
X1099024Y1955827D01*
X1093239Y1941860D01*
X1082549Y1931170D01*
X1068582Y1925385D01*
X1053465Y1925385D01*
G37*
%LPD*%
%LPC*%
G36*
X1053465Y1025385D02*
X1053465Y1025385D01*
X1039498Y1031170D01*
X1028808Y1041860D01*
X1023023Y1055827D01*
X1023023Y1070945D01*
X1028808Y1084911D01*
X1039498Y1095601D01*
X1053465Y1101386D01*
X1068582Y1101386D01*
X1082549Y1095601D01*
X1093239Y1084911D01*
X1094311Y1082324D01*
X1094352Y1082248D01*
X1094378Y1082166D01*
X1094725Y1081552D01*
X1095059Y1080927D01*
X1095115Y1080860D01*
X1095157Y1080785D01*
X1095620Y1080248D01*
X1096069Y1079705D01*
X1096136Y1079651D01*
X1096193Y1079585D01*
X1096751Y1079151D01*
X1097300Y1078706D01*
X1097377Y1078665D01*
X1097445Y1078612D01*
X1098076Y1078298D01*
X1098704Y1077969D01*
X1098787Y1077945D01*
X1098865Y1077906D01*
X1099548Y1077722D01*
X1100225Y1077524D01*
X1100312Y1077516D01*
X1100395Y1077494D01*
X1101701Y1077386D01*
X1560104Y1077386D01*
X1560190Y1077395D01*
X1560277Y1077388D01*
X1560979Y1077474D01*
X1561682Y1077544D01*
X1561765Y1077569D01*
X1561851Y1077579D01*
X1562521Y1077801D01*
X1563197Y1078009D01*
X1563273Y1078050D01*
X1563356Y1078077D01*
X1563970Y1078427D01*
X1564591Y1078764D01*
X1564658Y1078819D01*
X1564733Y1078862D01*
X1565266Y1079326D01*
X1565809Y1079778D01*
X1565864Y1079846D01*
X1565929Y1079903D01*
X1566360Y1080464D01*
X1566803Y1081014D01*
X1566843Y1081090D01*
X1566896Y1081159D01*
X1567494Y1082325D01*
X1569401Y1086928D01*
X1579529Y1097055D01*
X1592760Y1102536D01*
X1667082Y1102536D01*
X1680314Y1097055D01*
X1690441Y1086928D01*
X1695922Y1073696D01*
X1695922Y1059374D01*
X1690441Y1046143D01*
X1680314Y1036015D01*
X1667082Y1030535D01*
X1592760Y1030535D01*
X1579529Y1036015D01*
X1568502Y1047042D01*
X1568421Y1047108D01*
X1568353Y1047187D01*
X1567808Y1047610D01*
X1567275Y1048047D01*
X1567183Y1048095D01*
X1567101Y1048159D01*
X1566484Y1048466D01*
X1565875Y1048789D01*
X1565775Y1048819D01*
X1565682Y1048865D01*
X1565017Y1049045D01*
X1564355Y1049241D01*
X1564251Y1049251D01*
X1564151Y1049278D01*
X1562845Y1049385D01*
X1101701Y1049385D01*
X1101615Y1049376D01*
X1101528Y1049383D01*
X1100827Y1049298D01*
X1100123Y1049228D01*
X1100040Y1049203D01*
X1099954Y1049192D01*
X1099286Y1048971D01*
X1098608Y1048763D01*
X1098531Y1048721D01*
X1098449Y1048694D01*
X1097837Y1048346D01*
X1097214Y1048008D01*
X1097147Y1047952D01*
X1097072Y1047910D01*
X1096540Y1047447D01*
X1095996Y1046993D01*
X1095941Y1046925D01*
X1095876Y1046869D01*
X1095445Y1046309D01*
X1095002Y1045758D01*
X1094962Y1045681D01*
X1094909Y1045612D01*
X1094311Y1044447D01*
X1093239Y1041860D01*
X1082549Y1031170D01*
X1068582Y1025385D01*
X1053465Y1025385D01*
G37*
%LPD*%
%LPC*%
G36*
X1053465Y1125385D02*
X1053465Y1125385D01*
X1039498Y1131170D01*
X1028808Y1141860D01*
X1023023Y1155827D01*
X1023023Y1170945D01*
X1028808Y1184911D01*
X1039498Y1195601D01*
X1053465Y1201386D01*
X1068582Y1201386D01*
X1082549Y1195601D01*
X1093239Y1184911D01*
X1094311Y1182324D01*
X1094352Y1182248D01*
X1094378Y1182166D01*
X1094725Y1181552D01*
X1095059Y1180927D01*
X1095115Y1180860D01*
X1095157Y1180785D01*
X1095620Y1180248D01*
X1096069Y1179705D01*
X1096136Y1179651D01*
X1096193Y1179585D01*
X1096751Y1179151D01*
X1097300Y1178706D01*
X1097377Y1178665D01*
X1097445Y1178612D01*
X1098076Y1178298D01*
X1098704Y1177969D01*
X1098787Y1177945D01*
X1098865Y1177906D01*
X1099548Y1177722D01*
X1100225Y1177524D01*
X1100312Y1177516D01*
X1100395Y1177494D01*
X1101701Y1177386D01*
X1560104Y1177386D01*
X1560190Y1177395D01*
X1560277Y1177388D01*
X1560979Y1177474D01*
X1561682Y1177544D01*
X1561765Y1177569D01*
X1561851Y1177579D01*
X1562521Y1177801D01*
X1563197Y1178009D01*
X1563273Y1178050D01*
X1563356Y1178077D01*
X1563970Y1178427D01*
X1564591Y1178764D01*
X1564658Y1178819D01*
X1564733Y1178862D01*
X1565266Y1179326D01*
X1565809Y1179778D01*
X1565864Y1179846D01*
X1565929Y1179903D01*
X1566360Y1180464D01*
X1566803Y1181014D01*
X1566843Y1181090D01*
X1566896Y1181159D01*
X1567494Y1182325D01*
X1569401Y1186928D01*
X1579529Y1197055D01*
X1592760Y1202536D01*
X1667082Y1202536D01*
X1680314Y1197055D01*
X1690441Y1186928D01*
X1695922Y1173696D01*
X1695922Y1159374D01*
X1690441Y1146143D01*
X1680314Y1136015D01*
X1667082Y1130535D01*
X1592760Y1130535D01*
X1579529Y1136015D01*
X1568502Y1147042D01*
X1568421Y1147108D01*
X1568353Y1147187D01*
X1567808Y1147610D01*
X1567275Y1148047D01*
X1567183Y1148095D01*
X1567101Y1148159D01*
X1566484Y1148466D01*
X1565875Y1148789D01*
X1565775Y1148819D01*
X1565682Y1148865D01*
X1565017Y1149045D01*
X1564355Y1149241D01*
X1564251Y1149251D01*
X1564151Y1149278D01*
X1562845Y1149385D01*
X1101701Y1149385D01*
X1101615Y1149376D01*
X1101528Y1149383D01*
X1100827Y1149298D01*
X1100123Y1149228D01*
X1100040Y1149203D01*
X1099954Y1149192D01*
X1099286Y1148971D01*
X1098608Y1148763D01*
X1098531Y1148721D01*
X1098449Y1148694D01*
X1097837Y1148346D01*
X1097214Y1148008D01*
X1097147Y1147952D01*
X1097072Y1147910D01*
X1096540Y1147447D01*
X1095996Y1146993D01*
X1095941Y1146925D01*
X1095876Y1146869D01*
X1095445Y1146309D01*
X1095002Y1145758D01*
X1094962Y1145681D01*
X1094909Y1145612D01*
X1094311Y1144447D01*
X1093239Y1141860D01*
X1082549Y1131170D01*
X1068582Y1125385D01*
X1053465Y1125385D01*
G37*
%LPD*%
%LPC*%
G36*
X1053465Y1425385D02*
X1053465Y1425385D01*
X1039498Y1431170D01*
X1028808Y1441860D01*
X1023023Y1455827D01*
X1023023Y1470945D01*
X1028808Y1484911D01*
X1039498Y1495601D01*
X1053465Y1501386D01*
X1068582Y1501386D01*
X1082549Y1495601D01*
X1093239Y1484911D01*
X1094310Y1482325D01*
X1094351Y1482248D01*
X1094378Y1482166D01*
X1094725Y1481551D01*
X1095059Y1480927D01*
X1095115Y1480860D01*
X1095157Y1480785D01*
X1095620Y1480249D01*
X1096069Y1479705D01*
X1096136Y1479651D01*
X1096193Y1479585D01*
X1096752Y1479151D01*
X1097300Y1478706D01*
X1097377Y1478665D01*
X1097445Y1478612D01*
X1098078Y1478297D01*
X1098703Y1477969D01*
X1098786Y1477945D01*
X1098864Y1477906D01*
X1099548Y1477722D01*
X1100225Y1477524D01*
X1100312Y1477516D01*
X1100395Y1477494D01*
X1101701Y1477386D01*
X1560104Y1477386D01*
X1560190Y1477395D01*
X1560277Y1477388D01*
X1560979Y1477474D01*
X1561682Y1477544D01*
X1561765Y1477569D01*
X1561851Y1477579D01*
X1562521Y1477801D01*
X1563197Y1478009D01*
X1563273Y1478050D01*
X1563356Y1478077D01*
X1563970Y1478427D01*
X1564591Y1478764D01*
X1564658Y1478819D01*
X1564733Y1478862D01*
X1565266Y1479326D01*
X1565809Y1479778D01*
X1565864Y1479846D01*
X1565929Y1479903D01*
X1566360Y1480464D01*
X1566803Y1481014D01*
X1566843Y1481090D01*
X1566896Y1481159D01*
X1567494Y1482325D01*
X1569401Y1486928D01*
X1579529Y1497055D01*
X1592760Y1502536D01*
X1667082Y1502536D01*
X1680314Y1497055D01*
X1690441Y1486928D01*
X1695922Y1473696D01*
X1695922Y1459374D01*
X1690441Y1446143D01*
X1680314Y1436015D01*
X1667082Y1430535D01*
X1592760Y1430535D01*
X1579529Y1436015D01*
X1568502Y1447042D01*
X1568421Y1447108D01*
X1568353Y1447187D01*
X1567808Y1447610D01*
X1567275Y1448047D01*
X1567183Y1448095D01*
X1567101Y1448159D01*
X1566484Y1448466D01*
X1565875Y1448789D01*
X1565775Y1448819D01*
X1565682Y1448865D01*
X1565017Y1449045D01*
X1564355Y1449241D01*
X1564251Y1449251D01*
X1564151Y1449278D01*
X1562845Y1449385D01*
X1101701Y1449385D01*
X1101615Y1449376D01*
X1101528Y1449383D01*
X1100826Y1449298D01*
X1100123Y1449228D01*
X1100040Y1449203D01*
X1099954Y1449192D01*
X1099285Y1448971D01*
X1098608Y1448763D01*
X1098531Y1448721D01*
X1098449Y1448694D01*
X1097836Y1448345D01*
X1097214Y1448008D01*
X1097147Y1447952D01*
X1097071Y1447909D01*
X1096538Y1447445D01*
X1095996Y1446993D01*
X1095942Y1446926D01*
X1095876Y1446868D01*
X1095443Y1446306D01*
X1095002Y1445758D01*
X1094962Y1445681D01*
X1094909Y1445612D01*
X1094310Y1444447D01*
X1093239Y1441860D01*
X1082549Y1431170D01*
X1068582Y1425385D01*
X1053465Y1425385D01*
G37*
%LPD*%
%LPC*%
G36*
X1053465Y1325385D02*
X1053465Y1325385D01*
X1039498Y1331170D01*
X1028808Y1341860D01*
X1023023Y1355827D01*
X1023023Y1370945D01*
X1028808Y1384911D01*
X1039498Y1395601D01*
X1053465Y1401386D01*
X1068582Y1401386D01*
X1082549Y1395601D01*
X1093239Y1384911D01*
X1094310Y1382325D01*
X1094351Y1382248D01*
X1094378Y1382166D01*
X1094725Y1381551D01*
X1095059Y1380927D01*
X1095115Y1380860D01*
X1095157Y1380785D01*
X1095620Y1380249D01*
X1096069Y1379705D01*
X1096136Y1379651D01*
X1096193Y1379585D01*
X1096752Y1379151D01*
X1097300Y1378706D01*
X1097377Y1378665D01*
X1097445Y1378612D01*
X1098078Y1378297D01*
X1098703Y1377969D01*
X1098786Y1377945D01*
X1098864Y1377906D01*
X1099548Y1377722D01*
X1100225Y1377524D01*
X1100312Y1377516D01*
X1100395Y1377494D01*
X1101701Y1377386D01*
X1560104Y1377386D01*
X1560190Y1377395D01*
X1560277Y1377388D01*
X1560979Y1377474D01*
X1561682Y1377544D01*
X1561765Y1377569D01*
X1561851Y1377579D01*
X1562521Y1377801D01*
X1563197Y1378009D01*
X1563273Y1378050D01*
X1563356Y1378077D01*
X1563970Y1378427D01*
X1564591Y1378764D01*
X1564658Y1378819D01*
X1564733Y1378862D01*
X1565266Y1379326D01*
X1565809Y1379778D01*
X1565864Y1379846D01*
X1565929Y1379903D01*
X1566360Y1380464D01*
X1566803Y1381014D01*
X1566843Y1381090D01*
X1566896Y1381159D01*
X1567494Y1382325D01*
X1569401Y1386928D01*
X1579529Y1397055D01*
X1592760Y1402536D01*
X1667082Y1402536D01*
X1680314Y1397055D01*
X1690441Y1386928D01*
X1695922Y1373696D01*
X1695922Y1359374D01*
X1690441Y1346143D01*
X1680314Y1336015D01*
X1667082Y1330535D01*
X1592760Y1330535D01*
X1579529Y1336015D01*
X1568502Y1347042D01*
X1568421Y1347108D01*
X1568353Y1347187D01*
X1567808Y1347610D01*
X1567275Y1348047D01*
X1567183Y1348095D01*
X1567101Y1348159D01*
X1566484Y1348466D01*
X1565875Y1348789D01*
X1565775Y1348819D01*
X1565682Y1348865D01*
X1565017Y1349045D01*
X1564355Y1349241D01*
X1564251Y1349251D01*
X1564151Y1349278D01*
X1562845Y1349385D01*
X1101701Y1349385D01*
X1101615Y1349376D01*
X1101528Y1349383D01*
X1100826Y1349298D01*
X1100123Y1349228D01*
X1100040Y1349203D01*
X1099954Y1349192D01*
X1099285Y1348971D01*
X1098608Y1348763D01*
X1098531Y1348721D01*
X1098449Y1348694D01*
X1097836Y1348345D01*
X1097214Y1348008D01*
X1097147Y1347952D01*
X1097071Y1347909D01*
X1096538Y1347445D01*
X1095996Y1346993D01*
X1095942Y1346926D01*
X1095876Y1346868D01*
X1095443Y1346306D01*
X1095002Y1345758D01*
X1094962Y1345681D01*
X1094909Y1345612D01*
X1094310Y1344447D01*
X1093239Y1341860D01*
X1082549Y1331170D01*
X1068582Y1325385D01*
X1053465Y1325385D01*
G37*
%LPD*%
%LPC*%
G36*
X1053465Y1225385D02*
X1053465Y1225385D01*
X1039498Y1231170D01*
X1028808Y1241860D01*
X1023023Y1255827D01*
X1023023Y1270945D01*
X1028808Y1284911D01*
X1039498Y1295601D01*
X1053465Y1301386D01*
X1068582Y1301386D01*
X1082549Y1295601D01*
X1093239Y1284911D01*
X1094310Y1282325D01*
X1094351Y1282248D01*
X1094378Y1282166D01*
X1094725Y1281551D01*
X1095059Y1280927D01*
X1095115Y1280860D01*
X1095157Y1280785D01*
X1095620Y1280249D01*
X1096069Y1279705D01*
X1096136Y1279651D01*
X1096193Y1279585D01*
X1096752Y1279151D01*
X1097300Y1278706D01*
X1097377Y1278665D01*
X1097445Y1278612D01*
X1098078Y1278297D01*
X1098703Y1277969D01*
X1098786Y1277945D01*
X1098864Y1277906D01*
X1099548Y1277722D01*
X1100225Y1277524D01*
X1100312Y1277516D01*
X1100395Y1277494D01*
X1101701Y1277386D01*
X1560104Y1277386D01*
X1560190Y1277395D01*
X1560277Y1277388D01*
X1560979Y1277474D01*
X1561682Y1277544D01*
X1561765Y1277569D01*
X1561851Y1277579D01*
X1562521Y1277801D01*
X1563197Y1278009D01*
X1563273Y1278050D01*
X1563356Y1278077D01*
X1563970Y1278427D01*
X1564591Y1278764D01*
X1564658Y1278819D01*
X1564733Y1278862D01*
X1565266Y1279326D01*
X1565809Y1279778D01*
X1565864Y1279846D01*
X1565929Y1279903D01*
X1566360Y1280464D01*
X1566803Y1281014D01*
X1566843Y1281090D01*
X1566896Y1281159D01*
X1567494Y1282325D01*
X1569401Y1286928D01*
X1579529Y1297055D01*
X1592760Y1302536D01*
X1667082Y1302536D01*
X1680314Y1297055D01*
X1690441Y1286928D01*
X1695922Y1273696D01*
X1695922Y1259374D01*
X1690441Y1246143D01*
X1680314Y1236015D01*
X1667082Y1230535D01*
X1592760Y1230535D01*
X1579529Y1236015D01*
X1568502Y1247042D01*
X1568421Y1247108D01*
X1568353Y1247187D01*
X1567808Y1247610D01*
X1567275Y1248047D01*
X1567183Y1248095D01*
X1567101Y1248159D01*
X1566484Y1248466D01*
X1565875Y1248789D01*
X1565775Y1248819D01*
X1565682Y1248865D01*
X1565017Y1249045D01*
X1564355Y1249241D01*
X1564251Y1249251D01*
X1564151Y1249278D01*
X1562845Y1249385D01*
X1101701Y1249385D01*
X1101615Y1249376D01*
X1101528Y1249383D01*
X1100826Y1249298D01*
X1100123Y1249228D01*
X1100040Y1249203D01*
X1099954Y1249192D01*
X1099285Y1248971D01*
X1098608Y1248763D01*
X1098531Y1248721D01*
X1098449Y1248694D01*
X1097836Y1248345D01*
X1097214Y1248008D01*
X1097147Y1247952D01*
X1097071Y1247909D01*
X1096538Y1247445D01*
X1095996Y1246993D01*
X1095942Y1246926D01*
X1095876Y1246868D01*
X1095443Y1246306D01*
X1095002Y1245758D01*
X1094962Y1245681D01*
X1094909Y1245612D01*
X1094310Y1244447D01*
X1093239Y1241860D01*
X1082549Y1231170D01*
X1068582Y1225385D01*
X1053465Y1225385D01*
G37*
%LPD*%
%LPC*%
G36*
X1053465Y2225385D02*
X1053465Y2225385D01*
X1039498Y2231170D01*
X1028808Y2241860D01*
X1023023Y2255827D01*
X1023023Y2270945D01*
X1028808Y2284911D01*
X1039498Y2295601D01*
X1053465Y2301386D01*
X1068582Y2301386D01*
X1082549Y2295601D01*
X1093239Y2284911D01*
X1094310Y2282325D01*
X1094351Y2282248D01*
X1094378Y2282166D01*
X1094725Y2281551D01*
X1095059Y2280927D01*
X1095115Y2280860D01*
X1095157Y2280785D01*
X1095621Y2280248D01*
X1096069Y2279705D01*
X1096136Y2279651D01*
X1096193Y2279585D01*
X1096752Y2279151D01*
X1097300Y2278706D01*
X1097377Y2278665D01*
X1097445Y2278612D01*
X1098078Y2278297D01*
X1098703Y2277969D01*
X1098786Y2277945D01*
X1098864Y2277906D01*
X1099548Y2277722D01*
X1100225Y2277524D01*
X1100312Y2277516D01*
X1100395Y2277494D01*
X1101701Y2277386D01*
X1553209Y2277386D01*
X1553295Y2277395D01*
X1553381Y2277388D01*
X1554084Y2277474D01*
X1554786Y2277544D01*
X1554869Y2277569D01*
X1554955Y2277579D01*
X1555625Y2277801D01*
X1556302Y2278009D01*
X1556378Y2278050D01*
X1556460Y2278077D01*
X1557073Y2278426D01*
X1557696Y2278764D01*
X1557762Y2278819D01*
X1557838Y2278862D01*
X1558370Y2279326D01*
X1558914Y2279778D01*
X1558968Y2279846D01*
X1559033Y2279903D01*
X1559465Y2280464D01*
X1559907Y2281014D01*
X1559947Y2281090D01*
X1560000Y2281159D01*
X1560599Y2282325D01*
X1561527Y2284566D01*
X1571655Y2294693D01*
X1584886Y2300174D01*
X1659208Y2300174D01*
X1672440Y2294693D01*
X1682567Y2284566D01*
X1688048Y2271334D01*
X1688048Y2257012D01*
X1682567Y2243781D01*
X1672440Y2233653D01*
X1659208Y2228172D01*
X1584886Y2228172D01*
X1571655Y2233653D01*
X1561527Y2243780D01*
X1561251Y2244447D01*
X1561210Y2244524D01*
X1561183Y2244606D01*
X1560836Y2245221D01*
X1560502Y2245844D01*
X1560447Y2245911D01*
X1560405Y2245987D01*
X1559941Y2246523D01*
X1559493Y2247066D01*
X1559426Y2247121D01*
X1559369Y2247187D01*
X1558809Y2247621D01*
X1558262Y2248065D01*
X1558185Y2248106D01*
X1558117Y2248159D01*
X1557484Y2248474D01*
X1556858Y2248802D01*
X1556775Y2248827D01*
X1556697Y2248865D01*
X1556016Y2249049D01*
X1555337Y2249248D01*
X1555250Y2249255D01*
X1555166Y2249278D01*
X1553861Y2249385D01*
X1101701Y2249385D01*
X1101615Y2249376D01*
X1101528Y2249383D01*
X1100826Y2249298D01*
X1100123Y2249228D01*
X1100040Y2249203D01*
X1099954Y2249192D01*
X1099285Y2248971D01*
X1098608Y2248763D01*
X1098531Y2248721D01*
X1098449Y2248694D01*
X1097836Y2248345D01*
X1097214Y2248008D01*
X1097147Y2247952D01*
X1097071Y2247909D01*
X1096538Y2247445D01*
X1095996Y2246993D01*
X1095942Y2246926D01*
X1095876Y2246868D01*
X1095443Y2246306D01*
X1095002Y2245758D01*
X1094962Y2245681D01*
X1094909Y2245612D01*
X1094310Y2244447D01*
X1093239Y2241860D01*
X1082549Y2231170D01*
X1068582Y2225385D01*
X1053465Y2225385D01*
G37*
%LPD*%
%LPC*%
G36*
X1053465Y2125385D02*
X1053465Y2125385D01*
X1039498Y2131170D01*
X1028808Y2141860D01*
X1023023Y2155827D01*
X1023023Y2170945D01*
X1028808Y2184911D01*
X1039498Y2195601D01*
X1053465Y2201386D01*
X1068582Y2201386D01*
X1082549Y2195601D01*
X1093239Y2184911D01*
X1094310Y2182325D01*
X1094351Y2182248D01*
X1094378Y2182166D01*
X1094725Y2181551D01*
X1095059Y2180927D01*
X1095115Y2180860D01*
X1095157Y2180785D01*
X1095621Y2180248D01*
X1096069Y2179705D01*
X1096136Y2179651D01*
X1096193Y2179585D01*
X1096752Y2179151D01*
X1097300Y2178706D01*
X1097377Y2178665D01*
X1097445Y2178612D01*
X1098078Y2178297D01*
X1098703Y2177969D01*
X1098786Y2177945D01*
X1098864Y2177906D01*
X1099548Y2177722D01*
X1100225Y2177524D01*
X1100312Y2177516D01*
X1100395Y2177494D01*
X1101701Y2177386D01*
X1553209Y2177386D01*
X1553295Y2177395D01*
X1553381Y2177388D01*
X1554084Y2177474D01*
X1554786Y2177544D01*
X1554869Y2177569D01*
X1554955Y2177579D01*
X1555625Y2177801D01*
X1556302Y2178009D01*
X1556378Y2178050D01*
X1556460Y2178077D01*
X1557073Y2178426D01*
X1557696Y2178764D01*
X1557762Y2178819D01*
X1557838Y2178862D01*
X1558370Y2179326D01*
X1558914Y2179778D01*
X1558968Y2179846D01*
X1559033Y2179903D01*
X1559465Y2180464D01*
X1559907Y2181014D01*
X1559947Y2181090D01*
X1560000Y2181159D01*
X1560599Y2182325D01*
X1561527Y2184566D01*
X1571655Y2194693D01*
X1584886Y2200174D01*
X1659208Y2200174D01*
X1672440Y2194693D01*
X1682567Y2184566D01*
X1688048Y2171334D01*
X1688048Y2157012D01*
X1682567Y2143781D01*
X1672440Y2133653D01*
X1659208Y2128172D01*
X1584886Y2128172D01*
X1571655Y2133653D01*
X1561527Y2143780D01*
X1561251Y2144447D01*
X1561210Y2144524D01*
X1561183Y2144606D01*
X1560836Y2145221D01*
X1560502Y2145844D01*
X1560447Y2145911D01*
X1560405Y2145987D01*
X1559941Y2146523D01*
X1559493Y2147066D01*
X1559426Y2147121D01*
X1559369Y2147187D01*
X1558809Y2147621D01*
X1558262Y2148065D01*
X1558185Y2148106D01*
X1558117Y2148159D01*
X1557484Y2148474D01*
X1556858Y2148802D01*
X1556775Y2148827D01*
X1556697Y2148865D01*
X1556016Y2149049D01*
X1555337Y2149248D01*
X1555250Y2149255D01*
X1555166Y2149278D01*
X1553861Y2149385D01*
X1101701Y2149385D01*
X1101615Y2149376D01*
X1101528Y2149383D01*
X1100826Y2149298D01*
X1100123Y2149228D01*
X1100040Y2149203D01*
X1099954Y2149192D01*
X1099285Y2148971D01*
X1098608Y2148763D01*
X1098531Y2148721D01*
X1098449Y2148694D01*
X1097836Y2148345D01*
X1097214Y2148008D01*
X1097147Y2147952D01*
X1097071Y2147909D01*
X1096538Y2147445D01*
X1095996Y2146993D01*
X1095942Y2146926D01*
X1095876Y2146868D01*
X1095443Y2146306D01*
X1095002Y2145758D01*
X1094962Y2145681D01*
X1094909Y2145612D01*
X1094310Y2144447D01*
X1093239Y2141860D01*
X1082549Y2131170D01*
X1068582Y2125385D01*
X1053465Y2125385D01*
G37*
%LPD*%
%LPC*%
G36*
X1053465Y2025385D02*
X1053465Y2025385D01*
X1039498Y2031170D01*
X1028808Y2041860D01*
X1023023Y2055827D01*
X1023023Y2070945D01*
X1028808Y2084911D01*
X1039498Y2095601D01*
X1053465Y2101386D01*
X1068582Y2101386D01*
X1082549Y2095601D01*
X1093239Y2084911D01*
X1094310Y2082325D01*
X1094351Y2082248D01*
X1094378Y2082166D01*
X1094725Y2081551D01*
X1095059Y2080927D01*
X1095115Y2080860D01*
X1095157Y2080785D01*
X1095621Y2080248D01*
X1096069Y2079705D01*
X1096136Y2079651D01*
X1096193Y2079585D01*
X1096752Y2079151D01*
X1097300Y2078706D01*
X1097377Y2078665D01*
X1097445Y2078612D01*
X1098078Y2078297D01*
X1098703Y2077969D01*
X1098786Y2077945D01*
X1098864Y2077906D01*
X1099548Y2077722D01*
X1100225Y2077524D01*
X1100312Y2077516D01*
X1100395Y2077494D01*
X1101701Y2077386D01*
X1553209Y2077386D01*
X1553295Y2077395D01*
X1553381Y2077388D01*
X1554084Y2077474D01*
X1554786Y2077544D01*
X1554869Y2077569D01*
X1554955Y2077579D01*
X1555625Y2077801D01*
X1556302Y2078009D01*
X1556378Y2078050D01*
X1556460Y2078077D01*
X1557073Y2078426D01*
X1557696Y2078764D01*
X1557762Y2078819D01*
X1557838Y2078862D01*
X1558370Y2079326D01*
X1558914Y2079778D01*
X1558968Y2079846D01*
X1559033Y2079903D01*
X1559465Y2080464D01*
X1559907Y2081014D01*
X1559947Y2081090D01*
X1560000Y2081159D01*
X1560599Y2082325D01*
X1561527Y2084566D01*
X1571655Y2094693D01*
X1584886Y2100174D01*
X1659208Y2100174D01*
X1672440Y2094693D01*
X1682567Y2084566D01*
X1688048Y2071334D01*
X1688048Y2057012D01*
X1682567Y2043781D01*
X1672440Y2033653D01*
X1659208Y2028172D01*
X1584886Y2028172D01*
X1571655Y2033653D01*
X1561527Y2043780D01*
X1561251Y2044447D01*
X1561210Y2044524D01*
X1561183Y2044606D01*
X1560836Y2045221D01*
X1560502Y2045844D01*
X1560447Y2045911D01*
X1560405Y2045987D01*
X1559941Y2046523D01*
X1559493Y2047066D01*
X1559426Y2047121D01*
X1559369Y2047187D01*
X1558809Y2047621D01*
X1558262Y2048065D01*
X1558185Y2048106D01*
X1558117Y2048159D01*
X1557484Y2048474D01*
X1556858Y2048802D01*
X1556775Y2048827D01*
X1556697Y2048865D01*
X1556016Y2049049D01*
X1555337Y2049248D01*
X1555250Y2049255D01*
X1555166Y2049278D01*
X1553861Y2049385D01*
X1101701Y2049385D01*
X1101615Y2049376D01*
X1101528Y2049383D01*
X1100826Y2049298D01*
X1100123Y2049228D01*
X1100040Y2049203D01*
X1099954Y2049192D01*
X1099285Y2048971D01*
X1098608Y2048763D01*
X1098531Y2048721D01*
X1098449Y2048694D01*
X1097836Y2048345D01*
X1097214Y2048008D01*
X1097147Y2047952D01*
X1097071Y2047909D01*
X1096538Y2047445D01*
X1095996Y2046993D01*
X1095942Y2046926D01*
X1095876Y2046868D01*
X1095443Y2046306D01*
X1095002Y2045758D01*
X1094962Y2045681D01*
X1094909Y2045612D01*
X1094310Y2044447D01*
X1093239Y2041860D01*
X1082549Y2031170D01*
X1068582Y2025385D01*
X1053465Y2025385D01*
G37*
%LPD*%
%LPC*%
G36*
X238430Y1911243D02*
X238430Y1911243D01*
X225198Y1916724D01*
X215070Y1926851D01*
X209590Y1940083D01*
X209590Y1954405D01*
X215070Y1967637D01*
X225198Y1977764D01*
X238430Y1983245D01*
X312751Y1983245D01*
X325983Y1977764D01*
X336110Y1967637D01*
X336713Y1966183D01*
X336754Y1966106D01*
X336781Y1966024D01*
X337127Y1965409D01*
X337461Y1964786D01*
X337517Y1964719D01*
X337559Y1964643D01*
X338020Y1964109D01*
X338471Y1963563D01*
X338538Y1963509D01*
X338595Y1963443D01*
X339153Y1963010D01*
X339702Y1962564D01*
X339779Y1962524D01*
X339847Y1962471D01*
X340479Y1962156D01*
X341106Y1961828D01*
X341189Y1961803D01*
X341267Y1961764D01*
X341949Y1961580D01*
X342627Y1961382D01*
X342714Y1961375D01*
X342797Y1961352D01*
X344103Y1961245D01*
X715024Y1961245D01*
X715093Y1961252D01*
X715162Y1961246D01*
X715880Y1961330D01*
X716601Y1961402D01*
X716667Y1961422D01*
X716736Y1961430D01*
X717423Y1961654D01*
X718117Y1961867D01*
X718178Y1961900D01*
X718244Y1961922D01*
X718872Y1962276D01*
X719511Y1962622D01*
X719564Y1962666D01*
X719625Y1962700D01*
X720173Y1963173D01*
X720729Y1963637D01*
X720772Y1963691D01*
X720825Y1963736D01*
X721270Y1964310D01*
X721722Y1964872D01*
X721754Y1964933D01*
X721797Y1964988D01*
X722120Y1965638D01*
X722453Y1966279D01*
X722472Y1966345D01*
X722503Y1966408D01*
X722692Y1967109D01*
X722892Y1967802D01*
X722898Y1967871D01*
X722916Y1967938D01*
X723023Y1969244D01*
X723023Y1970945D01*
X728808Y1984911D01*
X739498Y1995601D01*
X753465Y2001386D01*
X768582Y2001386D01*
X782549Y1995601D01*
X793239Y1984911D01*
X799024Y1970945D01*
X799024Y1955827D01*
X793239Y1941860D01*
X782549Y1931170D01*
X768582Y1925385D01*
X753465Y1925385D01*
X739413Y1931206D01*
X739074Y1931468D01*
X738542Y1931905D01*
X738449Y1931953D01*
X738367Y1932017D01*
X737751Y1932324D01*
X737141Y1932647D01*
X737042Y1932677D01*
X736948Y1932724D01*
X736282Y1932903D01*
X735622Y1933100D01*
X735518Y1933109D01*
X735417Y1933136D01*
X734112Y1933243D01*
X344103Y1933243D01*
X344017Y1933235D01*
X343930Y1933242D01*
X343227Y1933156D01*
X342525Y1933086D01*
X342443Y1933061D01*
X342356Y1933050D01*
X341687Y1932829D01*
X341010Y1932621D01*
X340933Y1932580D01*
X340851Y1932553D01*
X340239Y1932203D01*
X339616Y1931866D01*
X339549Y1931811D01*
X339474Y1931768D01*
X338940Y1931303D01*
X338398Y1930851D01*
X338344Y1930784D01*
X338278Y1930727D01*
X337845Y1930164D01*
X337404Y1929616D01*
X337364Y1929539D01*
X337311Y1929470D01*
X336713Y1928305D01*
X336110Y1926851D01*
X325983Y1916724D01*
X312751Y1911243D01*
X238430Y1911243D01*
G37*
%LPD*%
%LPC*%
G36*
X238430Y2111243D02*
X238430Y2111243D01*
X225198Y2116724D01*
X215070Y2126851D01*
X209590Y2140083D01*
X209590Y2154405D01*
X215070Y2167637D01*
X225198Y2177764D01*
X238430Y2183245D01*
X312751Y2183245D01*
X325983Y2177764D01*
X336110Y2167637D01*
X336713Y2166183D01*
X336754Y2166106D01*
X336781Y2166024D01*
X337127Y2165409D01*
X337461Y2164786D01*
X337517Y2164719D01*
X337559Y2164643D01*
X338020Y2164109D01*
X338471Y2163563D01*
X338538Y2163509D01*
X338595Y2163443D01*
X339153Y2163010D01*
X339702Y2162564D01*
X339779Y2162524D01*
X339847Y2162471D01*
X340479Y2162156D01*
X341106Y2161828D01*
X341189Y2161803D01*
X341267Y2161764D01*
X341949Y2161580D01*
X342627Y2161382D01*
X342714Y2161375D01*
X342797Y2161352D01*
X344103Y2161245D01*
X715024Y2161245D01*
X715093Y2161252D01*
X715162Y2161246D01*
X715880Y2161330D01*
X716601Y2161402D01*
X716667Y2161422D01*
X716736Y2161430D01*
X717423Y2161654D01*
X718117Y2161867D01*
X718178Y2161900D01*
X718244Y2161922D01*
X718872Y2162276D01*
X719511Y2162622D01*
X719564Y2162666D01*
X719625Y2162700D01*
X720173Y2163173D01*
X720729Y2163637D01*
X720772Y2163691D01*
X720825Y2163736D01*
X721270Y2164310D01*
X721722Y2164872D01*
X721754Y2164933D01*
X721797Y2164988D01*
X722120Y2165638D01*
X722453Y2166279D01*
X722472Y2166345D01*
X722503Y2166408D01*
X722692Y2167109D01*
X722892Y2167802D01*
X722898Y2167871D01*
X722916Y2167938D01*
X723023Y2169244D01*
X723023Y2170945D01*
X728808Y2184911D01*
X739498Y2195601D01*
X753465Y2201386D01*
X768582Y2201386D01*
X782549Y2195601D01*
X793239Y2184911D01*
X799024Y2170945D01*
X799024Y2155827D01*
X793239Y2141860D01*
X782549Y2131170D01*
X768582Y2125385D01*
X753465Y2125385D01*
X739413Y2131206D01*
X739074Y2131468D01*
X738542Y2131905D01*
X738449Y2131953D01*
X738367Y2132017D01*
X737751Y2132324D01*
X737141Y2132647D01*
X737042Y2132677D01*
X736948Y2132724D01*
X736282Y2132903D01*
X735622Y2133100D01*
X735518Y2133109D01*
X735417Y2133136D01*
X734112Y2133243D01*
X344103Y2133243D01*
X344017Y2133235D01*
X343930Y2133242D01*
X343227Y2133156D01*
X342525Y2133086D01*
X342443Y2133061D01*
X342356Y2133050D01*
X341687Y2132829D01*
X341010Y2132621D01*
X340933Y2132580D01*
X340851Y2132553D01*
X340239Y2132203D01*
X339616Y2131866D01*
X339549Y2131811D01*
X339474Y2131768D01*
X338940Y2131303D01*
X338398Y2130851D01*
X338344Y2130784D01*
X338278Y2130727D01*
X337845Y2130164D01*
X337404Y2129616D01*
X337364Y2129539D01*
X337311Y2129470D01*
X336713Y2128305D01*
X336110Y2126851D01*
X325983Y2116724D01*
X312751Y2111243D01*
X238430Y2111243D01*
G37*
%LPD*%
%LPC*%
G36*
X238430Y2011243D02*
X238430Y2011243D01*
X225198Y2016724D01*
X215070Y2026851D01*
X209590Y2040083D01*
X209590Y2054405D01*
X215070Y2067637D01*
X225198Y2077764D01*
X238430Y2083245D01*
X312751Y2083245D01*
X325983Y2077764D01*
X336110Y2067637D01*
X336713Y2066183D01*
X336754Y2066106D01*
X336781Y2066024D01*
X337127Y2065409D01*
X337461Y2064786D01*
X337517Y2064719D01*
X337559Y2064643D01*
X338020Y2064109D01*
X338471Y2063563D01*
X338538Y2063509D01*
X338595Y2063443D01*
X339153Y2063010D01*
X339702Y2062564D01*
X339779Y2062524D01*
X339847Y2062471D01*
X340479Y2062156D01*
X341106Y2061828D01*
X341189Y2061803D01*
X341267Y2061764D01*
X341949Y2061580D01*
X342627Y2061382D01*
X342714Y2061375D01*
X342797Y2061352D01*
X344103Y2061245D01*
X715024Y2061245D01*
X715093Y2061252D01*
X715162Y2061246D01*
X715880Y2061330D01*
X716601Y2061402D01*
X716667Y2061422D01*
X716736Y2061430D01*
X717423Y2061654D01*
X718117Y2061867D01*
X718178Y2061900D01*
X718244Y2061922D01*
X718872Y2062276D01*
X719511Y2062622D01*
X719564Y2062666D01*
X719625Y2062700D01*
X720173Y2063173D01*
X720729Y2063637D01*
X720772Y2063691D01*
X720825Y2063736D01*
X721270Y2064310D01*
X721722Y2064872D01*
X721754Y2064933D01*
X721797Y2064988D01*
X722120Y2065638D01*
X722453Y2066279D01*
X722472Y2066345D01*
X722503Y2066408D01*
X722692Y2067109D01*
X722892Y2067802D01*
X722898Y2067871D01*
X722916Y2067938D01*
X723023Y2069244D01*
X723023Y2070945D01*
X728808Y2084911D01*
X739498Y2095601D01*
X753465Y2101386D01*
X768582Y2101386D01*
X782549Y2095601D01*
X793239Y2084911D01*
X799024Y2070945D01*
X799024Y2055827D01*
X793239Y2041860D01*
X782549Y2031170D01*
X768582Y2025385D01*
X753465Y2025385D01*
X739413Y2031206D01*
X739074Y2031468D01*
X738542Y2031905D01*
X738449Y2031953D01*
X738367Y2032017D01*
X737751Y2032324D01*
X737141Y2032647D01*
X737042Y2032677D01*
X736948Y2032724D01*
X736282Y2032903D01*
X735622Y2033100D01*
X735518Y2033109D01*
X735417Y2033136D01*
X734112Y2033243D01*
X344103Y2033243D01*
X344017Y2033235D01*
X343930Y2033242D01*
X343227Y2033156D01*
X342525Y2033086D01*
X342443Y2033061D01*
X342356Y2033050D01*
X341687Y2032829D01*
X341010Y2032621D01*
X340933Y2032580D01*
X340851Y2032553D01*
X340239Y2032203D01*
X339616Y2031866D01*
X339549Y2031811D01*
X339474Y2031768D01*
X338940Y2031303D01*
X338398Y2030851D01*
X338344Y2030784D01*
X338278Y2030727D01*
X337845Y2030164D01*
X337404Y2029616D01*
X337364Y2029539D01*
X337311Y2029470D01*
X336713Y2028305D01*
X336110Y2026851D01*
X325983Y2016724D01*
X312751Y2011243D01*
X238430Y2011243D01*
G37*
%LPD*%
%LPC*%
G36*
X238430Y2211243D02*
X238430Y2211243D01*
X225198Y2216724D01*
X215070Y2226851D01*
X209590Y2240083D01*
X209590Y2254405D01*
X215070Y2267637D01*
X225198Y2277764D01*
X238430Y2283245D01*
X312751Y2283245D01*
X325983Y2277764D01*
X336110Y2267637D01*
X336713Y2266183D01*
X336754Y2266106D01*
X336781Y2266024D01*
X337127Y2265409D01*
X337461Y2264786D01*
X337517Y2264719D01*
X337559Y2264643D01*
X338020Y2264109D01*
X338471Y2263563D01*
X338538Y2263509D01*
X338595Y2263443D01*
X339153Y2263010D01*
X339702Y2262564D01*
X339779Y2262524D01*
X339847Y2262471D01*
X340479Y2262156D01*
X341106Y2261828D01*
X341189Y2261803D01*
X341267Y2261764D01*
X341949Y2261580D01*
X342627Y2261382D01*
X342714Y2261375D01*
X342797Y2261352D01*
X344103Y2261245D01*
X715024Y2261245D01*
X715093Y2261252D01*
X715162Y2261246D01*
X715880Y2261330D01*
X716601Y2261402D01*
X716667Y2261422D01*
X716736Y2261430D01*
X717423Y2261654D01*
X718117Y2261867D01*
X718178Y2261900D01*
X718244Y2261922D01*
X718872Y2262276D01*
X719511Y2262622D01*
X719564Y2262666D01*
X719625Y2262700D01*
X720172Y2263173D01*
X720729Y2263637D01*
X720772Y2263691D01*
X720825Y2263736D01*
X721270Y2264310D01*
X721722Y2264872D01*
X721754Y2264933D01*
X721797Y2264988D01*
X722120Y2265638D01*
X722453Y2266279D01*
X722472Y2266345D01*
X722503Y2266408D01*
X722692Y2267109D01*
X722892Y2267802D01*
X722898Y2267871D01*
X722916Y2267938D01*
X723023Y2269244D01*
X723023Y2270945D01*
X728808Y2284911D01*
X739498Y2295601D01*
X753465Y2301386D01*
X768582Y2301386D01*
X782549Y2295601D01*
X793239Y2284911D01*
X799024Y2270945D01*
X799024Y2255827D01*
X793239Y2241860D01*
X782549Y2231170D01*
X768582Y2225385D01*
X753465Y2225385D01*
X739413Y2231206D01*
X739074Y2231468D01*
X738542Y2231905D01*
X738449Y2231953D01*
X738367Y2232017D01*
X737751Y2232324D01*
X737141Y2232647D01*
X737042Y2232677D01*
X736948Y2232724D01*
X736282Y2232903D01*
X735622Y2233100D01*
X735518Y2233109D01*
X735417Y2233136D01*
X734112Y2233243D01*
X344103Y2233243D01*
X344017Y2233235D01*
X343930Y2233242D01*
X343227Y2233156D01*
X342525Y2233086D01*
X342443Y2233061D01*
X342356Y2233050D01*
X341687Y2232829D01*
X341010Y2232621D01*
X340933Y2232580D01*
X340851Y2232553D01*
X340239Y2232203D01*
X339616Y2231866D01*
X339549Y2231811D01*
X339474Y2231768D01*
X338940Y2231303D01*
X338398Y2230851D01*
X338344Y2230784D01*
X338278Y2230727D01*
X337845Y2230164D01*
X337404Y2229616D01*
X337364Y2229539D01*
X337311Y2229470D01*
X336713Y2228305D01*
X336110Y2226851D01*
X325983Y2216724D01*
X312751Y2211243D01*
X238430Y2211243D01*
G37*
%LPD*%
%LPC*%
G36*
X753465Y925385D02*
X753465Y925385D01*
X739498Y931170D01*
X728808Y941860D01*
X724801Y951534D01*
X724760Y951610D01*
X724733Y951693D01*
X724387Y952307D01*
X724052Y952931D01*
X723997Y952998D01*
X723955Y953073D01*
X723493Y953608D01*
X723043Y954153D01*
X722976Y954208D01*
X722919Y954273D01*
X722360Y954707D01*
X721812Y955152D01*
X721735Y955192D01*
X721667Y955246D01*
X721032Y955561D01*
X720408Y955889D01*
X720325Y955913D01*
X720247Y955952D01*
X719563Y956136D01*
X718887Y956334D01*
X718800Y956342D01*
X718717Y956364D01*
X717411Y956472D01*
X344103Y956472D01*
X344017Y956463D01*
X343930Y956470D01*
X343227Y956384D01*
X342525Y956315D01*
X342443Y956289D01*
X342356Y956279D01*
X341687Y956057D01*
X341010Y955850D01*
X340933Y955808D01*
X340851Y955781D01*
X340239Y955432D01*
X339616Y955095D01*
X339549Y955039D01*
X339474Y954996D01*
X338940Y954531D01*
X338398Y954080D01*
X338344Y954012D01*
X338278Y953955D01*
X337845Y953392D01*
X337404Y952844D01*
X337364Y952768D01*
X337311Y952699D01*
X336713Y951533D01*
X336110Y950080D01*
X325983Y939952D01*
X312751Y934472D01*
X238430Y934472D01*
X225198Y939952D01*
X215070Y950080D01*
X209590Y963311D01*
X209590Y977633D01*
X215070Y990865D01*
X225198Y1000992D01*
X238430Y1006473D01*
X312751Y1006473D01*
X325983Y1000992D01*
X336110Y990865D01*
X336713Y989411D01*
X336754Y989335D01*
X336781Y989252D01*
X337127Y988638D01*
X337461Y988014D01*
X337517Y987947D01*
X337559Y987871D01*
X338020Y987337D01*
X338471Y986792D01*
X338538Y986737D01*
X338595Y986671D01*
X339153Y986238D01*
X339702Y985793D01*
X339779Y985752D01*
X339847Y985699D01*
X340479Y985385D01*
X341106Y985056D01*
X341189Y985031D01*
X341267Y984993D01*
X341949Y984809D01*
X342627Y984610D01*
X342714Y984603D01*
X342797Y984580D01*
X344103Y984473D01*
X725056Y984473D01*
X725160Y984483D01*
X725264Y984476D01*
X725947Y984562D01*
X726634Y984630D01*
X726734Y984661D01*
X726837Y984674D01*
X727489Y984892D01*
X728149Y985095D01*
X728241Y985145D01*
X728340Y985178D01*
X728936Y985521D01*
X729544Y985850D01*
X729624Y985917D01*
X729714Y985969D01*
X730713Y986816D01*
X739498Y995601D01*
X753465Y1001386D01*
X768582Y1001386D01*
X782549Y995601D01*
X793239Y984911D01*
X799024Y970945D01*
X799024Y955827D01*
X793239Y941860D01*
X782549Y931170D01*
X768582Y925385D01*
X753465Y925385D01*
G37*
%LPD*%
%LPC*%
G36*
X753465Y1425385D02*
X753465Y1425385D01*
X739498Y1431170D01*
X728808Y1441860D01*
X724801Y1451534D01*
X724760Y1451610D01*
X724733Y1451693D01*
X724387Y1452307D01*
X724052Y1452931D01*
X723997Y1452998D01*
X723955Y1453073D01*
X723493Y1453608D01*
X723043Y1454153D01*
X722976Y1454208D01*
X722919Y1454273D01*
X722360Y1454707D01*
X721812Y1455152D01*
X721735Y1455192D01*
X721667Y1455246D01*
X721032Y1455561D01*
X720408Y1455889D01*
X720325Y1455913D01*
X720247Y1455952D01*
X719563Y1456136D01*
X718887Y1456334D01*
X718800Y1456342D01*
X718717Y1456364D01*
X717411Y1456472D01*
X344103Y1456472D01*
X344017Y1456463D01*
X343930Y1456470D01*
X343227Y1456384D01*
X342525Y1456315D01*
X342443Y1456289D01*
X342356Y1456279D01*
X341687Y1456057D01*
X341010Y1455850D01*
X340933Y1455808D01*
X340851Y1455781D01*
X340239Y1455432D01*
X339616Y1455095D01*
X339549Y1455039D01*
X339474Y1454996D01*
X338940Y1454531D01*
X338398Y1454080D01*
X338344Y1454012D01*
X338278Y1453955D01*
X337845Y1453392D01*
X337404Y1452844D01*
X337364Y1452768D01*
X337311Y1452699D01*
X336713Y1451533D01*
X336110Y1450080D01*
X325983Y1439952D01*
X312751Y1434472D01*
X238430Y1434472D01*
X225198Y1439952D01*
X215070Y1450080D01*
X209590Y1463311D01*
X209590Y1477633D01*
X215070Y1490865D01*
X225198Y1500992D01*
X238430Y1506473D01*
X312751Y1506473D01*
X325983Y1500992D01*
X336110Y1490865D01*
X336713Y1489411D01*
X336754Y1489335D01*
X336781Y1489252D01*
X337127Y1488638D01*
X337461Y1488014D01*
X337517Y1487947D01*
X337559Y1487871D01*
X338020Y1487337D01*
X338471Y1486792D01*
X338538Y1486737D01*
X338595Y1486671D01*
X339153Y1486238D01*
X339702Y1485793D01*
X339779Y1485752D01*
X339847Y1485699D01*
X340479Y1485385D01*
X341106Y1485056D01*
X341189Y1485031D01*
X341267Y1484993D01*
X341949Y1484809D01*
X342627Y1484610D01*
X342714Y1484603D01*
X342797Y1484580D01*
X344103Y1484473D01*
X725056Y1484473D01*
X725160Y1484483D01*
X725264Y1484476D01*
X725947Y1484562D01*
X726634Y1484630D01*
X726734Y1484661D01*
X726837Y1484674D01*
X727489Y1484892D01*
X728149Y1485095D01*
X728241Y1485145D01*
X728340Y1485178D01*
X728936Y1485521D01*
X729544Y1485850D01*
X729624Y1485917D01*
X729714Y1485969D01*
X730713Y1486816D01*
X739498Y1495601D01*
X753465Y1501386D01*
X768582Y1501386D01*
X782549Y1495601D01*
X793239Y1484911D01*
X799024Y1470945D01*
X799024Y1455827D01*
X793239Y1441860D01*
X782549Y1431170D01*
X768582Y1425385D01*
X753465Y1425385D01*
G37*
%LPD*%
%LPC*%
G36*
X753465Y1325385D02*
X753465Y1325385D01*
X739498Y1331170D01*
X728808Y1341860D01*
X724801Y1351534D01*
X724760Y1351610D01*
X724733Y1351693D01*
X724387Y1352307D01*
X724052Y1352931D01*
X723997Y1352998D01*
X723955Y1353073D01*
X723493Y1353608D01*
X723043Y1354153D01*
X722976Y1354208D01*
X722919Y1354273D01*
X722360Y1354707D01*
X721812Y1355152D01*
X721735Y1355192D01*
X721667Y1355246D01*
X721032Y1355561D01*
X720408Y1355889D01*
X720325Y1355913D01*
X720247Y1355952D01*
X719563Y1356136D01*
X718887Y1356334D01*
X718800Y1356342D01*
X718717Y1356364D01*
X717411Y1356472D01*
X344103Y1356472D01*
X344017Y1356463D01*
X343930Y1356470D01*
X343227Y1356384D01*
X342525Y1356315D01*
X342443Y1356289D01*
X342356Y1356279D01*
X341687Y1356057D01*
X341010Y1355850D01*
X340933Y1355808D01*
X340851Y1355781D01*
X340239Y1355432D01*
X339616Y1355095D01*
X339549Y1355039D01*
X339474Y1354996D01*
X338940Y1354531D01*
X338398Y1354080D01*
X338344Y1354012D01*
X338278Y1353955D01*
X337845Y1353392D01*
X337404Y1352844D01*
X337364Y1352768D01*
X337311Y1352699D01*
X336713Y1351533D01*
X336110Y1350080D01*
X325983Y1339952D01*
X312751Y1334472D01*
X238430Y1334472D01*
X225198Y1339952D01*
X215070Y1350080D01*
X209590Y1363311D01*
X209590Y1377633D01*
X215070Y1390865D01*
X225198Y1400992D01*
X238430Y1406473D01*
X312751Y1406473D01*
X325983Y1400992D01*
X336110Y1390865D01*
X336713Y1389411D01*
X336754Y1389335D01*
X336781Y1389252D01*
X337127Y1388638D01*
X337461Y1388014D01*
X337517Y1387947D01*
X337559Y1387871D01*
X338020Y1387337D01*
X338471Y1386792D01*
X338538Y1386737D01*
X338595Y1386671D01*
X339153Y1386238D01*
X339702Y1385793D01*
X339779Y1385752D01*
X339847Y1385699D01*
X340479Y1385385D01*
X341106Y1385056D01*
X341189Y1385031D01*
X341267Y1384993D01*
X341949Y1384809D01*
X342627Y1384610D01*
X342714Y1384603D01*
X342797Y1384580D01*
X344103Y1384473D01*
X725056Y1384473D01*
X725160Y1384483D01*
X725264Y1384476D01*
X725947Y1384562D01*
X726634Y1384630D01*
X726734Y1384661D01*
X726837Y1384674D01*
X727489Y1384892D01*
X728149Y1385095D01*
X728241Y1385145D01*
X728340Y1385178D01*
X728936Y1385521D01*
X729544Y1385850D01*
X729624Y1385917D01*
X729714Y1385969D01*
X730713Y1386816D01*
X739498Y1395601D01*
X753465Y1401386D01*
X768582Y1401386D01*
X782549Y1395601D01*
X793239Y1384911D01*
X799024Y1370945D01*
X799024Y1355827D01*
X793239Y1341860D01*
X782549Y1331170D01*
X768582Y1325385D01*
X753465Y1325385D01*
G37*
%LPD*%
%LPC*%
G36*
X753465Y1225385D02*
X753465Y1225385D01*
X739498Y1231170D01*
X728808Y1241860D01*
X724801Y1251534D01*
X724760Y1251610D01*
X724733Y1251693D01*
X724387Y1252307D01*
X724052Y1252931D01*
X723997Y1252998D01*
X723955Y1253073D01*
X723493Y1253608D01*
X723043Y1254153D01*
X722976Y1254208D01*
X722919Y1254273D01*
X722360Y1254707D01*
X721812Y1255152D01*
X721735Y1255192D01*
X721667Y1255246D01*
X721032Y1255561D01*
X720408Y1255889D01*
X720325Y1255913D01*
X720247Y1255952D01*
X719563Y1256136D01*
X718887Y1256334D01*
X718800Y1256342D01*
X718717Y1256364D01*
X717411Y1256472D01*
X344103Y1256472D01*
X344017Y1256463D01*
X343930Y1256470D01*
X343227Y1256384D01*
X342525Y1256315D01*
X342443Y1256289D01*
X342356Y1256279D01*
X341687Y1256057D01*
X341010Y1255850D01*
X340933Y1255808D01*
X340851Y1255781D01*
X340239Y1255432D01*
X339616Y1255095D01*
X339549Y1255039D01*
X339474Y1254996D01*
X338940Y1254531D01*
X338398Y1254080D01*
X338344Y1254012D01*
X338278Y1253955D01*
X337845Y1253392D01*
X337404Y1252844D01*
X337364Y1252768D01*
X337311Y1252699D01*
X336713Y1251533D01*
X336110Y1250080D01*
X325983Y1239952D01*
X312751Y1234472D01*
X238430Y1234472D01*
X225198Y1239952D01*
X215070Y1250080D01*
X209590Y1263311D01*
X209590Y1277633D01*
X215070Y1290865D01*
X225198Y1300992D01*
X238430Y1306473D01*
X312751Y1306473D01*
X325983Y1300992D01*
X336110Y1290865D01*
X336713Y1289411D01*
X336754Y1289335D01*
X336781Y1289252D01*
X337127Y1288638D01*
X337461Y1288014D01*
X337517Y1287947D01*
X337559Y1287871D01*
X338020Y1287337D01*
X338471Y1286792D01*
X338538Y1286737D01*
X338595Y1286671D01*
X339153Y1286238D01*
X339702Y1285793D01*
X339779Y1285752D01*
X339847Y1285699D01*
X340479Y1285385D01*
X341106Y1285056D01*
X341189Y1285031D01*
X341267Y1284993D01*
X341949Y1284809D01*
X342627Y1284610D01*
X342714Y1284603D01*
X342797Y1284580D01*
X344103Y1284473D01*
X725056Y1284473D01*
X725160Y1284483D01*
X725264Y1284476D01*
X725947Y1284562D01*
X726634Y1284630D01*
X726734Y1284661D01*
X726837Y1284674D01*
X727489Y1284892D01*
X728149Y1285095D01*
X728241Y1285145D01*
X728340Y1285178D01*
X728936Y1285521D01*
X729544Y1285850D01*
X729624Y1285917D01*
X729714Y1285969D01*
X730713Y1286816D01*
X739498Y1295601D01*
X753465Y1301386D01*
X768582Y1301386D01*
X782549Y1295601D01*
X793239Y1284911D01*
X799024Y1270945D01*
X799024Y1255827D01*
X793239Y1241860D01*
X782549Y1231170D01*
X768582Y1225385D01*
X753465Y1225385D01*
G37*
%LPD*%
%LPC*%
G36*
X753465Y1125385D02*
X753465Y1125385D01*
X739498Y1131170D01*
X728808Y1141860D01*
X724801Y1151534D01*
X724760Y1151610D01*
X724733Y1151693D01*
X724387Y1152307D01*
X724052Y1152931D01*
X723997Y1152998D01*
X723955Y1153073D01*
X723493Y1153608D01*
X723043Y1154153D01*
X722976Y1154208D01*
X722919Y1154273D01*
X722360Y1154707D01*
X721812Y1155152D01*
X721735Y1155192D01*
X721667Y1155246D01*
X721032Y1155561D01*
X720408Y1155889D01*
X720325Y1155913D01*
X720247Y1155952D01*
X719563Y1156136D01*
X718887Y1156334D01*
X718800Y1156342D01*
X718717Y1156364D01*
X717411Y1156472D01*
X344103Y1156472D01*
X344017Y1156463D01*
X343930Y1156470D01*
X343227Y1156384D01*
X342525Y1156315D01*
X342443Y1156289D01*
X342356Y1156279D01*
X341687Y1156057D01*
X341010Y1155850D01*
X340933Y1155808D01*
X340851Y1155781D01*
X340239Y1155432D01*
X339616Y1155095D01*
X339549Y1155039D01*
X339474Y1154996D01*
X338940Y1154531D01*
X338398Y1154080D01*
X338344Y1154012D01*
X338278Y1153955D01*
X337845Y1153392D01*
X337404Y1152844D01*
X337364Y1152768D01*
X337311Y1152699D01*
X336713Y1151533D01*
X336110Y1150080D01*
X325983Y1139952D01*
X312751Y1134472D01*
X238430Y1134472D01*
X225198Y1139952D01*
X215070Y1150080D01*
X209590Y1163311D01*
X209590Y1177633D01*
X215070Y1190865D01*
X225198Y1200992D01*
X238430Y1206473D01*
X312751Y1206473D01*
X325983Y1200992D01*
X336110Y1190865D01*
X336713Y1189411D01*
X336754Y1189335D01*
X336781Y1189252D01*
X337127Y1188638D01*
X337461Y1188014D01*
X337517Y1187947D01*
X337559Y1187871D01*
X338020Y1187337D01*
X338471Y1186792D01*
X338538Y1186737D01*
X338595Y1186671D01*
X339153Y1186238D01*
X339702Y1185793D01*
X339779Y1185752D01*
X339847Y1185699D01*
X340479Y1185385D01*
X341106Y1185056D01*
X341189Y1185031D01*
X341267Y1184993D01*
X341949Y1184809D01*
X342627Y1184610D01*
X342714Y1184603D01*
X342797Y1184580D01*
X344103Y1184473D01*
X725056Y1184473D01*
X725160Y1184483D01*
X725264Y1184476D01*
X725947Y1184562D01*
X726634Y1184630D01*
X726734Y1184661D01*
X726837Y1184674D01*
X727489Y1184892D01*
X728149Y1185095D01*
X728241Y1185145D01*
X728340Y1185178D01*
X728936Y1185521D01*
X729544Y1185850D01*
X729624Y1185917D01*
X729714Y1185969D01*
X730713Y1186816D01*
X739498Y1195601D01*
X753465Y1201386D01*
X768582Y1201386D01*
X782549Y1195601D01*
X793239Y1184911D01*
X799024Y1170945D01*
X799024Y1155827D01*
X793239Y1141860D01*
X782549Y1131170D01*
X768582Y1125385D01*
X753465Y1125385D01*
G37*
%LPD*%
%LPC*%
G36*
X753465Y1025385D02*
X753465Y1025385D01*
X739498Y1031170D01*
X728808Y1041860D01*
X724801Y1051534D01*
X724760Y1051610D01*
X724733Y1051693D01*
X724387Y1052307D01*
X724052Y1052931D01*
X723997Y1052998D01*
X723955Y1053073D01*
X723493Y1053608D01*
X723043Y1054153D01*
X722976Y1054208D01*
X722919Y1054273D01*
X722360Y1054707D01*
X721812Y1055152D01*
X721735Y1055192D01*
X721667Y1055246D01*
X721032Y1055561D01*
X720408Y1055889D01*
X720325Y1055913D01*
X720247Y1055952D01*
X719563Y1056136D01*
X718887Y1056334D01*
X718800Y1056342D01*
X718717Y1056364D01*
X717411Y1056472D01*
X344103Y1056472D01*
X344017Y1056463D01*
X343930Y1056470D01*
X343227Y1056384D01*
X342525Y1056315D01*
X342443Y1056289D01*
X342356Y1056279D01*
X341687Y1056057D01*
X341010Y1055850D01*
X340933Y1055808D01*
X340851Y1055781D01*
X340239Y1055432D01*
X339616Y1055095D01*
X339549Y1055039D01*
X339474Y1054996D01*
X338940Y1054531D01*
X338398Y1054080D01*
X338344Y1054012D01*
X338278Y1053955D01*
X337845Y1053392D01*
X337404Y1052844D01*
X337364Y1052768D01*
X337311Y1052699D01*
X336713Y1051533D01*
X336110Y1050080D01*
X325983Y1039952D01*
X312751Y1034472D01*
X238430Y1034472D01*
X225198Y1039952D01*
X215070Y1050080D01*
X209590Y1063311D01*
X209590Y1077633D01*
X215070Y1090865D01*
X225198Y1100992D01*
X238430Y1106473D01*
X312751Y1106473D01*
X325983Y1100992D01*
X336110Y1090865D01*
X336713Y1089411D01*
X336754Y1089335D01*
X336781Y1089252D01*
X337127Y1088638D01*
X337461Y1088014D01*
X337517Y1087947D01*
X337559Y1087871D01*
X338020Y1087337D01*
X338471Y1086792D01*
X338538Y1086737D01*
X338595Y1086671D01*
X339153Y1086238D01*
X339702Y1085793D01*
X339779Y1085752D01*
X339847Y1085699D01*
X340479Y1085385D01*
X341106Y1085056D01*
X341189Y1085031D01*
X341267Y1084993D01*
X341949Y1084809D01*
X342627Y1084610D01*
X342714Y1084603D01*
X342797Y1084580D01*
X344103Y1084473D01*
X725056Y1084473D01*
X725160Y1084483D01*
X725264Y1084476D01*
X725947Y1084562D01*
X726634Y1084630D01*
X726734Y1084661D01*
X726837Y1084674D01*
X727489Y1084892D01*
X728149Y1085095D01*
X728241Y1085145D01*
X728340Y1085178D01*
X728936Y1085521D01*
X729544Y1085850D01*
X729624Y1085917D01*
X729714Y1085969D01*
X730713Y1086816D01*
X739498Y1095601D01*
X753465Y1101386D01*
X768582Y1101386D01*
X782549Y1095601D01*
X793239Y1084911D01*
X799024Y1070945D01*
X799024Y1055827D01*
X793239Y1041860D01*
X782549Y1031170D01*
X768582Y1025385D01*
X753465Y1025385D01*
G37*
%LPD*%
%LPC*%
G36*
X1053465Y1825385D02*
X1053465Y1825385D01*
X1039498Y1831170D01*
X1028808Y1841860D01*
X1023023Y1855827D01*
X1023023Y1870945D01*
X1028808Y1884911D01*
X1039498Y1895601D01*
X1053465Y1901386D01*
X1068582Y1901386D01*
X1082549Y1895601D01*
X1093239Y1884911D01*
X1094310Y1882325D01*
X1094351Y1882248D01*
X1094378Y1882166D01*
X1094725Y1881551D01*
X1095059Y1880927D01*
X1095115Y1880860D01*
X1095157Y1880785D01*
X1095620Y1880249D01*
X1096069Y1879705D01*
X1096136Y1879651D01*
X1096193Y1879585D01*
X1096752Y1879151D01*
X1097300Y1878706D01*
X1097377Y1878665D01*
X1097445Y1878612D01*
X1098078Y1878297D01*
X1098703Y1877969D01*
X1098786Y1877945D01*
X1098864Y1877906D01*
X1099548Y1877722D01*
X1100225Y1877524D01*
X1100312Y1877516D01*
X1100395Y1877494D01*
X1101701Y1877386D01*
X1186556Y1877386D01*
X1186660Y1877397D01*
X1186764Y1877389D01*
X1187447Y1877475D01*
X1188134Y1877544D01*
X1188234Y1877574D01*
X1188337Y1877587D01*
X1188989Y1877806D01*
X1189650Y1878009D01*
X1189741Y1878058D01*
X1189840Y1878091D01*
X1190436Y1878435D01*
X1191044Y1878764D01*
X1191124Y1878830D01*
X1191214Y1878882D01*
X1192213Y1879729D01*
X1210954Y1898471D01*
X1211009Y1898538D01*
X1211075Y1898594D01*
X1211511Y1899151D01*
X1211958Y1899697D01*
X1211999Y1899773D01*
X1212053Y1899842D01*
X1212371Y1900475D01*
X1212701Y1901098D01*
X1212726Y1901181D01*
X1212765Y1901258D01*
X1212952Y1901940D01*
X1213153Y1902617D01*
X1213161Y1902704D01*
X1213184Y1902787D01*
X1213233Y1903490D01*
X1213297Y1904196D01*
X1213287Y1904283D01*
X1213293Y1904369D01*
X1213202Y1905067D01*
X1213126Y1905772D01*
X1213100Y1905855D01*
X1213089Y1905941D01*
X1212688Y1907188D01*
X1211499Y1910058D01*
X1211499Y1925375D01*
X1217361Y1939525D01*
X1228191Y1950356D01*
X1242342Y1956217D01*
X1257658Y1956217D01*
X1271809Y1950356D01*
X1282639Y1939525D01*
X1283828Y1936655D01*
X1283869Y1936579D01*
X1283896Y1936496D01*
X1284242Y1935883D01*
X1284577Y1935258D01*
X1284632Y1935191D01*
X1284675Y1935116D01*
X1285136Y1934581D01*
X1285586Y1934036D01*
X1285654Y1933981D01*
X1285711Y1933915D01*
X1286269Y1933482D01*
X1286817Y1933037D01*
X1286894Y1932996D01*
X1286963Y1932943D01*
X1287597Y1932628D01*
X1288221Y1932300D01*
X1288304Y1932276D01*
X1288382Y1932237D01*
X1289066Y1932053D01*
X1289743Y1931854D01*
X1289829Y1931847D01*
X1289913Y1931824D01*
X1291218Y1931717D01*
X1368004Y1931717D01*
X1380732Y1918989D01*
X1380812Y1918924D01*
X1380880Y1918844D01*
X1381427Y1918420D01*
X1381958Y1917985D01*
X1382050Y1917936D01*
X1382133Y1917872D01*
X1382750Y1917565D01*
X1383359Y1917242D01*
X1383459Y1917212D01*
X1383552Y1917166D01*
X1384217Y1916987D01*
X1384878Y1916790D01*
X1384982Y1916781D01*
X1385083Y1916754D01*
X1386388Y1916646D01*
X1408531Y1916646D01*
X1427276Y1897901D01*
X1427276Y1871391D01*
X1408531Y1852645D01*
X1382021Y1852645D01*
X1363275Y1871391D01*
X1363275Y1893533D01*
X1363265Y1893637D01*
X1363272Y1893741D01*
X1363186Y1894425D01*
X1363118Y1895110D01*
X1363087Y1895210D01*
X1363074Y1895313D01*
X1362855Y1895966D01*
X1362653Y1896626D01*
X1362603Y1896718D01*
X1362570Y1896816D01*
X1362226Y1897413D01*
X1361898Y1898020D01*
X1361831Y1898100D01*
X1361779Y1898190D01*
X1360932Y1899189D01*
X1358748Y1901373D01*
X1358668Y1901439D01*
X1358600Y1901518D01*
X1358054Y1901941D01*
X1357522Y1902377D01*
X1357430Y1902426D01*
X1357348Y1902490D01*
X1356729Y1902798D01*
X1356121Y1903120D01*
X1356022Y1903150D01*
X1355928Y1903196D01*
X1355261Y1903376D01*
X1354601Y1903572D01*
X1354498Y1903582D01*
X1354398Y1903609D01*
X1353092Y1903716D01*
X1291218Y1903716D01*
X1291132Y1903707D01*
X1291046Y1903714D01*
X1290344Y1903629D01*
X1289641Y1903559D01*
X1289558Y1903533D01*
X1289472Y1903523D01*
X1288802Y1903301D01*
X1288125Y1903094D01*
X1288049Y1903052D01*
X1287967Y1903025D01*
X1287352Y1902675D01*
X1286731Y1902339D01*
X1286665Y1902283D01*
X1286589Y1902240D01*
X1286056Y1901776D01*
X1285513Y1901324D01*
X1285459Y1901256D01*
X1285394Y1901199D01*
X1284962Y1900639D01*
X1284520Y1900089D01*
X1284480Y1900012D01*
X1284427Y1899943D01*
X1283828Y1898778D01*
X1282639Y1895908D01*
X1271809Y1885077D01*
X1257658Y1879216D01*
X1242342Y1879216D01*
X1239472Y1880405D01*
X1239388Y1880430D01*
X1239311Y1880469D01*
X1238633Y1880658D01*
X1237954Y1880863D01*
X1237868Y1880871D01*
X1237784Y1880895D01*
X1237079Y1880946D01*
X1236376Y1881013D01*
X1236290Y1881004D01*
X1236203Y1881011D01*
X1235502Y1880923D01*
X1234799Y1880850D01*
X1234716Y1880824D01*
X1234630Y1880813D01*
X1233962Y1880589D01*
X1233286Y1880378D01*
X1233209Y1880336D01*
X1233127Y1880309D01*
X1232516Y1879957D01*
X1231895Y1879617D01*
X1231828Y1879561D01*
X1231753Y1879518D01*
X1230754Y1878671D01*
X1201469Y1849385D01*
X1101701Y1849385D01*
X1101615Y1849376D01*
X1101528Y1849383D01*
X1100826Y1849298D01*
X1100123Y1849228D01*
X1100040Y1849203D01*
X1099954Y1849192D01*
X1099285Y1848971D01*
X1098608Y1848763D01*
X1098531Y1848721D01*
X1098449Y1848694D01*
X1097836Y1848345D01*
X1097214Y1848008D01*
X1097147Y1847952D01*
X1097071Y1847909D01*
X1096538Y1847445D01*
X1095996Y1846993D01*
X1095942Y1846926D01*
X1095876Y1846868D01*
X1095443Y1846306D01*
X1095002Y1845758D01*
X1094962Y1845681D01*
X1094909Y1845612D01*
X1094310Y1844447D01*
X1093239Y1841860D01*
X1082549Y1831170D01*
X1068582Y1825385D01*
X1053465Y1825385D01*
G37*
%LPD*%
%LPC*%
G36*
X1242342Y1679216D02*
X1242342Y1679216D01*
X1228191Y1685077D01*
X1217361Y1695908D01*
X1211499Y1710058D01*
X1211499Y1725375D01*
X1212688Y1728245D01*
X1212713Y1728328D01*
X1212752Y1728405D01*
X1212942Y1729085D01*
X1213147Y1729763D01*
X1213155Y1729849D01*
X1213178Y1729932D01*
X1213230Y1730638D01*
X1213297Y1731341D01*
X1213288Y1731427D01*
X1213294Y1731514D01*
X1213206Y1732215D01*
X1213133Y1732918D01*
X1213107Y1733000D01*
X1213096Y1733086D01*
X1212871Y1733757D01*
X1212661Y1734431D01*
X1212620Y1734507D01*
X1212592Y1734589D01*
X1212238Y1735204D01*
X1211900Y1735822D01*
X1211845Y1735888D01*
X1211801Y1735963D01*
X1210954Y1736962D01*
X1200874Y1747042D01*
X1200794Y1747108D01*
X1200726Y1747187D01*
X1200183Y1747608D01*
X1199648Y1748047D01*
X1199555Y1748096D01*
X1199474Y1748159D01*
X1198857Y1748466D01*
X1198247Y1748789D01*
X1198148Y1748819D01*
X1198054Y1748865D01*
X1197389Y1749045D01*
X1196728Y1749241D01*
X1196624Y1749251D01*
X1196523Y1749278D01*
X1195218Y1749385D01*
X1101701Y1749385D01*
X1101615Y1749376D01*
X1101528Y1749383D01*
X1100826Y1749298D01*
X1100123Y1749228D01*
X1100040Y1749203D01*
X1099954Y1749192D01*
X1099285Y1748971D01*
X1098608Y1748763D01*
X1098531Y1748721D01*
X1098449Y1748694D01*
X1097836Y1748345D01*
X1097214Y1748008D01*
X1097147Y1747952D01*
X1097071Y1747909D01*
X1096538Y1747445D01*
X1095996Y1746993D01*
X1095942Y1746926D01*
X1095876Y1746868D01*
X1095443Y1746306D01*
X1095002Y1745758D01*
X1094962Y1745681D01*
X1094909Y1745612D01*
X1094310Y1744447D01*
X1093239Y1741860D01*
X1082549Y1731170D01*
X1068582Y1725385D01*
X1053465Y1725385D01*
X1039498Y1731170D01*
X1028808Y1741860D01*
X1023023Y1755827D01*
X1023023Y1770945D01*
X1028808Y1784911D01*
X1039498Y1795601D01*
X1053465Y1801386D01*
X1068582Y1801386D01*
X1082549Y1795601D01*
X1093239Y1784911D01*
X1094310Y1782325D01*
X1094351Y1782248D01*
X1094378Y1782166D01*
X1094725Y1781551D01*
X1095059Y1780927D01*
X1095115Y1780860D01*
X1095157Y1780785D01*
X1095620Y1780249D01*
X1096069Y1779705D01*
X1096136Y1779651D01*
X1096193Y1779585D01*
X1096752Y1779151D01*
X1097300Y1778706D01*
X1097377Y1778665D01*
X1097445Y1778612D01*
X1098078Y1778297D01*
X1098703Y1777969D01*
X1098786Y1777945D01*
X1098864Y1777906D01*
X1099548Y1777722D01*
X1100225Y1777524D01*
X1100312Y1777516D01*
X1100395Y1777494D01*
X1101701Y1777386D01*
X1210130Y1777386D01*
X1230754Y1756762D01*
X1230821Y1756707D01*
X1230877Y1756641D01*
X1231434Y1756205D01*
X1231981Y1755758D01*
X1232057Y1755718D01*
X1232125Y1755664D01*
X1232755Y1755347D01*
X1233381Y1755015D01*
X1233465Y1754990D01*
X1233542Y1754952D01*
X1234220Y1754766D01*
X1234901Y1754563D01*
X1234987Y1754555D01*
X1235071Y1754532D01*
X1235773Y1754484D01*
X1236479Y1754420D01*
X1236566Y1754429D01*
X1236652Y1754423D01*
X1237350Y1754514D01*
X1238055Y1754590D01*
X1238138Y1754617D01*
X1238224Y1754628D01*
X1239471Y1755028D01*
X1242342Y1756217D01*
X1257658Y1756217D01*
X1271809Y1750356D01*
X1282639Y1739525D01*
X1283828Y1736655D01*
X1283869Y1736579D01*
X1283896Y1736496D01*
X1284242Y1735883D01*
X1284577Y1735258D01*
X1284632Y1735191D01*
X1284675Y1735116D01*
X1285136Y1734581D01*
X1285586Y1734036D01*
X1285654Y1733981D01*
X1285711Y1733915D01*
X1286269Y1733482D01*
X1286817Y1733037D01*
X1286894Y1732996D01*
X1286963Y1732943D01*
X1287597Y1732628D01*
X1288221Y1732300D01*
X1288304Y1732276D01*
X1288382Y1732237D01*
X1289066Y1732053D01*
X1289743Y1731854D01*
X1289829Y1731847D01*
X1289913Y1731824D01*
X1291218Y1731717D01*
X1358425Y1731717D01*
X1358494Y1731724D01*
X1358563Y1731718D01*
X1359282Y1731802D01*
X1360003Y1731874D01*
X1360069Y1731895D01*
X1360138Y1731903D01*
X1360825Y1732126D01*
X1361518Y1732339D01*
X1361580Y1732373D01*
X1361645Y1732394D01*
X1362273Y1732748D01*
X1362912Y1733094D01*
X1362966Y1733139D01*
X1363026Y1733173D01*
X1363574Y1733646D01*
X1364130Y1734109D01*
X1364174Y1734163D01*
X1364226Y1734209D01*
X1364672Y1734782D01*
X1365124Y1735344D01*
X1365156Y1735406D01*
X1365198Y1735461D01*
X1365522Y1736111D01*
X1365855Y1736751D01*
X1365874Y1736818D01*
X1365905Y1736880D01*
X1366094Y1737581D01*
X1366293Y1738275D01*
X1366299Y1738344D01*
X1366317Y1738411D01*
X1366424Y1739716D01*
X1366424Y1760105D01*
X1385170Y1778851D01*
X1411680Y1778851D01*
X1430426Y1760105D01*
X1430426Y1733595D01*
X1411680Y1714850D01*
X1389538Y1714850D01*
X1389434Y1714839D01*
X1389330Y1714847D01*
X1388647Y1714761D01*
X1387960Y1714693D01*
X1387861Y1714662D01*
X1387758Y1714649D01*
X1387105Y1714430D01*
X1386445Y1714227D01*
X1386353Y1714178D01*
X1386255Y1714145D01*
X1385657Y1713801D01*
X1385051Y1713473D01*
X1384971Y1713406D01*
X1384880Y1713354D01*
X1383881Y1712507D01*
X1375091Y1703716D01*
X1291218Y1703716D01*
X1291132Y1703707D01*
X1291046Y1703714D01*
X1290344Y1703629D01*
X1289641Y1703559D01*
X1289558Y1703533D01*
X1289472Y1703523D01*
X1288802Y1703301D01*
X1288125Y1703094D01*
X1288049Y1703052D01*
X1287967Y1703025D01*
X1287352Y1702675D01*
X1286731Y1702339D01*
X1286665Y1702283D01*
X1286589Y1702240D01*
X1286056Y1701776D01*
X1285513Y1701324D01*
X1285459Y1701256D01*
X1285394Y1701199D01*
X1284962Y1700639D01*
X1284520Y1700089D01*
X1284480Y1700012D01*
X1284427Y1699943D01*
X1283828Y1698778D01*
X1282639Y1695908D01*
X1271809Y1685077D01*
X1257658Y1679216D01*
X1242342Y1679216D01*
G37*
%LPD*%
%LPC*%
G36*
X1592760Y930535D02*
X1592760Y930535D01*
X1579529Y936015D01*
X1568502Y947042D01*
X1568421Y947108D01*
X1568353Y947187D01*
X1567808Y947610D01*
X1567275Y948047D01*
X1567183Y948095D01*
X1567101Y948159D01*
X1566484Y948466D01*
X1565875Y948789D01*
X1565775Y948819D01*
X1565682Y948865D01*
X1565017Y949045D01*
X1564355Y949241D01*
X1564251Y949251D01*
X1564151Y949278D01*
X1562845Y949385D01*
X1398348Y949385D01*
X1398244Y949375D01*
X1398141Y949382D01*
X1397457Y949296D01*
X1396770Y949228D01*
X1396671Y949197D01*
X1396568Y949184D01*
X1395916Y948966D01*
X1395255Y948763D01*
X1395163Y948713D01*
X1395065Y948680D01*
X1394468Y948337D01*
X1393861Y948008D01*
X1393781Y947941D01*
X1393691Y947890D01*
X1392692Y947042D01*
X1377034Y931385D01*
X1350524Y931385D01*
X1331779Y950131D01*
X1331779Y976641D01*
X1350524Y995386D01*
X1377034Y995386D01*
X1392692Y979729D01*
X1392772Y979663D01*
X1392840Y979585D01*
X1393385Y979161D01*
X1393918Y978725D01*
X1394010Y978676D01*
X1394092Y978612D01*
X1394709Y978305D01*
X1395319Y977982D01*
X1395418Y977953D01*
X1395512Y977906D01*
X1396176Y977727D01*
X1396838Y977530D01*
X1396942Y977521D01*
X1397042Y977494D01*
X1398348Y977386D01*
X1560104Y977386D01*
X1560190Y977395D01*
X1560277Y977388D01*
X1560979Y977474D01*
X1561682Y977544D01*
X1561765Y977569D01*
X1561851Y977579D01*
X1562521Y977801D01*
X1563197Y978009D01*
X1563273Y978050D01*
X1563356Y978077D01*
X1563970Y978427D01*
X1564591Y978764D01*
X1564658Y978819D01*
X1564733Y978862D01*
X1565266Y979326D01*
X1565809Y979778D01*
X1565864Y979846D01*
X1565929Y979903D01*
X1566360Y980464D01*
X1566803Y981014D01*
X1566843Y981090D01*
X1566896Y981159D01*
X1567494Y982325D01*
X1569401Y986928D01*
X1579529Y997055D01*
X1592760Y1002536D01*
X1667082Y1002536D01*
X1680314Y997055D01*
X1690441Y986928D01*
X1695922Y973696D01*
X1695922Y959374D01*
X1690441Y946143D01*
X1680314Y936015D01*
X1667082Y930535D01*
X1592760Y930535D01*
G37*
%LPD*%
%LPC*%
G36*
X1601322Y1766102D02*
X1601322Y1766102D01*
X1577576Y1775937D01*
X1559402Y1794112D01*
X1549566Y1817857D01*
X1549566Y1843560D01*
X1559402Y1867305D01*
X1577576Y1885480D01*
X1601322Y1895316D01*
X1627024Y1895316D01*
X1650770Y1885480D01*
X1668944Y1867305D01*
X1678780Y1843560D01*
X1678780Y1817857D01*
X1668944Y1794112D01*
X1650770Y1775937D01*
X1627024Y1766102D01*
X1601322Y1766102D01*
G37*
%LPD*%
%LPC*%
G36*
X115102Y1766102D02*
X115102Y1766102D01*
X91356Y1775937D01*
X73181Y1794112D01*
X63346Y1817857D01*
X63346Y1843560D01*
X73181Y1867305D01*
X91356Y1885480D01*
X115102Y1895316D01*
X140804Y1895316D01*
X164549Y1885480D01*
X182724Y1867305D01*
X192560Y1843560D01*
X192560Y1817857D01*
X182724Y1794112D01*
X164549Y1775937D01*
X140804Y1766102D01*
X115102Y1766102D01*
G37*
%LPD*%
%LPC*%
G36*
X115102Y466889D02*
X115102Y466889D01*
X91356Y476725D01*
X73181Y494899D01*
X63346Y518645D01*
X63346Y544347D01*
X73181Y568093D01*
X91356Y586267D01*
X115102Y596103D01*
X140804Y596103D01*
X164549Y586267D01*
X182724Y568093D01*
X192560Y544347D01*
X192560Y518645D01*
X182724Y494899D01*
X164549Y476725D01*
X140804Y466889D01*
X115102Y466889D01*
G37*
%LPD*%
%LPC*%
G36*
X1601322Y466889D02*
X1601322Y466889D01*
X1577576Y476725D01*
X1559402Y494899D01*
X1549566Y518645D01*
X1549566Y544347D01*
X1559402Y568093D01*
X1577576Y586267D01*
X1601322Y596103D01*
X1627024Y596103D01*
X1650770Y586267D01*
X1668944Y568093D01*
X1678780Y544347D01*
X1678780Y518645D01*
X1668944Y494899D01*
X1650770Y476725D01*
X1627024Y466889D01*
X1601322Y466889D01*
G37*
%LPD*%
%LPC*%
G36*
X309186Y649102D02*
X309186Y649102D01*
X290440Y667847D01*
X290440Y694357D01*
X306097Y710014D01*
X306163Y710095D01*
X306242Y710163D01*
X306665Y710708D01*
X307102Y711241D01*
X307150Y711333D01*
X307214Y711415D01*
X307521Y712032D01*
X307844Y712641D01*
X307874Y712741D01*
X307921Y712834D01*
X308100Y713499D01*
X308297Y714161D01*
X308306Y714265D01*
X308333Y714365D01*
X308440Y715671D01*
X308440Y771941D01*
X318984Y782484D01*
X318985Y782485D01*
X360538Y824039D01*
X360604Y824119D01*
X360683Y824187D01*
X361106Y824733D01*
X361543Y825266D01*
X361591Y825357D01*
X361655Y825440D01*
X361962Y826057D01*
X362285Y826666D01*
X362315Y826766D01*
X362361Y826859D01*
X362541Y827524D01*
X362737Y828186D01*
X362747Y828289D01*
X362774Y828390D01*
X362881Y829695D01*
X362881Y851838D01*
X381627Y870583D01*
X408137Y870583D01*
X426883Y851838D01*
X426883Y825328D01*
X408137Y806582D01*
X385994Y806582D01*
X385891Y806572D01*
X385787Y806579D01*
X385104Y806493D01*
X384417Y806425D01*
X384317Y806394D01*
X384214Y806381D01*
X383562Y806163D01*
X382901Y805960D01*
X382810Y805910D01*
X382711Y805877D01*
X382115Y805534D01*
X381507Y805205D01*
X381427Y805138D01*
X381337Y805086D01*
X380338Y804239D01*
X338784Y762685D01*
X338719Y762605D01*
X338640Y762537D01*
X338217Y761992D01*
X337780Y761459D01*
X337731Y761367D01*
X337668Y761285D01*
X337360Y760668D01*
X337037Y760058D01*
X337008Y759959D01*
X336961Y759865D01*
X336782Y759201D01*
X336585Y758539D01*
X336576Y758435D01*
X336549Y758335D01*
X336442Y757029D01*
X336442Y715671D01*
X336452Y715567D01*
X336444Y715463D01*
X336530Y714780D01*
X336599Y714093D01*
X336629Y713994D01*
X336642Y713891D01*
X336861Y713238D01*
X337064Y712578D01*
X337113Y712486D01*
X337146Y712388D01*
X337490Y711791D01*
X337819Y711184D01*
X337885Y711104D01*
X337937Y711014D01*
X338784Y710014D01*
X354442Y694357D01*
X354442Y667847D01*
X335696Y649102D01*
X309186Y649102D01*
G37*
%LPD*%
%LPC*%
G36*
X540288Y1556582D02*
X540288Y1556582D01*
X521543Y1575328D01*
X521543Y1601838D01*
X540288Y1620583D01*
X562430Y1620583D01*
X562534Y1620594D01*
X562638Y1620586D01*
X563321Y1620672D01*
X564008Y1620740D01*
X564108Y1620771D01*
X564211Y1620784D01*
X564863Y1621003D01*
X565524Y1621205D01*
X565615Y1621255D01*
X565714Y1621288D01*
X566310Y1621631D01*
X566918Y1621960D01*
X566998Y1622027D01*
X567088Y1622079D01*
X568087Y1622926D01*
X612790Y1667630D01*
X612856Y1667710D01*
X612935Y1667778D01*
X613358Y1668323D01*
X613795Y1668856D01*
X613843Y1668948D01*
X613907Y1669030D01*
X614214Y1669647D01*
X614537Y1670257D01*
X614567Y1670356D01*
X614613Y1670450D01*
X614792Y1671113D01*
X614989Y1671776D01*
X614999Y1671880D01*
X615026Y1671980D01*
X615133Y1673286D01*
X615133Y1694565D01*
X615123Y1694669D01*
X615130Y1694773D01*
X615044Y1695456D01*
X614976Y1696143D01*
X614945Y1696242D01*
X614932Y1696346D01*
X614714Y1696998D01*
X614511Y1697658D01*
X614461Y1697750D01*
X614428Y1697849D01*
X614085Y1698445D01*
X613756Y1699053D01*
X613689Y1699133D01*
X613638Y1699223D01*
X612790Y1700222D01*
X597133Y1715879D01*
X597133Y1742389D01*
X615879Y1761134D01*
X642389Y1761134D01*
X661134Y1742389D01*
X661134Y1715879D01*
X645477Y1700222D01*
X645411Y1700141D01*
X645333Y1700073D01*
X644909Y1699528D01*
X644473Y1698995D01*
X644424Y1698903D01*
X644360Y1698821D01*
X644053Y1698204D01*
X643730Y1697595D01*
X643701Y1697495D01*
X643654Y1697402D01*
X643475Y1696737D01*
X643278Y1696075D01*
X643269Y1695971D01*
X643242Y1695871D01*
X643134Y1694565D01*
X643134Y1658374D01*
X587887Y1603126D01*
X587821Y1603046D01*
X587742Y1602978D01*
X587319Y1602433D01*
X586883Y1601900D01*
X586834Y1601808D01*
X586770Y1601726D01*
X586463Y1601108D01*
X586140Y1600499D01*
X586110Y1600399D01*
X586064Y1600306D01*
X585884Y1599641D01*
X585688Y1598980D01*
X585678Y1598876D01*
X585651Y1598775D01*
X585544Y1597470D01*
X585544Y1575328D01*
X566798Y1556582D01*
X540288Y1556582D01*
G37*
%LPD*%
%LPC*%
G36*
X779982Y764503D02*
X779982Y764503D01*
X764178Y771050D01*
X752081Y783146D01*
X745535Y798950D01*
X745535Y816057D01*
X752081Y831862D01*
X764178Y843958D01*
X779982Y850505D01*
X797089Y850505D01*
X812893Y843958D01*
X824990Y831862D01*
X831536Y816057D01*
X831536Y798950D01*
X824990Y783146D01*
X812893Y771050D01*
X797089Y764503D01*
X779982Y764503D01*
G37*
%LPD*%
%LPC*%
G36*
X779982Y586503D02*
X779982Y586503D01*
X764178Y593050D01*
X752081Y605146D01*
X745535Y620950D01*
X745535Y638057D01*
X752081Y653862D01*
X764178Y665958D01*
X779982Y672505D01*
X797089Y672505D01*
X812893Y665958D01*
X824990Y653862D01*
X831536Y638057D01*
X831536Y620950D01*
X824990Y605146D01*
X812893Y593050D01*
X797089Y586503D01*
X779982Y586503D01*
G37*
%LPD*%
%LPC*%
G36*
X1359700Y243558D02*
X1359700Y243558D01*
X1359700Y321351D01*
X1370042Y318990D01*
X1380113Y315467D01*
X1389727Y310837D01*
X1398762Y305160D01*
X1407103Y298508D01*
X1414649Y290962D01*
X1421302Y282620D01*
X1426979Y273585D01*
X1431608Y263971D01*
X1435132Y253901D01*
X1437493Y243558D01*
X1359700Y243558D01*
G37*
%LPD*%
%LPC*%
G36*
X1241590Y428597D02*
X1241590Y428597D01*
X1241590Y506391D01*
X1251932Y504030D01*
X1262003Y500506D01*
X1271616Y495876D01*
X1280651Y490199D01*
X1288993Y483547D01*
X1296539Y476001D01*
X1303191Y467659D01*
X1308868Y458624D01*
X1313498Y449011D01*
X1317022Y438940D01*
X1319383Y428597D01*
X1241590Y428597D01*
G37*
%LPD*%
%LPC*%
G36*
X1249909Y243558D02*
X1249909Y243558D01*
X1252269Y253901D01*
X1255793Y263971D01*
X1260423Y273585D01*
X1266100Y282620D01*
X1272752Y290962D01*
X1280298Y298508D01*
X1288640Y305160D01*
X1297675Y310837D01*
X1307288Y315467D01*
X1317359Y318990D01*
X1327702Y321351D01*
X1327702Y243558D01*
X1249909Y243558D01*
G37*
%LPD*%
%LPC*%
G36*
X1241590Y396599D02*
X1241590Y396599D01*
X1319383Y396599D01*
X1317022Y386257D01*
X1313498Y376186D01*
X1308868Y366572D01*
X1303191Y357538D01*
X1296539Y349196D01*
X1288993Y341650D01*
X1280651Y334997D01*
X1271616Y329320D01*
X1262003Y324691D01*
X1251932Y321167D01*
X1241590Y318806D01*
X1241590Y396599D01*
G37*
%LPD*%
%LPC*%
G36*
X1131798Y428597D02*
X1131798Y428597D01*
X1134159Y438940D01*
X1137683Y449011D01*
X1142313Y458624D01*
X1147990Y467659D01*
X1154642Y476001D01*
X1162188Y483547D01*
X1170530Y490199D01*
X1179565Y495876D01*
X1189178Y500506D01*
X1199249Y504030D01*
X1209591Y506390D01*
X1209591Y428597D01*
X1131798Y428597D01*
G37*
%LPD*%
%LPC*%
G36*
X1359700Y211560D02*
X1359700Y211560D01*
X1437493Y211560D01*
X1435132Y201217D01*
X1431608Y191147D01*
X1426979Y181533D01*
X1421302Y172498D01*
X1414649Y164156D01*
X1407103Y156610D01*
X1398762Y149958D01*
X1389727Y144281D01*
X1380113Y139651D01*
X1370042Y136128D01*
X1359700Y133767D01*
X1359700Y211560D01*
G37*
%LPD*%
%LPC*%
G36*
X1199249Y321167D02*
X1199249Y321167D01*
X1189178Y324691D01*
X1179565Y329320D01*
X1170530Y334997D01*
X1162188Y341650D01*
X1154642Y349196D01*
X1147990Y357538D01*
X1142313Y366572D01*
X1137683Y376186D01*
X1134159Y386257D01*
X1131798Y396599D01*
X1209591Y396599D01*
X1209591Y318806D01*
X1199249Y321167D01*
G37*
%LPD*%
%LPC*%
G36*
X1317359Y136128D02*
X1317359Y136128D01*
X1307288Y139651D01*
X1297675Y144281D01*
X1288640Y149958D01*
X1280298Y156610D01*
X1272752Y164156D01*
X1266100Y172498D01*
X1260423Y181533D01*
X1255793Y191147D01*
X1252269Y201217D01*
X1249909Y211560D01*
X1327702Y211560D01*
X1327702Y133767D01*
X1317359Y136128D01*
G37*
%LPD*%
%LPC*%
G36*
X1639921Y1676535D02*
X1639921Y1676535D01*
X1639921Y1706536D01*
X1663070Y1706536D01*
X1669288Y1705551D01*
X1675276Y1703605D01*
X1680886Y1700747D01*
X1685980Y1697046D01*
X1690432Y1692594D01*
X1694133Y1687500D01*
X1696991Y1681891D01*
X1698731Y1676535D01*
X1639921Y1676535D01*
G37*
%LPD*%
%LPC*%
G36*
X1639921Y876535D02*
X1639921Y876535D01*
X1639921Y906536D01*
X1663070Y906536D01*
X1669288Y905551D01*
X1675276Y903605D01*
X1680886Y900747D01*
X1685980Y897046D01*
X1690432Y892594D01*
X1694133Y887500D01*
X1696991Y881891D01*
X1698731Y876535D01*
X1639921Y876535D01*
G37*
%LPD*%
%LPC*%
G36*
X401732Y386377D02*
X401732Y386377D01*
X401732Y416379D01*
X424881Y416379D01*
X431099Y415394D01*
X437087Y413448D01*
X442697Y410590D01*
X447791Y406889D01*
X452243Y402437D01*
X455944Y397342D01*
X458802Y391733D01*
X460542Y386377D01*
X401732Y386377D01*
G37*
%LPD*%
%LPC*%
G36*
X1462755Y777716D02*
X1462755Y777716D01*
X1462755Y807717D01*
X1485904Y807717D01*
X1492122Y806732D01*
X1498111Y804787D01*
X1503720Y801928D01*
X1508814Y798227D01*
X1513267Y793775D01*
X1516968Y788681D01*
X1519826Y783072D01*
X1521566Y777716D01*
X1462755Y777716D01*
G37*
%LPD*%
%LPC*%
G36*
X1561111Y1676535D02*
X1561111Y1676535D01*
X1562851Y1681891D01*
X1565709Y1687500D01*
X1569410Y1692594D01*
X1573863Y1697046D01*
X1578957Y1700747D01*
X1584566Y1703605D01*
X1590555Y1705551D01*
X1596773Y1706536D01*
X1619922Y1706536D01*
X1619922Y1676535D01*
X1561111Y1676535D01*
G37*
%LPD*%
%LPC*%
G36*
X1561111Y876535D02*
X1561111Y876535D01*
X1562851Y881891D01*
X1565709Y887500D01*
X1569410Y892594D01*
X1573863Y897046D01*
X1578957Y900747D01*
X1584566Y903605D01*
X1590555Y905551D01*
X1596773Y906536D01*
X1619922Y906536D01*
X1619922Y876535D01*
X1561111Y876535D01*
G37*
%LPD*%
%LPC*%
G36*
X322922Y386377D02*
X322922Y386377D01*
X324662Y391733D01*
X327520Y397342D01*
X331221Y402437D01*
X335674Y406889D01*
X340768Y410590D01*
X346377Y413448D01*
X352366Y415394D01*
X358584Y416379D01*
X381733Y416379D01*
X381733Y386377D01*
X322922Y386377D01*
G37*
%LPD*%
%LPC*%
G36*
X1383946Y777716D02*
X1383946Y777716D01*
X1385686Y783072D01*
X1388544Y788681D01*
X1392245Y793775D01*
X1396697Y798227D01*
X1401791Y801928D01*
X1407401Y804787D01*
X1413389Y806732D01*
X1419607Y807717D01*
X1442756Y807717D01*
X1442756Y777716D01*
X1383946Y777716D01*
G37*
%LPD*%
%LPC*%
G36*
X1462755Y727716D02*
X1462755Y727716D01*
X1462755Y757717D01*
X1521566Y757717D01*
X1519826Y752361D01*
X1516968Y746752D01*
X1513267Y741658D01*
X1508814Y737206D01*
X1503720Y733505D01*
X1498111Y730646D01*
X1492122Y728701D01*
X1485904Y727716D01*
X1462755Y727716D01*
G37*
%LPD*%
%LPC*%
G36*
X1639921Y826535D02*
X1639921Y826535D01*
X1639921Y856536D01*
X1698731Y856536D01*
X1696991Y851180D01*
X1694133Y845571D01*
X1690432Y840477D01*
X1685980Y836025D01*
X1680886Y832323D01*
X1675276Y829465D01*
X1669288Y827520D01*
X1663070Y826535D01*
X1639921Y826535D01*
G37*
%LPD*%
%LPC*%
G36*
X1639921Y1626535D02*
X1639921Y1626535D01*
X1639921Y1656536D01*
X1698731Y1656536D01*
X1696991Y1651180D01*
X1694133Y1645571D01*
X1690432Y1640477D01*
X1685980Y1636025D01*
X1680886Y1632323D01*
X1675276Y1629465D01*
X1669288Y1627520D01*
X1663070Y1626535D01*
X1639921Y1626535D01*
G37*
%LPD*%
%LPC*%
G36*
X401732Y336377D02*
X401732Y336377D01*
X401732Y366378D01*
X460542Y366378D01*
X458802Y361023D01*
X455944Y355414D01*
X452243Y350319D01*
X447791Y345867D01*
X442697Y342166D01*
X437087Y339308D01*
X431099Y337362D01*
X424881Y336377D01*
X401732Y336377D01*
G37*
%LPD*%
%LPC*%
G36*
X1596773Y1626535D02*
X1596773Y1626535D01*
X1590555Y1627520D01*
X1584566Y1629465D01*
X1578957Y1632323D01*
X1573863Y1636025D01*
X1569410Y1640477D01*
X1565709Y1645571D01*
X1562851Y1651180D01*
X1561111Y1656536D01*
X1619922Y1656536D01*
X1619922Y1626535D01*
X1596773Y1626535D01*
G37*
%LPD*%
%LPC*%
G36*
X358584Y336377D02*
X358584Y336377D01*
X352366Y337362D01*
X346377Y339308D01*
X340768Y342166D01*
X335674Y345867D01*
X331221Y350319D01*
X327520Y355414D01*
X324662Y361023D01*
X322922Y366378D01*
X381733Y366378D01*
X381733Y336377D01*
X358584Y336377D01*
G37*
%LPD*%
%LPC*%
G36*
X1596773Y826535D02*
X1596773Y826535D01*
X1590555Y827520D01*
X1584566Y829465D01*
X1578957Y832323D01*
X1573863Y836025D01*
X1569410Y840477D01*
X1565709Y845571D01*
X1562851Y851180D01*
X1561111Y856536D01*
X1619922Y856536D01*
X1619922Y826535D01*
X1596773Y826535D01*
G37*
%LPD*%
%LPC*%
G36*
X1419607Y727716D02*
X1419607Y727716D01*
X1413389Y728701D01*
X1407401Y730646D01*
X1401791Y733505D01*
X1396697Y737206D01*
X1392245Y741658D01*
X1388544Y746752D01*
X1385686Y752361D01*
X1383946Y757717D01*
X1442756Y757717D01*
X1442756Y727716D01*
X1419607Y727716D01*
G37*
%LPD*%
%LPC*%
G36*
X1054535Y639503D02*
X1054535Y639503D01*
X1054535Y675507D01*
X1055541Y675347D01*
X1062577Y673061D01*
X1069170Y669702D01*
X1075154Y665354D01*
X1080386Y660122D01*
X1084734Y654138D01*
X1088093Y647546D01*
X1090379Y640509D01*
X1090538Y639503D01*
X1054535Y639503D01*
G37*
%LPD*%
%LPC*%
G36*
X1054535Y619504D02*
X1054535Y619504D01*
X1090538Y619504D01*
X1090379Y618498D01*
X1088093Y611462D01*
X1084734Y604870D01*
X1080386Y598885D01*
X1075154Y593653D01*
X1069170Y589305D01*
X1062577Y585947D01*
X1055541Y583660D01*
X1054535Y583501D01*
X1054535Y619504D01*
G37*
%LPD*%
%LPC*%
G36*
X998532Y639503D02*
X998532Y639503D01*
X998692Y640509D01*
X1000978Y647546D01*
X1004337Y654138D01*
X1008685Y660122D01*
X1013917Y665354D01*
X1019901Y669702D01*
X1026493Y673061D01*
X1033530Y675347D01*
X1034536Y675507D01*
X1034536Y639503D01*
X998532Y639503D01*
G37*
%LPD*%
%LPC*%
G36*
X1033530Y583660D02*
X1033530Y583660D01*
X1026493Y585947D01*
X1019901Y589305D01*
X1013917Y593653D01*
X1008685Y598885D01*
X1004337Y604870D01*
X1000978Y611462D01*
X998692Y618498D01*
X998533Y619504D01*
X1034536Y619504D01*
X1034536Y583501D01*
X1033530Y583660D01*
G37*
%LPD*%
%LPC*%
G36*
X632803Y433590D02*
X632803Y433590D01*
X632803Y467091D01*
X641993Y467091D01*
X666304Y442781D01*
X666304Y433590D01*
X632803Y433590D01*
G37*
%LPD*%
%LPC*%
G36*
X640677Y147764D02*
X640677Y147764D01*
X640677Y181264D01*
X649867Y181264D01*
X674178Y156954D01*
X674178Y147764D01*
X640677Y147764D01*
G37*
%LPD*%
%LPC*%
G36*
X591176Y147764D02*
X591176Y147764D01*
X591176Y156954D01*
X615487Y181264D01*
X624677Y181264D01*
X624677Y147764D01*
X591176Y147764D01*
G37*
%LPD*%
%LPC*%
G36*
X583302Y433590D02*
X583302Y433590D01*
X583302Y442781D01*
X607613Y467091D01*
X616803Y467091D01*
X616803Y433590D01*
X583302Y433590D01*
G37*
%LPD*%
%LPC*%
G36*
X632803Y384090D02*
X632803Y384090D01*
X632803Y417591D01*
X666304Y417591D01*
X666304Y408400D01*
X641993Y384090D01*
X632803Y384090D01*
G37*
%LPD*%
%LPC*%
G36*
X640677Y98263D02*
X640677Y98263D01*
X640677Y131764D01*
X674178Y131764D01*
X674178Y122574D01*
X649867Y98263D01*
X640677Y98263D01*
G37*
%LPD*%
%LPC*%
G36*
X607613Y384090D02*
X607613Y384090D01*
X583302Y408400D01*
X583302Y417591D01*
X616803Y417591D01*
X616803Y384090D01*
X607613Y384090D01*
G37*
%LPD*%
%LPC*%
G36*
X615487Y98263D02*
X615487Y98263D01*
X591176Y122574D01*
X591176Y131764D01*
X624677Y131764D01*
X624677Y98263D01*
X615487Y98263D01*
G37*
%LPD*%
%LPC*%
G36*
X1069023Y1671386D02*
X1069023Y1671386D01*
X1069023Y1704643D01*
X1070859Y1704352D01*
X1077146Y1702309D01*
X1083037Y1699308D01*
X1088385Y1695422D01*
X1093060Y1690747D01*
X1096946Y1685399D01*
X1099947Y1679508D01*
X1101990Y1673221D01*
X1102281Y1671386D01*
X1069023Y1671386D01*
G37*
%LPD*%
%LPC*%
G36*
X769023Y1571386D02*
X769023Y1571386D01*
X769023Y1604643D01*
X770859Y1604352D01*
X777146Y1602309D01*
X783037Y1599308D01*
X788385Y1595422D01*
X793060Y1590747D01*
X796946Y1585399D01*
X799947Y1579508D01*
X801990Y1573221D01*
X802281Y1571386D01*
X769023Y1571386D01*
G37*
%LPD*%
%LPC*%
G36*
X1019766Y1671386D02*
X1019766Y1671386D01*
X1020057Y1673221D01*
X1022100Y1679508D01*
X1025102Y1685399D01*
X1028987Y1690747D01*
X1033662Y1695422D01*
X1039010Y1699308D01*
X1044901Y1702309D01*
X1051188Y1704352D01*
X1053024Y1704643D01*
X1053024Y1671386D01*
X1019766Y1671386D01*
G37*
%LPD*%
%LPC*%
G36*
X769023Y1555386D02*
X769023Y1555386D01*
X802281Y1555386D01*
X801990Y1553550D01*
X799947Y1547263D01*
X796946Y1541372D01*
X793060Y1536025D01*
X788385Y1531349D01*
X783037Y1527464D01*
X777146Y1524462D01*
X770859Y1522419D01*
X769023Y1522129D01*
X769023Y1555386D01*
G37*
%LPD*%
%LPC*%
G36*
X719766Y1571386D02*
X719766Y1571386D01*
X720057Y1573221D01*
X722100Y1579508D01*
X725102Y1585399D01*
X728987Y1590747D01*
X733662Y1595422D01*
X739010Y1599308D01*
X744901Y1602309D01*
X751188Y1604352D01*
X753024Y1604643D01*
X753024Y1571386D01*
X719766Y1571386D01*
G37*
%LPD*%
%LPC*%
G36*
X1069023Y1655386D02*
X1069023Y1655386D01*
X1102281Y1655386D01*
X1101990Y1653550D01*
X1099947Y1647263D01*
X1096946Y1641372D01*
X1093060Y1636025D01*
X1088385Y1631349D01*
X1083037Y1627464D01*
X1077146Y1624462D01*
X1070859Y1622419D01*
X1069023Y1622129D01*
X1069023Y1655386D01*
G37*
%LPD*%
%LPC*%
G36*
X1051188Y1622419D02*
X1051188Y1622419D01*
X1044901Y1624462D01*
X1039010Y1627464D01*
X1033662Y1631349D01*
X1028987Y1636025D01*
X1025102Y1641372D01*
X1022100Y1647263D01*
X1020057Y1653550D01*
X1019766Y1655386D01*
X1053024Y1655386D01*
X1053024Y1622129D01*
X1051188Y1622419D01*
G37*
%LPD*%
%LPC*%
G36*
X751188Y1522419D02*
X751188Y1522419D01*
X744901Y1524462D01*
X739010Y1527464D01*
X733662Y1531349D01*
X728987Y1536025D01*
X725102Y1541372D01*
X722100Y1547263D01*
X720057Y1553550D01*
X719766Y1555386D01*
X753024Y1555386D01*
X753024Y1522129D01*
X751188Y1522419D01*
G37*
%LPD*%
%LPC*%
G36*
X1503275Y1892645D02*
X1503275Y1892645D01*
X1503275Y1920646D01*
X1510187Y1920646D01*
X1531276Y1899557D01*
X1531276Y1892645D01*
X1503275Y1892645D01*
G37*
%LPD*%
%LPC*%
G36*
X502882Y846582D02*
X502882Y846582D01*
X502882Y874583D01*
X509794Y874583D01*
X530883Y853494D01*
X530883Y846582D01*
X502882Y846582D01*
G37*
%LPD*%
%LPC*%
G36*
X461543Y1596582D02*
X461543Y1596582D01*
X461543Y1624583D01*
X468455Y1624583D01*
X489544Y1603494D01*
X489544Y1596582D01*
X461543Y1596582D01*
G37*
%LPD*%
%LPC*%
G36*
X1506425Y1754850D02*
X1506425Y1754850D01*
X1506425Y1782851D01*
X1513337Y1782851D01*
X1534426Y1761762D01*
X1534426Y1754850D01*
X1506425Y1754850D01*
G37*
%LPD*%
%LPC*%
G36*
X1459275Y1892645D02*
X1459275Y1892645D01*
X1459275Y1899557D01*
X1480364Y1920646D01*
X1487276Y1920646D01*
X1487276Y1892645D01*
X1459275Y1892645D01*
G37*
%LPD*%
%LPC*%
G36*
X458881Y846582D02*
X458881Y846582D01*
X458881Y853494D01*
X479970Y874583D01*
X486882Y874583D01*
X486882Y846582D01*
X458881Y846582D01*
G37*
%LPD*%
%LPC*%
G36*
X417542Y1596582D02*
X417542Y1596582D01*
X417543Y1603494D01*
X438631Y1624583D01*
X445543Y1624583D01*
X445543Y1596582D01*
X417542Y1596582D01*
G37*
%LPD*%
%LPC*%
G36*
X1462424Y1754850D02*
X1462424Y1754850D01*
X1462424Y1761762D01*
X1483513Y1782851D01*
X1490425Y1782851D01*
X1490425Y1754850D01*
X1462424Y1754850D01*
G37*
%LPD*%
%LPC*%
G36*
X1506425Y1710850D02*
X1506425Y1710850D01*
X1506425Y1738850D01*
X1534426Y1738850D01*
X1534426Y1731938D01*
X1513337Y1710850D01*
X1506425Y1710850D01*
G37*
%LPD*%
%LPC*%
G36*
X1503275Y1848645D02*
X1503275Y1848645D01*
X1503275Y1876646D01*
X1531276Y1876646D01*
X1531276Y1869734D01*
X1510187Y1848645D01*
X1503275Y1848645D01*
G37*
%LPD*%
%LPC*%
G36*
X461543Y1552582D02*
X461543Y1552582D01*
X461543Y1580583D01*
X489544Y1580583D01*
X489544Y1573671D01*
X468455Y1552582D01*
X461543Y1552582D01*
G37*
%LPD*%
%LPC*%
G36*
X502882Y802582D02*
X502882Y802582D01*
X502882Y830583D01*
X530883Y830583D01*
X530883Y823671D01*
X509794Y802582D01*
X502882Y802582D01*
G37*
%LPD*%
%LPC*%
G36*
X438631Y1552582D02*
X438631Y1552582D01*
X417543Y1573671D01*
X417543Y1580583D01*
X445543Y1580583D01*
X445543Y1552582D01*
X438631Y1552582D01*
G37*
%LPD*%
%LPC*%
G36*
X479970Y802582D02*
X479970Y802582D01*
X458881Y823671D01*
X458881Y830583D01*
X486882Y830583D01*
X486882Y802582D01*
X479970Y802582D01*
G37*
%LPD*%
%LPC*%
G36*
X1483513Y1710850D02*
X1483513Y1710850D01*
X1462424Y1731938D01*
X1462424Y1738850D01*
X1490425Y1738850D01*
X1490425Y1710850D01*
X1483513Y1710850D01*
G37*
%LPD*%
%LPC*%
G36*
X1480364Y1848645D02*
X1480364Y1848645D01*
X1459275Y1869734D01*
X1459275Y1876646D01*
X1487276Y1876646D01*
X1487276Y1848645D01*
X1480364Y1848645D01*
G37*
%LPD*%
%LPC*%
G36*
X1225589Y412597D02*
X1225589Y412597D01*
X1225589Y412600D01*
X1225592Y412600D01*
X1225592Y412597D01*
X1225589Y412597D01*
G37*
%LPD*%
%LPC*%
G36*
X1343699Y227558D02*
X1343699Y227558D01*
X1343699Y227560D01*
X1343702Y227560D01*
X1343702Y227558D01*
X1343699Y227558D01*
G37*
%LPD*%
D10*
X632677Y139764D03*
D11*
X632677Y239764D03*
D10*
X624803Y425591D03*
D11*
X624803Y525591D03*
D12*
X1398425Y1746850D03*
X1498425Y1746850D03*
X1395276Y1884646D03*
X1495276Y1884646D03*
X1263780Y963386D03*
X1363780Y963386D03*
D13*
X421732Y276378D02*
X361732Y276378D01*
X361732Y376378D02*
X421732Y376378D01*
X421732Y476378D02*
X361732Y476378D01*
D14*
X1107480Y227559D03*
X1343701Y227559D03*
X1225591Y412598D03*
D15*
X553543Y1588583D03*
X453543Y1588583D03*
D16*
X1211811Y855118D03*
X1211811Y555118D03*
D15*
X629134Y1729134D03*
X329134Y1729134D03*
D17*
X1044535Y629504D03*
X788535Y629504D03*
X1044535Y807504D03*
X788535Y807504D03*
D18*
X1061024Y963386D03*
X1061024Y1063386D03*
X1061024Y1163386D03*
X1061024Y1263386D03*
X1061024Y1363386D03*
X1061024Y1463386D03*
X1061024Y1563386D03*
X1061024Y1663386D03*
X1061024Y1763386D03*
X1061024Y1863386D03*
X1061024Y1963386D03*
X1061024Y2063386D03*
X1061024Y2163386D03*
X1061024Y2263386D03*
X761024Y2263386D03*
X761024Y2163386D03*
X761024Y2063386D03*
X761024Y1963386D03*
X761024Y1863386D03*
X761024Y1763386D03*
X761024Y1663386D03*
X761024Y1563386D03*
X761024Y1463386D03*
X761024Y1363386D03*
X761024Y1263386D03*
X761024Y1163386D03*
X761024Y1063386D03*
X761024Y963386D03*
D19*
X1250000Y1917717D03*
X1250000Y1717717D03*
D13*
X1592047Y1964173D02*
X1652047Y1964173D01*
X1652047Y2064173D02*
X1592047Y2064173D01*
X1592047Y2164173D02*
X1652047Y2164173D01*
X1652047Y2264173D02*
X1592047Y2264173D01*
X305591Y1470472D02*
X245591Y1470472D01*
X245591Y1370472D02*
X305591Y1370472D01*
X305591Y1270472D02*
X245591Y1270472D01*
X245591Y1170472D02*
X305591Y1170472D01*
X305591Y1070472D02*
X245591Y1070472D01*
X245591Y970472D02*
X305591Y970472D01*
X305591Y2247244D02*
X245591Y2247244D01*
X245591Y2147244D02*
X305591Y2147244D01*
X305591Y2047244D02*
X245591Y2047244D01*
X245591Y1947244D02*
X305591Y1947244D01*
X305591Y1847244D02*
X245591Y1847244D01*
X1599921Y766535D02*
X1659921Y766535D01*
X1659921Y866535D02*
X1599921Y866535D01*
X1599921Y966535D02*
X1659921Y966535D01*
X1659921Y1066535D02*
X1599921Y1066535D01*
X1599921Y1166535D02*
X1659921Y1166535D01*
X1659921Y1266535D02*
X1599921Y1266535D01*
X1599921Y1366535D02*
X1659921Y1366535D01*
X1659921Y1466535D02*
X1599921Y1466535D01*
X1599921Y1566535D02*
X1659921Y1566535D01*
X1659921Y1666535D02*
X1599921Y1666535D01*
D12*
X322441Y681102D03*
X622441Y681102D03*
X394882Y838583D03*
X494882Y838583D03*
D20*
X909449Y240157D03*
X799213Y240157D03*
D13*
X1422756Y667717D02*
X1482756Y667717D01*
X1482756Y767717D02*
X1422756Y767717D01*
X1422756Y867717D02*
X1482756Y867717D01*
D21*
X799213Y240157D02*
X633071Y240157D01*
X632677Y239764D01*
X428346Y239764D01*
X391732Y276378D01*
X440945Y525591D02*
X624803Y525591D01*
X440945Y525591D02*
X391732Y476378D01*
D22*
X624803Y525591D02*
X624803Y678740D01*
X622441Y681102D01*
X1626772Y1563386D02*
X1629921Y1566535D01*
D21*
X917323Y525591D02*
X624803Y525591D01*
X917323Y525591D02*
X917323Y1562992D01*
X917323Y1665354D01*
X762992Y1665354D01*
X761024Y1663386D01*
X917717Y1563386D02*
X1061024Y1563386D01*
X917717Y1563386D02*
X917323Y1562992D01*
D23*
X1211811Y555118D02*
X1452756Y555118D01*
X1452756Y665354D02*
X1629921Y665354D01*
X1629921Y766535D01*
X1626772Y1563386D02*
X1061024Y1563386D01*
D21*
X1116142Y525591D02*
X917323Y525591D01*
X1116142Y525591D02*
X1145669Y555118D01*
X1211811Y555118D01*
D23*
X1452756Y665354D02*
X1452756Y667717D01*
X1452756Y665354D02*
X1452756Y555118D01*
D21*
X917323Y1665354D02*
X917323Y1763780D01*
X761417Y1763780D01*
X761024Y1763386D01*
D22*
X1061024Y1763386D02*
X1204331Y1763386D01*
X1250000Y1717717D01*
X1369291Y1717717D01*
X1398425Y1746850D01*
X1195669Y1863386D02*
X1061024Y1863386D01*
X1195669Y1863386D02*
X1250000Y1917717D01*
X1362205Y1917717D01*
X1395276Y1884646D01*
X1263780Y963386D02*
X1061024Y963386D01*
X1263780Y963386D02*
X1263780Y920079D01*
X1211811Y868110D01*
X1211811Y855118D01*
X1440157Y855118D01*
X1452756Y867717D01*
X1149189Y807504D02*
X1044535Y807504D01*
X1149189Y807504D02*
X1149606Y807087D01*
X1197638Y855118D02*
X1211811Y855118D01*
X1197638Y855118D02*
X1149606Y807087D01*
X744882Y1847244D02*
X275591Y1847244D01*
X744882Y1847244D02*
X761024Y1863386D01*
X329134Y1793701D02*
X275591Y1847244D01*
X329134Y1793701D02*
X329134Y1729134D01*
X553543Y1588583D02*
X629134Y1664173D01*
X629134Y1729134D01*
X1363780Y963386D02*
X1626772Y963386D01*
X1629921Y966535D01*
X1626772Y1063386D02*
X1061024Y1063386D01*
X1626772Y1063386D02*
X1629921Y1066535D01*
X1626772Y1163386D02*
X1061024Y1163386D01*
X1626772Y1163386D02*
X1629921Y1166535D01*
X753937Y1470472D02*
X275591Y1470472D01*
X753937Y1470472D02*
X761024Y1463386D01*
X753937Y1370472D02*
X275591Y1370472D01*
X753937Y1370472D02*
X761024Y1363386D01*
X753937Y1270472D02*
X275591Y1270472D01*
X753937Y1270472D02*
X761024Y1263386D01*
X753937Y1170472D02*
X275591Y1170472D01*
X753937Y1170472D02*
X761024Y1163386D01*
X753937Y1070472D02*
X275591Y1070472D01*
X753937Y1070472D02*
X761024Y1063386D01*
X753937Y970472D02*
X275591Y970472D01*
X753937Y970472D02*
X761024Y963386D01*
X1061024Y1263386D02*
X1626772Y1263386D01*
X1629921Y1266535D01*
X1626772Y1363386D02*
X1061024Y1363386D01*
X1626772Y1363386D02*
X1629921Y1366535D01*
X1626772Y1463386D02*
X1061024Y1463386D01*
X1626772Y1463386D02*
X1629921Y1466535D01*
X1617323Y1959449D02*
X1622047Y1964173D01*
X1093701Y1996063D02*
X1061024Y1963386D01*
X1580709Y1996063D02*
X1617323Y1959449D01*
X1580709Y1996063D02*
X1093701Y1996063D01*
X1061024Y2063386D02*
X1621260Y2063386D01*
X1622047Y2064173D01*
X1621260Y2163386D02*
X1061024Y2163386D01*
X1621260Y2163386D02*
X1622047Y2164173D01*
X1621260Y2263386D02*
X1061024Y2263386D01*
X1621260Y2263386D02*
X1622047Y2264173D01*
X744882Y2247244D02*
X275591Y2247244D01*
X744882Y2247244D02*
X761024Y2263386D01*
X744882Y2147244D02*
X275591Y2147244D01*
X744882Y2147244D02*
X761024Y2163386D01*
X744882Y2047244D02*
X275591Y2047244D01*
X744882Y2047244D02*
X761024Y2063386D01*
X744882Y1947244D02*
X275591Y1947244D01*
X744882Y1947244D02*
X761024Y1963386D01*
X322441Y766142D02*
X322441Y681102D01*
X322441Y766142D02*
X394882Y838583D01*
D21*
X922047Y227559D02*
X1107480Y227559D01*
X922047Y227559D02*
X909449Y240157D01*
M02*
