G04 EAGLE Gerber X2 export*
%TF.Part,Single*%
%TF.FileFunction,Profile,NP*%
%TF.FilePolarity,Positive*%
%TF.GenerationSoftware,Autodesk,EAGLE,9.6.2*%
%TF.CreationDate,2022-02-28T03:59:25Z*%
G75*
%MOIN*%
%FSLAX36Y36*%
%LPD*%
%INBoard Outline*%
%AMOC8*
5,1,8,0,0,1.08239X$1,22.5*%
G01*
%ADD10C,0.000000*%
%ADD11C,0.010000*%


D10*
X0Y0D02*
X1771654Y0D01*
X1771654Y2362205D01*
X0Y2362205D01*
X0Y0D01*
X1589567Y531496D02*
X1589574Y532100D01*
X1589597Y532703D01*
X1589634Y533306D01*
X1589685Y533908D01*
X1589752Y534508D01*
X1589833Y535106D01*
X1589929Y535703D01*
X1590040Y536296D01*
X1590165Y536887D01*
X1590304Y537475D01*
X1590458Y538059D01*
X1590627Y538639D01*
X1590809Y539214D01*
X1591005Y539786D01*
X1591216Y540352D01*
X1591440Y540912D01*
X1591678Y541467D01*
X1591929Y542016D01*
X1592194Y542559D01*
X1592472Y543095D01*
X1592764Y543624D01*
X1593068Y544146D01*
X1593385Y544660D01*
X1593714Y545166D01*
X1594056Y545664D01*
X1594409Y546154D01*
X1594775Y546634D01*
X1595152Y547106D01*
X1595541Y547568D01*
X1595941Y548020D01*
X1596352Y548463D01*
X1596774Y548895D01*
X1597206Y549317D01*
X1597649Y549728D01*
X1598101Y550128D01*
X1598563Y550517D01*
X1599035Y550894D01*
X1599515Y551260D01*
X1600005Y551613D01*
X1600503Y551955D01*
X1601009Y552284D01*
X1601523Y552601D01*
X1602045Y552905D01*
X1602574Y553197D01*
X1603110Y553475D01*
X1603653Y553740D01*
X1604202Y553991D01*
X1604757Y554229D01*
X1605317Y554453D01*
X1605883Y554664D01*
X1606455Y554860D01*
X1607030Y555042D01*
X1607610Y555211D01*
X1608194Y555365D01*
X1608782Y555504D01*
X1609373Y555629D01*
X1609966Y555740D01*
X1610563Y555836D01*
X1611161Y555917D01*
X1611761Y555984D01*
X1612363Y556035D01*
X1612966Y556072D01*
X1613569Y556095D01*
X1614173Y556102D01*
X1614777Y556095D01*
X1615380Y556072D01*
X1615983Y556035D01*
X1616585Y555984D01*
X1617185Y555917D01*
X1617783Y555836D01*
X1618380Y555740D01*
X1618973Y555629D01*
X1619564Y555504D01*
X1620152Y555365D01*
X1620736Y555211D01*
X1621316Y555042D01*
X1621891Y554860D01*
X1622463Y554664D01*
X1623029Y554453D01*
X1623589Y554229D01*
X1624144Y553991D01*
X1624693Y553740D01*
X1625236Y553475D01*
X1625772Y553197D01*
X1626301Y552905D01*
X1626823Y552601D01*
X1627337Y552284D01*
X1627843Y551955D01*
X1628341Y551613D01*
X1628831Y551260D01*
X1629311Y550894D01*
X1629783Y550517D01*
X1630245Y550128D01*
X1630697Y549728D01*
X1631140Y549317D01*
X1631572Y548895D01*
X1631994Y548463D01*
X1632405Y548020D01*
X1632805Y547568D01*
X1633194Y547106D01*
X1633571Y546634D01*
X1633937Y546154D01*
X1634290Y545664D01*
X1634632Y545166D01*
X1634961Y544660D01*
X1635278Y544146D01*
X1635582Y543624D01*
X1635874Y543095D01*
X1636152Y542559D01*
X1636417Y542016D01*
X1636668Y541467D01*
X1636906Y540912D01*
X1637130Y540352D01*
X1637341Y539786D01*
X1637537Y539214D01*
X1637719Y538639D01*
X1637888Y538059D01*
X1638042Y537475D01*
X1638181Y536887D01*
X1638306Y536296D01*
X1638417Y535703D01*
X1638513Y535106D01*
X1638594Y534508D01*
X1638661Y533908D01*
X1638712Y533306D01*
X1638749Y532703D01*
X1638772Y532100D01*
X1638779Y531496D01*
X1638772Y530892D01*
X1638749Y530289D01*
X1638712Y529686D01*
X1638661Y529084D01*
X1638594Y528484D01*
X1638513Y527886D01*
X1638417Y527289D01*
X1638306Y526696D01*
X1638181Y526105D01*
X1638042Y525517D01*
X1637888Y524933D01*
X1637719Y524353D01*
X1637537Y523778D01*
X1637341Y523206D01*
X1637130Y522640D01*
X1636906Y522080D01*
X1636668Y521525D01*
X1636417Y520976D01*
X1636152Y520433D01*
X1635874Y519897D01*
X1635582Y519368D01*
X1635278Y518846D01*
X1634961Y518332D01*
X1634632Y517826D01*
X1634290Y517328D01*
X1633937Y516838D01*
X1633571Y516358D01*
X1633194Y515886D01*
X1632805Y515424D01*
X1632405Y514972D01*
X1631994Y514529D01*
X1631572Y514097D01*
X1631140Y513675D01*
X1630697Y513264D01*
X1630245Y512864D01*
X1629783Y512475D01*
X1629311Y512098D01*
X1628831Y511732D01*
X1628341Y511379D01*
X1627843Y511037D01*
X1627337Y510708D01*
X1626823Y510391D01*
X1626301Y510087D01*
X1625772Y509795D01*
X1625236Y509517D01*
X1624693Y509252D01*
X1624144Y509001D01*
X1623589Y508763D01*
X1623029Y508539D01*
X1622463Y508328D01*
X1621891Y508132D01*
X1621316Y507950D01*
X1620736Y507781D01*
X1620152Y507627D01*
X1619564Y507488D01*
X1618973Y507363D01*
X1618380Y507252D01*
X1617783Y507156D01*
X1617185Y507075D01*
X1616585Y507008D01*
X1615983Y506957D01*
X1615380Y506920D01*
X1614777Y506897D01*
X1614173Y506890D01*
X1613569Y506897D01*
X1612966Y506920D01*
X1612363Y506957D01*
X1611761Y507008D01*
X1611161Y507075D01*
X1610563Y507156D01*
X1609966Y507252D01*
X1609373Y507363D01*
X1608782Y507488D01*
X1608194Y507627D01*
X1607610Y507781D01*
X1607030Y507950D01*
X1606455Y508132D01*
X1605883Y508328D01*
X1605317Y508539D01*
X1604757Y508763D01*
X1604202Y509001D01*
X1603653Y509252D01*
X1603110Y509517D01*
X1602574Y509795D01*
X1602045Y510087D01*
X1601523Y510391D01*
X1601009Y510708D01*
X1600503Y511037D01*
X1600005Y511379D01*
X1599515Y511732D01*
X1599035Y512098D01*
X1598563Y512475D01*
X1598101Y512864D01*
X1597649Y513264D01*
X1597206Y513675D01*
X1596774Y514097D01*
X1596352Y514529D01*
X1595941Y514972D01*
X1595541Y515424D01*
X1595152Y515886D01*
X1594775Y516358D01*
X1594409Y516838D01*
X1594056Y517328D01*
X1593714Y517826D01*
X1593385Y518332D01*
X1593068Y518846D01*
X1592764Y519368D01*
X1592472Y519897D01*
X1592194Y520433D01*
X1591929Y520976D01*
X1591678Y521525D01*
X1591440Y522080D01*
X1591216Y522640D01*
X1591005Y523206D01*
X1590809Y523778D01*
X1590627Y524353D01*
X1590458Y524933D01*
X1590304Y525517D01*
X1590165Y526105D01*
X1590040Y526696D01*
X1589929Y527289D01*
X1589833Y527886D01*
X1589752Y528484D01*
X1589685Y529084D01*
X1589634Y529686D01*
X1589597Y530289D01*
X1589574Y530892D01*
X1589567Y531496D01*
X103347Y1830709D02*
X103354Y1831313D01*
X103377Y1831916D01*
X103414Y1832519D01*
X103465Y1833121D01*
X103532Y1833721D01*
X103613Y1834319D01*
X103709Y1834916D01*
X103820Y1835509D01*
X103945Y1836100D01*
X104084Y1836688D01*
X104238Y1837272D01*
X104407Y1837852D01*
X104589Y1838427D01*
X104785Y1838999D01*
X104996Y1839565D01*
X105220Y1840125D01*
X105458Y1840680D01*
X105709Y1841229D01*
X105974Y1841772D01*
X106252Y1842308D01*
X106544Y1842837D01*
X106848Y1843359D01*
X107165Y1843873D01*
X107494Y1844379D01*
X107836Y1844877D01*
X108189Y1845367D01*
X108555Y1845847D01*
X108932Y1846319D01*
X109321Y1846781D01*
X109721Y1847233D01*
X110132Y1847676D01*
X110554Y1848108D01*
X110986Y1848530D01*
X111429Y1848941D01*
X111881Y1849341D01*
X112343Y1849730D01*
X112815Y1850107D01*
X113295Y1850473D01*
X113785Y1850826D01*
X114283Y1851168D01*
X114789Y1851497D01*
X115303Y1851814D01*
X115825Y1852118D01*
X116354Y1852410D01*
X116890Y1852688D01*
X117433Y1852953D01*
X117982Y1853204D01*
X118537Y1853442D01*
X119097Y1853666D01*
X119663Y1853877D01*
X120235Y1854073D01*
X120810Y1854255D01*
X121390Y1854424D01*
X121974Y1854578D01*
X122562Y1854717D01*
X123153Y1854842D01*
X123746Y1854953D01*
X124343Y1855049D01*
X124941Y1855130D01*
X125541Y1855197D01*
X126143Y1855248D01*
X126746Y1855285D01*
X127349Y1855308D01*
X127953Y1855315D01*
X128557Y1855308D01*
X129160Y1855285D01*
X129763Y1855248D01*
X130365Y1855197D01*
X130965Y1855130D01*
X131563Y1855049D01*
X132160Y1854953D01*
X132753Y1854842D01*
X133344Y1854717D01*
X133932Y1854578D01*
X134516Y1854424D01*
X135096Y1854255D01*
X135671Y1854073D01*
X136243Y1853877D01*
X136809Y1853666D01*
X137369Y1853442D01*
X137924Y1853204D01*
X138473Y1852953D01*
X139016Y1852688D01*
X139552Y1852410D01*
X140081Y1852118D01*
X140603Y1851814D01*
X141117Y1851497D01*
X141623Y1851168D01*
X142121Y1850826D01*
X142611Y1850473D01*
X143091Y1850107D01*
X143563Y1849730D01*
X144025Y1849341D01*
X144477Y1848941D01*
X144920Y1848530D01*
X145352Y1848108D01*
X145774Y1847676D01*
X146185Y1847233D01*
X146585Y1846781D01*
X146974Y1846319D01*
X147351Y1845847D01*
X147717Y1845367D01*
X148070Y1844877D01*
X148412Y1844379D01*
X148741Y1843873D01*
X149058Y1843359D01*
X149362Y1842837D01*
X149654Y1842308D01*
X149932Y1841772D01*
X150197Y1841229D01*
X150448Y1840680D01*
X150686Y1840125D01*
X150910Y1839565D01*
X151121Y1838999D01*
X151317Y1838427D01*
X151499Y1837852D01*
X151668Y1837272D01*
X151822Y1836688D01*
X151961Y1836100D01*
X152086Y1835509D01*
X152197Y1834916D01*
X152293Y1834319D01*
X152374Y1833721D01*
X152441Y1833121D01*
X152492Y1832519D01*
X152529Y1831916D01*
X152552Y1831313D01*
X152559Y1830709D01*
X152552Y1830105D01*
X152529Y1829502D01*
X152492Y1828899D01*
X152441Y1828297D01*
X152374Y1827697D01*
X152293Y1827099D01*
X152197Y1826502D01*
X152086Y1825909D01*
X151961Y1825318D01*
X151822Y1824730D01*
X151668Y1824146D01*
X151499Y1823566D01*
X151317Y1822991D01*
X151121Y1822419D01*
X150910Y1821853D01*
X150686Y1821293D01*
X150448Y1820738D01*
X150197Y1820189D01*
X149932Y1819646D01*
X149654Y1819110D01*
X149362Y1818581D01*
X149058Y1818059D01*
X148741Y1817545D01*
X148412Y1817039D01*
X148070Y1816541D01*
X147717Y1816051D01*
X147351Y1815571D01*
X146974Y1815099D01*
X146585Y1814637D01*
X146185Y1814185D01*
X145774Y1813742D01*
X145352Y1813310D01*
X144920Y1812888D01*
X144477Y1812477D01*
X144025Y1812077D01*
X143563Y1811688D01*
X143091Y1811311D01*
X142611Y1810945D01*
X142121Y1810592D01*
X141623Y1810250D01*
X141117Y1809921D01*
X140603Y1809604D01*
X140081Y1809300D01*
X139552Y1809008D01*
X139016Y1808730D01*
X138473Y1808465D01*
X137924Y1808214D01*
X137369Y1807976D01*
X136809Y1807752D01*
X136243Y1807541D01*
X135671Y1807345D01*
X135096Y1807163D01*
X134516Y1806994D01*
X133932Y1806840D01*
X133344Y1806701D01*
X132753Y1806576D01*
X132160Y1806465D01*
X131563Y1806369D01*
X130965Y1806288D01*
X130365Y1806221D01*
X129763Y1806170D01*
X129160Y1806133D01*
X128557Y1806110D01*
X127953Y1806103D01*
X127349Y1806110D01*
X126746Y1806133D01*
X126143Y1806170D01*
X125541Y1806221D01*
X124941Y1806288D01*
X124343Y1806369D01*
X123746Y1806465D01*
X123153Y1806576D01*
X122562Y1806701D01*
X121974Y1806840D01*
X121390Y1806994D01*
X120810Y1807163D01*
X120235Y1807345D01*
X119663Y1807541D01*
X119097Y1807752D01*
X118537Y1807976D01*
X117982Y1808214D01*
X117433Y1808465D01*
X116890Y1808730D01*
X116354Y1809008D01*
X115825Y1809300D01*
X115303Y1809604D01*
X114789Y1809921D01*
X114283Y1810250D01*
X113785Y1810592D01*
X113295Y1810945D01*
X112815Y1811311D01*
X112343Y1811688D01*
X111881Y1812077D01*
X111429Y1812477D01*
X110986Y1812888D01*
X110554Y1813310D01*
X110132Y1813742D01*
X109721Y1814185D01*
X109321Y1814637D01*
X108932Y1815099D01*
X108555Y1815571D01*
X108189Y1816051D01*
X107836Y1816541D01*
X107494Y1817039D01*
X107165Y1817545D01*
X106848Y1818059D01*
X106544Y1818581D01*
X106252Y1819110D01*
X105974Y1819646D01*
X105709Y1820189D01*
X105458Y1820738D01*
X105220Y1821293D01*
X104996Y1821853D01*
X104785Y1822419D01*
X104589Y1822991D01*
X104407Y1823566D01*
X104238Y1824146D01*
X104084Y1824730D01*
X103945Y1825318D01*
X103820Y1825909D01*
X103709Y1826502D01*
X103613Y1827099D01*
X103532Y1827697D01*
X103465Y1828297D01*
X103414Y1828899D01*
X103377Y1829502D01*
X103354Y1830105D01*
X103347Y1830709D01*
X1589567Y1830709D02*
X1589574Y1831313D01*
X1589597Y1831916D01*
X1589634Y1832519D01*
X1589685Y1833121D01*
X1589752Y1833721D01*
X1589833Y1834319D01*
X1589929Y1834916D01*
X1590040Y1835509D01*
X1590165Y1836100D01*
X1590304Y1836688D01*
X1590458Y1837272D01*
X1590627Y1837852D01*
X1590809Y1838427D01*
X1591005Y1838999D01*
X1591216Y1839565D01*
X1591440Y1840125D01*
X1591678Y1840680D01*
X1591929Y1841229D01*
X1592194Y1841772D01*
X1592472Y1842308D01*
X1592764Y1842837D01*
X1593068Y1843359D01*
X1593385Y1843873D01*
X1593714Y1844379D01*
X1594056Y1844877D01*
X1594409Y1845367D01*
X1594775Y1845847D01*
X1595152Y1846319D01*
X1595541Y1846781D01*
X1595941Y1847233D01*
X1596352Y1847676D01*
X1596774Y1848108D01*
X1597206Y1848530D01*
X1597649Y1848941D01*
X1598101Y1849341D01*
X1598563Y1849730D01*
X1599035Y1850107D01*
X1599515Y1850473D01*
X1600005Y1850826D01*
X1600503Y1851168D01*
X1601009Y1851497D01*
X1601523Y1851814D01*
X1602045Y1852118D01*
X1602574Y1852410D01*
X1603110Y1852688D01*
X1603653Y1852953D01*
X1604202Y1853204D01*
X1604757Y1853442D01*
X1605317Y1853666D01*
X1605883Y1853877D01*
X1606455Y1854073D01*
X1607030Y1854255D01*
X1607610Y1854424D01*
X1608194Y1854578D01*
X1608782Y1854717D01*
X1609373Y1854842D01*
X1609966Y1854953D01*
X1610563Y1855049D01*
X1611161Y1855130D01*
X1611761Y1855197D01*
X1612363Y1855248D01*
X1612966Y1855285D01*
X1613569Y1855308D01*
X1614173Y1855315D01*
X1614777Y1855308D01*
X1615380Y1855285D01*
X1615983Y1855248D01*
X1616585Y1855197D01*
X1617185Y1855130D01*
X1617783Y1855049D01*
X1618380Y1854953D01*
X1618973Y1854842D01*
X1619564Y1854717D01*
X1620152Y1854578D01*
X1620736Y1854424D01*
X1621316Y1854255D01*
X1621891Y1854073D01*
X1622463Y1853877D01*
X1623029Y1853666D01*
X1623589Y1853442D01*
X1624144Y1853204D01*
X1624693Y1852953D01*
X1625236Y1852688D01*
X1625772Y1852410D01*
X1626301Y1852118D01*
X1626823Y1851814D01*
X1627337Y1851497D01*
X1627843Y1851168D01*
X1628341Y1850826D01*
X1628831Y1850473D01*
X1629311Y1850107D01*
X1629783Y1849730D01*
X1630245Y1849341D01*
X1630697Y1848941D01*
X1631140Y1848530D01*
X1631572Y1848108D01*
X1631994Y1847676D01*
X1632405Y1847233D01*
X1632805Y1846781D01*
X1633194Y1846319D01*
X1633571Y1845847D01*
X1633937Y1845367D01*
X1634290Y1844877D01*
X1634632Y1844379D01*
X1634961Y1843873D01*
X1635278Y1843359D01*
X1635582Y1842837D01*
X1635874Y1842308D01*
X1636152Y1841772D01*
X1636417Y1841229D01*
X1636668Y1840680D01*
X1636906Y1840125D01*
X1637130Y1839565D01*
X1637341Y1838999D01*
X1637537Y1838427D01*
X1637719Y1837852D01*
X1637888Y1837272D01*
X1638042Y1836688D01*
X1638181Y1836100D01*
X1638306Y1835509D01*
X1638417Y1834916D01*
X1638513Y1834319D01*
X1638594Y1833721D01*
X1638661Y1833121D01*
X1638712Y1832519D01*
X1638749Y1831916D01*
X1638772Y1831313D01*
X1638779Y1830709D01*
X1638772Y1830105D01*
X1638749Y1829502D01*
X1638712Y1828899D01*
X1638661Y1828297D01*
X1638594Y1827697D01*
X1638513Y1827099D01*
X1638417Y1826502D01*
X1638306Y1825909D01*
X1638181Y1825318D01*
X1638042Y1824730D01*
X1637888Y1824146D01*
X1637719Y1823566D01*
X1637537Y1822991D01*
X1637341Y1822419D01*
X1637130Y1821853D01*
X1636906Y1821293D01*
X1636668Y1820738D01*
X1636417Y1820189D01*
X1636152Y1819646D01*
X1635874Y1819110D01*
X1635582Y1818581D01*
X1635278Y1818059D01*
X1634961Y1817545D01*
X1634632Y1817039D01*
X1634290Y1816541D01*
X1633937Y1816051D01*
X1633571Y1815571D01*
X1633194Y1815099D01*
X1632805Y1814637D01*
X1632405Y1814185D01*
X1631994Y1813742D01*
X1631572Y1813310D01*
X1631140Y1812888D01*
X1630697Y1812477D01*
X1630245Y1812077D01*
X1629783Y1811688D01*
X1629311Y1811311D01*
X1628831Y1810945D01*
X1628341Y1810592D01*
X1627843Y1810250D01*
X1627337Y1809921D01*
X1626823Y1809604D01*
X1626301Y1809300D01*
X1625772Y1809008D01*
X1625236Y1808730D01*
X1624693Y1808465D01*
X1624144Y1808214D01*
X1623589Y1807976D01*
X1623029Y1807752D01*
X1622463Y1807541D01*
X1621891Y1807345D01*
X1621316Y1807163D01*
X1620736Y1806994D01*
X1620152Y1806840D01*
X1619564Y1806701D01*
X1618973Y1806576D01*
X1618380Y1806465D01*
X1617783Y1806369D01*
X1617185Y1806288D01*
X1616585Y1806221D01*
X1615983Y1806170D01*
X1615380Y1806133D01*
X1614777Y1806110D01*
X1614173Y1806103D01*
X1613569Y1806110D01*
X1612966Y1806133D01*
X1612363Y1806170D01*
X1611761Y1806221D01*
X1611161Y1806288D01*
X1610563Y1806369D01*
X1609966Y1806465D01*
X1609373Y1806576D01*
X1608782Y1806701D01*
X1608194Y1806840D01*
X1607610Y1806994D01*
X1607030Y1807163D01*
X1606455Y1807345D01*
X1605883Y1807541D01*
X1605317Y1807752D01*
X1604757Y1807976D01*
X1604202Y1808214D01*
X1603653Y1808465D01*
X1603110Y1808730D01*
X1602574Y1809008D01*
X1602045Y1809300D01*
X1601523Y1809604D01*
X1601009Y1809921D01*
X1600503Y1810250D01*
X1600005Y1810592D01*
X1599515Y1810945D01*
X1599035Y1811311D01*
X1598563Y1811688D01*
X1598101Y1812077D01*
X1597649Y1812477D01*
X1597206Y1812888D01*
X1596774Y1813310D01*
X1596352Y1813742D01*
X1595941Y1814185D01*
X1595541Y1814637D01*
X1595152Y1815099D01*
X1594775Y1815571D01*
X1594409Y1816051D01*
X1594056Y1816541D01*
X1593714Y1817039D01*
X1593385Y1817545D01*
X1593068Y1818059D01*
X1592764Y1818581D01*
X1592472Y1819110D01*
X1592194Y1819646D01*
X1591929Y1820189D01*
X1591678Y1820738D01*
X1591440Y1821293D01*
X1591216Y1821853D01*
X1591005Y1822419D01*
X1590809Y1822991D01*
X1590627Y1823566D01*
X1590458Y1824146D01*
X1590304Y1824730D01*
X1590165Y1825318D01*
X1590040Y1825909D01*
X1589929Y1826502D01*
X1589833Y1827099D01*
X1589752Y1827697D01*
X1589685Y1828297D01*
X1589634Y1828899D01*
X1589597Y1829502D01*
X1589574Y1830105D01*
X1589567Y1830709D01*
X103347Y531496D02*
X103354Y532100D01*
X103377Y532703D01*
X103414Y533306D01*
X103465Y533908D01*
X103532Y534508D01*
X103613Y535106D01*
X103709Y535703D01*
X103820Y536296D01*
X103945Y536887D01*
X104084Y537475D01*
X104238Y538059D01*
X104407Y538639D01*
X104589Y539214D01*
X104785Y539786D01*
X104996Y540352D01*
X105220Y540912D01*
X105458Y541467D01*
X105709Y542016D01*
X105974Y542559D01*
X106252Y543095D01*
X106544Y543624D01*
X106848Y544146D01*
X107165Y544660D01*
X107494Y545166D01*
X107836Y545664D01*
X108189Y546154D01*
X108555Y546634D01*
X108932Y547106D01*
X109321Y547568D01*
X109721Y548020D01*
X110132Y548463D01*
X110554Y548895D01*
X110986Y549317D01*
X111429Y549728D01*
X111881Y550128D01*
X112343Y550517D01*
X112815Y550894D01*
X113295Y551260D01*
X113785Y551613D01*
X114283Y551955D01*
X114789Y552284D01*
X115303Y552601D01*
X115825Y552905D01*
X116354Y553197D01*
X116890Y553475D01*
X117433Y553740D01*
X117982Y553991D01*
X118537Y554229D01*
X119097Y554453D01*
X119663Y554664D01*
X120235Y554860D01*
X120810Y555042D01*
X121390Y555211D01*
X121974Y555365D01*
X122562Y555504D01*
X123153Y555629D01*
X123746Y555740D01*
X124343Y555836D01*
X124941Y555917D01*
X125541Y555984D01*
X126143Y556035D01*
X126746Y556072D01*
X127349Y556095D01*
X127953Y556102D01*
X128557Y556095D01*
X129160Y556072D01*
X129763Y556035D01*
X130365Y555984D01*
X130965Y555917D01*
X131563Y555836D01*
X132160Y555740D01*
X132753Y555629D01*
X133344Y555504D01*
X133932Y555365D01*
X134516Y555211D01*
X135096Y555042D01*
X135671Y554860D01*
X136243Y554664D01*
X136809Y554453D01*
X137369Y554229D01*
X137924Y553991D01*
X138473Y553740D01*
X139016Y553475D01*
X139552Y553197D01*
X140081Y552905D01*
X140603Y552601D01*
X141117Y552284D01*
X141623Y551955D01*
X142121Y551613D01*
X142611Y551260D01*
X143091Y550894D01*
X143563Y550517D01*
X144025Y550128D01*
X144477Y549728D01*
X144920Y549317D01*
X145352Y548895D01*
X145774Y548463D01*
X146185Y548020D01*
X146585Y547568D01*
X146974Y547106D01*
X147351Y546634D01*
X147717Y546154D01*
X148070Y545664D01*
X148412Y545166D01*
X148741Y544660D01*
X149058Y544146D01*
X149362Y543624D01*
X149654Y543095D01*
X149932Y542559D01*
X150197Y542016D01*
X150448Y541467D01*
X150686Y540912D01*
X150910Y540352D01*
X151121Y539786D01*
X151317Y539214D01*
X151499Y538639D01*
X151668Y538059D01*
X151822Y537475D01*
X151961Y536887D01*
X152086Y536296D01*
X152197Y535703D01*
X152293Y535106D01*
X152374Y534508D01*
X152441Y533908D01*
X152492Y533306D01*
X152529Y532703D01*
X152552Y532100D01*
X152559Y531496D01*
X152552Y530892D01*
X152529Y530289D01*
X152492Y529686D01*
X152441Y529084D01*
X152374Y528484D01*
X152293Y527886D01*
X152197Y527289D01*
X152086Y526696D01*
X151961Y526105D01*
X151822Y525517D01*
X151668Y524933D01*
X151499Y524353D01*
X151317Y523778D01*
X151121Y523206D01*
X150910Y522640D01*
X150686Y522080D01*
X150448Y521525D01*
X150197Y520976D01*
X149932Y520433D01*
X149654Y519897D01*
X149362Y519368D01*
X149058Y518846D01*
X148741Y518332D01*
X148412Y517826D01*
X148070Y517328D01*
X147717Y516838D01*
X147351Y516358D01*
X146974Y515886D01*
X146585Y515424D01*
X146185Y514972D01*
X145774Y514529D01*
X145352Y514097D01*
X144920Y513675D01*
X144477Y513264D01*
X144025Y512864D01*
X143563Y512475D01*
X143091Y512098D01*
X142611Y511732D01*
X142121Y511379D01*
X141623Y511037D01*
X141117Y510708D01*
X140603Y510391D01*
X140081Y510087D01*
X139552Y509795D01*
X139016Y509517D01*
X138473Y509252D01*
X137924Y509001D01*
X137369Y508763D01*
X136809Y508539D01*
X136243Y508328D01*
X135671Y508132D01*
X135096Y507950D01*
X134516Y507781D01*
X133932Y507627D01*
X133344Y507488D01*
X132753Y507363D01*
X132160Y507252D01*
X131563Y507156D01*
X130965Y507075D01*
X130365Y507008D01*
X129763Y506957D01*
X129160Y506920D01*
X128557Y506897D01*
X127953Y506890D01*
X127349Y506897D01*
X126746Y506920D01*
X126143Y506957D01*
X125541Y507008D01*
X124941Y507075D01*
X124343Y507156D01*
X123746Y507252D01*
X123153Y507363D01*
X122562Y507488D01*
X121974Y507627D01*
X121390Y507781D01*
X120810Y507950D01*
X120235Y508132D01*
X119663Y508328D01*
X119097Y508539D01*
X118537Y508763D01*
X117982Y509001D01*
X117433Y509252D01*
X116890Y509517D01*
X116354Y509795D01*
X115825Y510087D01*
X115303Y510391D01*
X114789Y510708D01*
X114283Y511037D01*
X113785Y511379D01*
X113295Y511732D01*
X112815Y512098D01*
X112343Y512475D01*
X111881Y512864D01*
X111429Y513264D01*
X110986Y513675D01*
X110554Y514097D01*
X110132Y514529D01*
X109721Y514972D01*
X109321Y515424D01*
X108932Y515886D01*
X108555Y516358D01*
X108189Y516838D01*
X107836Y517328D01*
X107494Y517826D01*
X107165Y518332D01*
X106848Y518846D01*
X106544Y519368D01*
X106252Y519897D01*
X105974Y520433D01*
X105709Y520976D01*
X105458Y521525D01*
X105220Y522080D01*
X104996Y522640D01*
X104785Y523206D01*
X104589Y523778D01*
X104407Y524353D01*
X104238Y524933D01*
X104084Y525517D01*
X103945Y526105D01*
X103820Y526696D01*
X103709Y527289D01*
X103613Y527886D01*
X103532Y528484D01*
X103465Y529084D01*
X103414Y529686D01*
X103377Y530289D01*
X103354Y530892D01*
X103347Y531496D01*
D11*
X0Y0D02*
X1771654Y0D01*
X1771654Y2362205D01*
X0Y2362205D01*
X0Y0D01*
X1638780Y530114D02*
X1638470Y527368D01*
X1637855Y524673D01*
X1636942Y522065D01*
X1635743Y519575D01*
X1634273Y517235D01*
X1632550Y515074D01*
X1630595Y513120D01*
X1628435Y511397D01*
X1626094Y509926D01*
X1623604Y508727D01*
X1620996Y507814D01*
X1618301Y507199D01*
X1615555Y506890D01*
X1612791Y506890D01*
X1610045Y507199D01*
X1607351Y507814D01*
X1604742Y508727D01*
X1602252Y509926D01*
X1599912Y511397D01*
X1597751Y513120D01*
X1595797Y515074D01*
X1594074Y517235D01*
X1592603Y519575D01*
X1591404Y522065D01*
X1590491Y524673D01*
X1589876Y527368D01*
X1589567Y530114D01*
X1589567Y532878D01*
X1589876Y535624D01*
X1590491Y538319D01*
X1591404Y540927D01*
X1592603Y543417D01*
X1594074Y545758D01*
X1595797Y547918D01*
X1597751Y549872D01*
X1599912Y551596D01*
X1602252Y553066D01*
X1604742Y554265D01*
X1607351Y555178D01*
X1610045Y555793D01*
X1612791Y556102D01*
X1615555Y556102D01*
X1618301Y555793D01*
X1620996Y555178D01*
X1623604Y554265D01*
X1626094Y553066D01*
X1628435Y551596D01*
X1630595Y549872D01*
X1632550Y547918D01*
X1634273Y545758D01*
X1635743Y543417D01*
X1636942Y540927D01*
X1637855Y538319D01*
X1638470Y535624D01*
X1638780Y532878D01*
X1638780Y530114D01*
X152559Y1829327D02*
X152250Y1826580D01*
X151635Y1823886D01*
X150722Y1821277D01*
X149523Y1818787D01*
X148052Y1816447D01*
X146329Y1814287D01*
X144375Y1812332D01*
X142214Y1810609D01*
X139874Y1809139D01*
X137384Y1807940D01*
X134775Y1807027D01*
X132081Y1806412D01*
X129335Y1806102D01*
X126571Y1806102D01*
X123825Y1806412D01*
X121130Y1807027D01*
X118522Y1807940D01*
X116031Y1809139D01*
X113691Y1810609D01*
X111531Y1812332D01*
X109576Y1814287D01*
X107853Y1816447D01*
X106383Y1818787D01*
X105184Y1821277D01*
X104271Y1823886D01*
X103656Y1826580D01*
X103346Y1829327D01*
X103346Y1832091D01*
X103656Y1834837D01*
X104271Y1837531D01*
X105184Y1840140D01*
X106383Y1842630D01*
X107853Y1844970D01*
X109576Y1847131D01*
X111531Y1849085D01*
X113691Y1850808D01*
X116031Y1852279D01*
X118522Y1853478D01*
X121130Y1854391D01*
X123825Y1855006D01*
X126571Y1855315D01*
X129335Y1855315D01*
X132081Y1855006D01*
X134775Y1854391D01*
X137384Y1853478D01*
X139874Y1852279D01*
X142214Y1850808D01*
X144375Y1849085D01*
X146329Y1847131D01*
X148052Y1844970D01*
X149523Y1842630D01*
X150722Y1840140D01*
X151635Y1837531D01*
X152250Y1834837D01*
X152559Y1832091D01*
X152559Y1829327D01*
X1638780Y1829327D02*
X1638470Y1826580D01*
X1637855Y1823886D01*
X1636942Y1821277D01*
X1635743Y1818787D01*
X1634273Y1816447D01*
X1632550Y1814287D01*
X1630595Y1812332D01*
X1628435Y1810609D01*
X1626094Y1809139D01*
X1623604Y1807940D01*
X1620996Y1807027D01*
X1618301Y1806412D01*
X1615555Y1806102D01*
X1612791Y1806102D01*
X1610045Y1806412D01*
X1607351Y1807027D01*
X1604742Y1807940D01*
X1602252Y1809139D01*
X1599912Y1810609D01*
X1597751Y1812332D01*
X1595797Y1814287D01*
X1594074Y1816447D01*
X1592603Y1818787D01*
X1591404Y1821277D01*
X1590491Y1823886D01*
X1589876Y1826580D01*
X1589567Y1829327D01*
X1589567Y1832091D01*
X1589876Y1834837D01*
X1590491Y1837531D01*
X1591404Y1840140D01*
X1592603Y1842630D01*
X1594074Y1844970D01*
X1595797Y1847131D01*
X1597751Y1849085D01*
X1599912Y1850808D01*
X1602252Y1852279D01*
X1604742Y1853478D01*
X1607351Y1854391D01*
X1610045Y1855006D01*
X1612791Y1855315D01*
X1615555Y1855315D01*
X1618301Y1855006D01*
X1620996Y1854391D01*
X1623604Y1853478D01*
X1626094Y1852279D01*
X1628435Y1850808D01*
X1630595Y1849085D01*
X1632550Y1847131D01*
X1634273Y1844970D01*
X1635743Y1842630D01*
X1636942Y1840140D01*
X1637855Y1837531D01*
X1638470Y1834837D01*
X1638780Y1832091D01*
X1638780Y1829327D01*
X152559Y530114D02*
X152250Y527368D01*
X151635Y524673D01*
X150722Y522065D01*
X149523Y519575D01*
X148052Y517235D01*
X146329Y515074D01*
X144375Y513120D01*
X142214Y511397D01*
X139874Y509926D01*
X137384Y508727D01*
X134775Y507814D01*
X132081Y507199D01*
X129335Y506890D01*
X126571Y506890D01*
X123825Y507199D01*
X121130Y507814D01*
X118522Y508727D01*
X116031Y509926D01*
X113691Y511397D01*
X111531Y513120D01*
X109576Y515074D01*
X107853Y517235D01*
X106383Y519575D01*
X105184Y522065D01*
X104271Y524673D01*
X103656Y527368D01*
X103346Y530114D01*
X103346Y532878D01*
X103656Y535624D01*
X104271Y538319D01*
X105184Y540927D01*
X106383Y543417D01*
X107853Y545758D01*
X109576Y547918D01*
X111531Y549872D01*
X113691Y551596D01*
X116031Y553066D01*
X118522Y554265D01*
X121130Y555178D01*
X123825Y555793D01*
X126571Y556102D01*
X129335Y556102D01*
X132081Y555793D01*
X134775Y555178D01*
X137384Y554265D01*
X139874Y553066D01*
X142214Y551596D01*
X144375Y549872D01*
X146329Y547918D01*
X148052Y545758D01*
X149523Y543417D01*
X150722Y540927D01*
X151635Y538319D01*
X152250Y535624D01*
X152559Y532878D01*
X152559Y530114D01*
M02*
